<svg width="26" height="26" viewBox="0 0 26 26" fill="none" xmlns="http://www.w3.org/2000/svg">
<g clip-path="url(#clip0_2622_28640)">
<path d="M17.25 25.75H14.4167V22.9167H17.25V25.75ZM14.4167 15.8333H11.5833V22.9167H14.4167V15.8333ZM25.75 13H22.9167V18.6667H25.75V13ZM22.9167 10.1667H20.0833V13H22.9167V10.1667ZM5.91667 13H3.08333V15.8333H5.91667V13ZM3.08333 10.1667H0.25V13H3.08333V10.1667ZM13 3.08333H15.8333V0.25H13V3.08333ZM2.375 2.375V6.625H6.625V2.375H2.375ZM8.75 8.75H0.25V0.25H8.75V8.75ZM2.375 19.375V23.625H6.625V19.375H2.375ZM8.75 25.75H0.25V17.25H8.75V25.75ZM19.375 2.375V6.625H23.625V2.375H19.375ZM25.75 8.75H17.25V0.25H25.75V8.75ZM22.9167 22.9167V18.6667H17.25V21.5H20.0833V25.75H25.75V22.9167H22.9167ZM20.0833 13H14.4167V15.8333H20.0833V13ZM14.4167 10.1667H5.91667V13H8.75V15.8333H11.5833V13H14.4167V10.1667ZM15.8333 8.75V5.91667H13V3.08333H10.1667V8.75H15.8333ZM5.5625 3.4375H3.4375V5.5625H5.5625V3.4375ZM5.5625 20.4375H3.4375V22.5625H5.5625V20.4375ZM22.5625 3.4375H20.4375V5.5625H22.5625V3.4375Z" fill="#37474F"/>
</g>
<defs>
<clipPath id="clip0_2622_28640">
<rect width="26" height="26" fill="white"/>
</clipPath>
</defs>
</svg>
