<svg width="36" height="36" viewBox="0 0 36 36" fill="none" xmlns="http://www.w3.org/2000/svg">
<path fill-rule="evenodd" clip-rule="evenodd" d="M4.40383 0.0848334C2.67598 0.43962 1.28093 1.52664 0.52067 3.11062C-0.0386056 4.27584 0.00091499 3.44141 0.00091499 14.0899C0.00091499 24.8322 -0.0486795 23.8872 0.582381 25.1748C0.86297 25.7473 1.00682 25.9398 1.58265 26.5135C1.97426 26.9036 2.44647 27.2939 2.71311 27.4478C3.26097 27.7641 4.11126 28.0444 4.78987 28.1326C5.06363 28.1682 9.10508 28.1978 13.8439 28.199L22.4034 28.2012L26.2399 32.0346C28.35 34.143 30.1643 35.9044 30.2716 35.9488C30.5599 36.0681 30.9243 35.9732 31.1341 35.7241L31.3144 35.51V31.8289V28.1479L31.7811 28.0308C32.9241 27.744 33.7191 27.2759 34.5463 26.4029C34.97 25.9556 35.1762 25.6639 35.4228 25.1622C36.0477 23.891 35.9991 24.8256 35.9991 14.0899C35.9991 3.38053 36.0439 4.26479 35.4401 3.04024C34.877 1.89818 34.0535 1.08564 32.8995 0.533508C31.7127 -0.0343204 33.0989 0.0156496 18.1761 0.00255887C7.30848 -0.00701284 4.77762 0.00811891 4.40383 0.0848334ZM31.7795 1.7451C32.9738 2.18167 33.8477 3.06389 34.285 4.27457L34.4493 4.72937V14.0196C34.4493 22.8381 34.4427 23.3312 34.3197 23.732C34.1183 24.3889 33.7834 24.9576 33.3222 25.4259C32.6288 26.13 31.8893 26.476 30.8487 26.5832C30.215 26.6486 30.0489 26.7216 29.8784 27.0098C29.7783 27.1791 29.7646 27.5686 29.7646 30.2355C29.7646 31.9037 29.7407 33.2686 29.7115 33.2686C29.6822 33.2686 28.1844 31.7954 26.3829 29.9948C23.8305 27.4437 23.0529 26.7057 22.8608 26.6521C22.7061 26.6089 19.3078 26.5828 13.738 26.582C6.17795 26.581 4.80439 26.5655 4.47484 26.4779C3.41335 26.1957 2.4471 25.4173 1.98349 24.471C1.4898 23.4633 1.50981 23.9333 1.53137 13.822L1.55074 4.72937L1.71502 4.27457C1.93143 3.67542 2.16391 3.28882 2.58363 2.83002C3.15509 2.20539 3.99369 1.73532 4.76888 1.60512C4.98114 1.5695 10.8083 1.54656 18.2114 1.55226L31.2792 1.56226L31.7795 1.7451ZM16.5911 4.75731C16.2179 4.87681 15.7993 5.1337 15.5358 5.40495C15.111 5.84229 14.9411 6.25303 14.9129 6.91116C14.8861 7.5348 15.4901 14.8194 15.6102 15.3216C15.7887 16.0678 16.2852 16.6652 17.0053 16.9997C17.3344 17.1525 17.5023 17.1836 18 17.1836C18.4997 17.1836 18.6652 17.1528 19.0001 16.9972C19.7295 16.6585 20.3133 15.8993 20.424 15.1456C20.5522 14.273 21.1066 7.38439 21.0866 6.91116C21.0489 6.01092 20.6275 5.35223 19.8164 4.92538C19.4507 4.73282 19.4208 4.72916 18.1057 4.71515C17.3695 4.70734 16.688 4.72634 16.5911 4.75731ZM19.3445 6.5076C19.4933 6.67426 19.5499 6.80967 19.5502 7.00026C19.5505 7.30859 18.9325 14.5464 18.8773 14.8797C18.7564 15.6097 17.8581 15.8715 17.3373 15.3284C17.1015 15.0824 17.137 15.3618 16.7258 10.5188C16.5116 7.99593 16.4424 6.89124 16.4901 6.75562C16.5273 6.64997 16.6682 6.48923 16.8033 6.39829C17.0381 6.24022 17.0949 6.23396 18.094 6.25535L19.1391 6.27773L19.3445 6.5076ZM17.3395 18.8854C16.6247 19.1047 16.0711 19.6214 15.8099 20.313C15.6127 20.8354 15.645 21.6838 15.8794 22.1379C16.1179 22.5996 16.5599 23.038 17.0037 23.2527C17.3412 23.4159 17.4917 23.445 18 23.445C18.5098 23.445 18.6585 23.4161 19.0005 23.2506C19.8037 22.8622 20.3248 22.0269 20.3248 21.128C20.3248 19.5593 18.8222 18.4306 17.3395 18.8854ZM18.4111 20.4789C18.6074 20.5756 18.7749 20.8745 18.7749 21.128C18.7749 21.4957 18.5537 21.757 18.1286 21.8915C17.8978 21.9646 17.5046 21.7962 17.3626 21.5636C17.0586 21.0655 17.2701 20.5551 17.8591 20.3652C17.9835 20.3251 18.182 20.366 18.4111 20.4789Z" fill="#13836F"/>
</svg>
