<svg width="62" height="63" viewBox="0 0 62 63" fill="none" xmlns="http://www.w3.org/2000/svg">
<path d="M10.3223 12.0045V50.7212C10.3223 52.4325 11.0021 54.0738 12.2122 55.284C13.4224 56.4941 15.0637 57.1739 16.775 57.1739H50.9747C51.4881 57.1739 51.9805 56.97 52.3436 56.6069C52.7066 56.2439 52.9106 55.7515 52.9106 55.2381C52.9106 54.7247 52.7066 54.2323 52.3436 53.8693C51.9805 53.5062 51.4881 53.3023 50.9747 53.3023H16.775C16.0905 53.3023 15.434 53.0303 14.9499 52.5463C14.4659 52.0622 14.1939 51.4057 14.1939 50.7212H50.9747C51.4881 50.7212 51.9805 50.5172 52.3436 50.1542C52.7066 49.7911 52.9106 49.2987 52.9106 48.7853V12.0045C52.9106 11.1571 52.7436 10.318 52.4194 9.53516C52.0951 8.75227 51.6198 8.04093 51.0206 7.44173C50.4214 6.84254 49.71 6.36723 48.9272 6.04295C48.1443 5.71866 47.3052 5.55176 46.4578 5.55176H16.775C15.0637 5.55176 13.4224 6.2316 12.2122 7.44173C11.0021 8.65186 10.3223 10.2931 10.3223 12.0045ZM28.39 21.0849C28.3779 21.5902 28.1686 22.0707 27.8069 22.4238C27.4451 22.7768 26.9597 22.9744 26.4542 22.9742C24.5184 22.9742 24.5184 21.0358 24.5184 21.0358V21.0126C24.5197 20.897 24.5266 20.7816 24.539 20.6667C24.6532 19.6697 25.027 18.72 25.6231 17.9127C26.7949 16.3305 28.9011 15.1715 32.2952 15.2309C34.7473 15.2748 36.9232 16.3021 38.286 17.9927C39.672 19.7143 40.1392 22.045 39.2204 24.3396C38.286 26.6756 36.1721 27.6047 34.9564 28.1365L34.8273 28.1958C34.1046 28.5133 33.7613 28.6785 33.5548 28.8437L33.5522 28.8463V30.715C33.5526 31.2284 33.349 31.7209 32.9862 32.0842C32.6234 32.4475 32.1311 32.6518 31.6177 32.6521C31.1043 32.6525 30.6118 32.4488 30.2485 32.086C29.8852 31.7232 29.6809 31.231 29.6806 30.7176V28.7817C29.6806 27.4318 30.331 26.4665 31.1337 25.8212C31.779 25.305 32.5921 24.9488 33.1625 24.6958L33.2606 24.652C34.6595 24.0351 35.3255 23.6531 35.6275 22.8994C35.8047 22.4942 35.8653 22.0475 35.8024 21.6097C35.7395 21.1719 35.5555 20.7604 35.2713 20.4215C34.6983 19.7117 33.6477 19.1258 32.2281 19.1026C29.8148 19.0613 29.0147 19.8382 28.7359 20.2176C28.5513 20.4682 28.4324 20.761 28.39 21.0694V21.0849ZM34.1975 37.8156C34.1975 38.5002 33.9256 39.1567 33.4415 39.6407C32.9575 40.1248 32.301 40.3967 31.6164 40.3967C30.9319 40.3967 30.2753 40.1248 29.7913 39.6407C29.3072 39.1567 29.0353 38.5002 29.0353 37.8156C29.0353 37.1311 29.3072 36.4745 29.7913 35.9905C30.2753 35.5064 30.9319 35.2345 31.6164 35.2345C32.301 35.2345 32.9575 35.5064 33.4415 35.9905C33.9256 36.4745 34.1975 37.1311 34.1975 37.8156Z" fill="white"/>
</svg>
