<svg width="20" height="21" viewBox="0 0 20 21" fill="none" xmlns="http://www.w3.org/2000/svg">
<path d="M6.67252 2.17969C6.21228 2.17969 5.83919 2.55302 5.83919 3.01302C3.99744 3.01302 2.50586 4.50635 2.50586 6.34635V8.01302V14.6797C2.50586 16.5197 3.99828 18.013 5.83919 18.013H14.1725C16.0134 18.013 17.5059 16.5205 17.5059 14.6797V8.01302V6.34635C17.5059 4.50885 16.0125 3.01302 14.1725 3.01302C14.1725 2.55302 13.7992 2.17969 13.3392 2.17969C12.8792 2.17969 12.5059 2.55302 12.5059 3.01302H7.50586C7.50586 2.55302 7.13277 2.17969 6.67252 2.17969ZM5.83919 4.67969C5.83919 5.13969 6.21228 5.51302 6.67252 5.51302C7.13277 5.51302 7.50586 5.13969 7.50586 4.67969H12.5059C12.5059 5.13969 12.8792 5.51302 13.3392 5.51302C13.7992 5.51302 14.1725 5.13969 14.1725 4.67969C15.09 4.67969 15.8392 5.42302 15.8392 6.34635V7.17969C14.2342 7.17969 5.77719 7.17969 4.17253 7.17969V6.34635C4.17253 5.42802 4.91619 4.67969 5.83919 4.67969ZM4.17253 8.84635C5.77628 8.84635 14.235 8.84635 15.8392 8.84635V14.6797C15.8392 15.5989 15.0934 16.3463 14.1725 16.3463H5.83919C4.91869 16.3463 4.17253 15.6005 4.17253 14.6797V8.84635ZM6.67252 10.513C6.21228 10.513 5.83919 10.8864 5.83919 11.3464C5.83919 11.8064 6.21228 12.1797 6.67252 12.1797C7.13277 12.1797 7.50586 11.8064 7.50586 11.3464C7.50586 10.8864 7.13277 10.513 6.67252 10.513ZM10.0059 10.513C9.54586 10.513 9.17252 10.8864 9.17252 11.3464C9.17252 11.8064 9.54586 12.1797 10.0059 12.1797C10.4659 12.1797 10.8392 11.8064 10.8392 11.3464C10.8392 10.8864 10.4659 10.513 10.0059 10.513ZM13.3392 10.513C12.8792 10.513 12.5059 10.8864 12.5059 11.3464C12.5059 11.8064 12.8792 12.1797 13.3392 12.1797C13.7992 12.1797 14.1725 11.8064 14.1725 11.3464C14.1725 10.8864 13.7992 10.513 13.3392 10.513ZM6.67252 13.013C6.21228 13.013 5.83919 13.3864 5.83919 13.8464C5.83919 14.3064 6.21228 14.6797 6.67252 14.6797C7.13277 14.6797 7.50586 14.3064 7.50586 13.8464C7.50586 13.3864 7.13277 13.013 6.67252 13.013ZM10.0059 13.013C9.54586 13.013 9.17252 13.3864 9.17252 13.8464C9.17252 14.3064 9.54586 14.6797 10.0059 14.6797C10.4659 14.6797 10.8392 14.3064 10.8392 13.8464C10.8392 13.3864 10.4659 13.013 10.0059 13.013ZM13.3392 13.013C12.8792 13.013 12.5059 13.3864 12.5059 13.8464C12.5059 14.3064 12.8792 14.6797 13.3392 14.6797C13.7992 14.6797 14.1725 14.3064 14.1725 13.8464C14.1725 13.3864 13.7992 13.013 13.3392 13.013Z" fill="#575553"/>
</svg>
