<svg width="48" height="47" viewBox="0 0 48 47" fill="none" xmlns="http://www.w3.org/2000/svg">
<g clip-path="url(#clip0_2443_28188)">
<path d="M10.8237 0C10.2731 0 9.82684 0.456193 9.82684 1.01897V10.1897C9.82684 10.7525 10.2731 11.2087 10.8237 11.2087C11.3742 11.2087 11.8205 10.7525 11.8205 10.1897V1.01897C11.8205 0.456193 11.3742 0 10.8237 0ZM31.7568 0C31.2063 0 30.76 0.456193 30.76 1.01897V10.1897C30.76 10.7525 31.2063 11.2087 31.7568 11.2087C32.3074 11.2087 32.7537 10.7525 32.7537 10.1897V1.01897C32.7537 0.456193 32.3074 0 31.7568 0ZM4.85829 4.07588C2.64247 4.07588 0.855469 5.90279 0.855469 8.16765V15.2846H41.725V8.16765C41.725 5.90268 39.938 4.07588 37.7222 4.07588H34.7473H33.7505V7.91291C34.3618 8.47278 34.7473 9.28475 34.7473 10.1897C34.7473 11.878 33.4084 13.2466 31.7568 13.2466C30.1053 13.2466 28.7664 11.878 28.7664 10.1897C28.7664 9.28475 29.1519 8.47278 29.7632 7.91291V4.07588H28.7664H13.8141H12.8173V7.91291C13.4286 8.47278 13.8141 9.28475 13.8141 10.1897C13.8141 11.878 12.4752 13.2466 10.8237 13.2466C9.17208 13.2466 7.8332 11.878 7.8332 10.1897C7.8332 9.28475 8.21867 8.47288 8.83002 7.91291V4.07588H7.8332H4.85829ZM0.855469 17.3225V37.686C0.855469 39.951 2.64242 41.7778 4.85829 41.7778H32.3331C31.9582 40.8326 31.7568 39.8036 31.7568 38.7209C31.7568 34.2188 35.3272 30.5691 39.7314 30.5691C40.4229 30.5691 41.0853 30.6707 41.725 30.8397V17.3225H0.855469ZM39.7314 31.5881C35.8777 31.5881 32.7537 34.7815 32.7537 38.7209C32.7537 42.6602 35.8777 45.8537 39.7314 45.8537C43.5851 45.8537 46.7091 42.6602 46.7091 38.7209C46.7091 34.7815 43.5851 31.5881 39.7314 31.5881ZM43.1424 35.664C43.4102 35.6451 43.6868 35.7426 43.9056 35.9505C44.3291 36.3611 44.2689 36.9376 43.999 37.3198L40.0117 42.4146C39.6967 42.8148 39.0737 42.9177 38.6567 42.6057L35.1679 40.0583C34.6989 39.7695 34.6169 39.0812 34.9342 38.6253C35.2515 38.1693 35.9134 38.075 36.3204 38.4024L39.0461 40.3926L42.4415 36.0461C42.6156 35.8184 42.8745 35.6829 43.1424 35.664Z" fill="#13836F"/>
</g>
<g clip-path="url(#clip1_2443_28188)">
<ellipse cx="38.6827" cy="37.2559" rx="6.87805" ry="7.45122" fill="white"/>
<path d="M38.1111 27.5117C32.7297 27.5117 28.3672 31.8742 28.3672 37.2556C28.3672 42.637 32.7297 46.9995 38.1111 46.9995C43.4925 46.9995 47.855 42.637 47.855 37.2556C47.855 31.8742 43.4925 27.5117 38.1111 27.5117ZM42.292 32.0756L44.3164 34.1L37.9933 40.4243L35.9808 42.4356L33.9564 40.4112L31.9058 38.3594L33.9171 36.3481L35.9677 38.3998L42.292 32.0756Z" fill="#D4BDA6"/>
</g>
<defs>
<clipPath id="clip0_2443_28188">
<rect width="45.8537" height="45.8537" fill="white" transform="translate(0.855469)"/>
</clipPath>
<clipPath id="clip1_2443_28188">
<rect width="19.4878" height="19.4878" fill="white" transform="translate(28.3672 27.5117)"/>
</clipPath>
</defs>
</svg>
