<svg width="49" height="54" viewBox="0 0 49 54" fill="none" xmlns="http://www.w3.org/2000/svg">
<path d="M19.6816 27.759C19.7956 27.759 19.9096 27.759 20.0236 27.759L32.5636 28.215C33.9886 28.272 35.2426 28.842 36.2116 29.925C36.2686 29.982 36.3826 30.096 36.4966 30.21L44.1916 27.816C44.3056 27.759 44.4766 27.759 44.5906 27.759C47.2126 24.795 48.7516 20.919 48.7516 16.701C48.7516 7.467 41.2846 0 32.0506 0C22.8166 0 15.3496 7.467 15.3496 16.701C15.3496 20.976 16.9456 24.852 19.5676 27.816H19.6816V27.759ZM30.5116 7.467V5.928C30.5116 5.586 30.7966 5.301 31.1386 5.301H32.9056C33.2476 5.301 33.5326 5.586 33.5326 5.928V7.467C35.3566 7.695 36.7816 9.12 37.0096 11.001C37.0096 11.172 36.9526 11.343 36.8386 11.457C36.6676 11.514 36.4966 11.628 36.3256 11.628H34.5586C34.2736 11.628 34.0456 11.457 33.9886 11.172C33.8746 10.716 33.4756 10.431 33.0766 10.431H31.4806C30.6826 10.431 29.9416 11.001 29.8846 11.799C29.8276 12.255 29.9986 12.654 30.2836 12.939C30.5686 13.281 30.9676 13.452 31.4236 13.452H32.7916C34.0456 13.452 35.2996 13.965 36.1546 14.934C37.0096 15.903 37.4086 17.1 37.2946 18.411C37.1236 20.349 35.6416 21.945 33.6466 22.344V23.94C33.6466 24.282 33.3616 24.567 33.0196 24.567H31.2526C30.9106 24.567 30.6256 24.282 30.6256 23.94V22.401C28.8016 22.173 27.3766 20.748 27.1486 18.867C27.1486 18.696 27.2056 18.525 27.3196 18.411C27.4336 18.297 27.6046 18.183 27.7756 18.183H29.4856C29.7706 18.183 29.9986 18.354 30.1126 18.639C30.2266 19.095 30.6256 19.38 31.0246 19.38H32.6206C33.4186 19.38 34.1596 18.81 34.2166 18.012C34.2736 17.556 34.1026 17.157 33.8176 16.872C33.5326 16.53 33.1336 16.359 32.6776 16.359H31.5376C29.1436 16.359 27.0916 14.592 26.8636 12.312C26.6356 9.975 28.1746 7.866 30.5116 7.467Z" fill="#D4BDA6"/>
<path d="M3.49294 41.6094L0.243935 45.8844C-0.155065 46.3404 -0.0410653 47.0244 0.414935 47.4234L8.96494 53.8644C9.47794 54.2064 10.1619 54.1494 10.5039 53.6364L13.7529 49.3614L3.72094 41.7804C3.66394 41.7234 3.54994 41.6664 3.49294 41.6094Z" fill="#13836F"/>
<path d="M44.9889 30.6656L37.1799 33.1166C37.1799 33.2876 37.1799 33.5156 37.1799 33.6866C37.0659 35.9096 35.4699 37.7336 33.3039 38.1896L32.7909 38.3036C29.9409 38.8736 27.0339 39.2726 24.1269 39.3296L21.7329 39.3866C20.9919 39.3866 20.3649 38.8166 20.3649 38.1326C20.3649 37.3916 20.9349 36.7646 21.6189 36.7646L24.0129 36.7076C26.7489 36.5936 29.5419 36.2516 32.2209 35.7386L32.7339 35.6246C33.7029 35.3966 34.4439 34.5986 34.5009 33.5726C34.5579 33.0026 34.3299 32.4326 33.9309 31.9766C33.5319 31.5206 32.9619 31.2926 32.3919 31.2356L19.9089 30.7796C18.5409 30.7226 17.1159 31.1216 15.9759 31.9766L5.54492 39.4436L16.3179 47.5946L26.8059 48.6206C28.6299 48.7916 30.4539 48.2786 31.9359 47.1386L47.3829 35.1686C47.9529 34.7126 48.2949 34.0856 48.3519 33.3446C48.4089 32.6036 48.1809 31.9196 47.6679 31.3496C46.9839 30.6086 45.9579 30.3806 44.9889 30.6656Z" fill="#13836F"/>
<path d="M23 15C25.1667 11.5 29.8 4.3 31 3.5L37.5 6.5L39 12.5V21L35.5 25.5H29C28.2 25.5 24.6667 18.5 23 15Z" fill="#D4BDA6"/>
<g clip-path="url(#clip0_2443_28211)">
<path d="M34.3438 8.98047C36.7764 8.98047 38.75 10.9532 38.75 13.3867C38.75 15.8193 36.7764 17.793 34.3438 17.793H30.9167V18.7721H35.8125C36.3541 18.7721 36.7917 19.2097 36.7917 19.7513C36.7917 20.2929 36.3541 20.7305 35.8125 20.7305H30.9167V21.7096C30.9167 22.2512 30.4791 22.6888 29.9375 22.6888C29.3968 22.6888 28.9583 22.2512 28.9583 21.7096V20.7305H27.9792C27.4385 20.7305 27 20.2929 27 19.7513C27 19.2097 27.4385 18.7721 27.9792 18.7721H28.9583V17.793H27.9792C27.4385 17.793 27 17.3554 27 16.8138C27 16.2722 27.4385 15.8346 27.9792 15.8346H28.9583V9.95964C28.9583 9.41895 29.3968 8.98047 29.9375 8.98047H34.3438ZM36.7917 13.3867C36.7917 12.0342 35.6962 10.9388 34.3438 10.9388H30.9167V15.8346H34.3438C35.6962 15.8346 36.7917 14.7392 36.7917 13.3867Z" fill="white"/>
</g>
<defs>
<clipPath id="clip0_2443_28211">
<rect width="11.75" height="15.6667" fill="white" transform="translate(27 8)"/>
</clipPath>
</defs>
</svg>
