<svg width="73" height="44" viewBox="0 0 73 44" fill="none" xmlns="http://www.w3.org/2000/svg">
<g clip-path="url(#clip0_2443_28220)">
<path d="M45.0747 43.6898C47.7999 41.5685 49.531 37.956 49.531 33.7808C49.531 27.2109 45.0694 21.8838 39.5694 21.8838C34.0677 21.8838 29.6091 27.2109 29.6091 33.7808C29.6091 37.9532 31.3239 41.5539 34.045 43.6777C34.0464 43.6788 34.0476 43.68 34.0486 43.6813C34.059 43.6947 34.0495 43.7142 34.0325 43.7142H15.8555C14.7509 43.7142 13.8555 42.8188 13.8555 41.7142V21.2656C13.8555 20.1611 14.7509 19.2656 15.8555 19.2656H63.5749C64.6794 19.2656 65.5749 20.1611 65.5749 21.2656V41.7142C65.5749 42.8188 64.6794 43.7142 63.5749 43.7142H45.0829C45.0699 43.7142 45.0643 43.6976 45.0747 43.6898ZM59.7782 39.969C60.8828 39.969 61.7782 39.0736 61.7782 37.969V35.2497C61.7782 34.8083 61.4204 34.4505 60.9791 34.4505C60.5377 34.4505 60.1799 34.8083 60.1799 35.2497V36.4214C60.1799 37.5099 59.2975 38.3923 58.209 38.3923H52.972C52.5366 38.3923 52.1836 38.7453 52.1836 39.1807C52.1836 39.6161 52.5366 39.969 52.972 39.969H59.7782ZM26.6111 39.969C27.0465 39.969 27.3995 39.6161 27.3995 39.1807C27.3995 38.7453 27.0465 38.3923 26.6111 38.3923H21.3753C20.2868 38.3923 19.4044 37.5099 19.4044 36.4214V35.2502C19.4044 34.8086 19.0464 34.4505 18.6047 34.4505C18.163 34.4505 17.8049 34.8086 17.8049 35.2502V37.969C17.8049 39.0736 18.7004 39.969 19.8049 39.969H26.6111ZM60.9791 28.5375C61.4204 28.5375 61.7782 28.1797 61.7782 27.7383V25.0195C61.7782 23.9149 60.8828 23.0195 59.7782 23.0195H52.9714C52.5363 23.0195 52.1836 23.3722 52.1836 23.8073C52.1836 24.2424 52.5363 24.5951 52.9714 24.5951H58.2087C59.2974 24.5951 60.1799 25.4776 60.1799 26.5663V27.7383C60.1799 28.1797 60.5377 28.5375 60.9791 28.5375ZM18.6047 28.5375C19.0464 28.5375 19.4044 28.1794 19.4044 27.7377V26.5663C19.4044 25.4776 20.287 24.5951 21.3756 24.5951H26.6114C27.0467 24.5951 27.3995 24.2422 27.3995 23.807C27.3995 23.3718 27.0467 23.0189 26.6114 23.0189H19.8049C18.7004 23.0189 17.8049 23.9144 17.8049 25.0189V27.7377C17.8049 28.1794 18.163 28.5375 18.6047 28.5375Z" fill="#13836F"/>
<path d="M69.3765 38.5928C69.3765 39.08 68.9816 39.4749 68.4945 39.4749C68.0073 39.4749 67.6124 39.08 67.6124 38.5928V19.2017C67.6124 18.0972 66.717 17.2017 65.6124 17.2017H20.6126C20.1319 17.2017 19.7422 16.812 19.7422 16.3313C19.7422 15.8506 20.1319 15.4609 20.6126 15.4609H67.3765C68.4811 15.4609 69.3765 16.3564 69.3765 17.4609V38.5928Z" fill="#13836F"/>
<path d="M72.8549 34.4718C72.8549 34.9591 72.4598 35.3542 71.9725 35.3542C71.4852 35.3542 71.0902 34.9591 71.0902 34.4718V15.7408C71.0902 14.6362 70.1948 13.7408 69.0902 13.7408H25.5618C25.0811 13.7408 24.6914 13.3511 24.6914 12.8704C24.6914 12.3897 25.0811 12 25.5618 12H70.8549C71.9594 12 72.8549 12.8954 72.8549 14V34.4718Z" fill="#13836F"/>
<path d="M40.875 27.0859C43.1523 27.0859 45 28.9327 45 31.2109C45 33.4883 43.1523 35.3359 40.875 35.3359H37.6667V36.2526H42.25C42.757 36.2526 43.1667 36.6622 43.1667 37.1693C43.1667 37.6763 42.757 38.0859 42.25 38.0859H37.6667V39.0026C37.6667 39.5096 37.257 39.9193 36.75 39.9193C36.2438 39.9193 35.8333 39.5096 35.8333 39.0026V38.0859H34.9167C34.4105 38.0859 34 37.6763 34 37.1693C34 36.6622 34.4105 36.2526 34.9167 36.2526H35.8333V35.3359H34.9167C34.4105 35.3359 34 34.9263 34 34.4193C34 33.9122 34.4105 33.5026 34.9167 33.5026H35.8333V28.0026C35.8333 27.4964 36.2438 27.0859 36.75 27.0859H40.875ZM43.1667 31.2109C43.1667 29.9448 42.1411 28.9193 40.875 28.9193H37.6667V33.5026H40.875C42.1411 33.5026 43.1667 32.4771 43.1667 31.2109Z" fill="#D4BDA6"/>
</g>
<path fill-rule="evenodd" clip-rule="evenodd" d="M11.9617 0.921875C17.5843 0.921875 22.1426 5.45511 22.1426 11.0469C22.1426 16.6386 17.5843 21.1719 11.9617 21.1719C6.33912 21.1719 1.78087 16.6386 1.78087 11.0469C1.78087 5.45511 6.33912 0.921875 11.9617 0.921875ZM11.0362 14.7287C11.0362 14.9728 11.1337 15.2069 11.3073 15.3796C11.4808 15.5522 11.7163 15.6491 11.9617 15.6491C12.2072 15.6491 12.4426 15.5522 12.6162 15.3796C12.7897 15.2069 12.8873 14.9728 12.8873 14.7287V11.9673H15.6639C15.9093 11.9673 16.1447 11.8704 16.3183 11.6977C16.4919 11.5251 16.5894 11.291 16.5894 11.0469C16.5894 10.8028 16.4919 10.5686 16.3183 10.396C16.1447 10.2234 15.9093 10.1264 15.6639 10.1264H12.8873V7.36506C12.8873 7.12094 12.7897 6.88682 12.6162 6.7142C12.4426 6.54158 12.2072 6.4446 11.9617 6.4446C11.7163 6.4446 11.4808 6.54158 11.3073 6.7142C11.1337 6.88682 11.0362 7.12094 11.0362 7.36506V10.1264H8.2596C8.01413 10.1264 7.77872 10.2234 7.60515 10.396C7.43158 10.5686 7.33407 10.8028 7.33407 11.0469C7.33407 11.291 7.43158 11.5251 7.60515 11.6977C7.77872 11.8704 8.01413 11.9673 8.2596 11.9673H11.0362V14.7287Z" fill="#D4BDA6"/>
<defs>
<clipPath id="clip0_2443_28220">
<rect width="59" height="32" fill="white" transform="translate(13.8555 12)"/>
</clipPath>
</defs>
</svg>
