<svg width="45" height="45" viewBox="0 0 45 45" fill="none" xmlns="http://www.w3.org/2000/svg">
<g clip-path="url(#clip0_2443_28198)">
<path d="M43.2799 39.2617H2.43099C1.9408 39.2617 1.54297 39.6647 1.54297 40.1571V43.7388C1.54297 44.2312 1.9408 44.6342 2.43099 44.6342H43.2799C43.7684 44.6342 44.168 44.2312 44.168 43.7388V40.1571C44.168 39.6647 43.7684 39.2617 43.2799 39.2617Z" fill="#13836F"/>
<path d="M11.3099 37.4685C11.8001 37.4685 12.1979 37.0656 12.1979 36.5731V18.6649C12.1979 18.1707 11.8001 17.7695 11.3099 17.7695H5.98177C5.49158 17.7695 5.09375 18.1707 5.09375 18.6649V36.5731C5.09375 37.0656 5.49158 37.4685 5.98177 37.4685H11.3099Z" fill="#13836F"/>
<path d="M39.7279 37.4685C40.2163 37.4685 40.6159 37.0656 40.6159 36.5731V18.6649C40.6159 18.1707 40.2163 17.7695 39.7279 17.7695H34.3997C33.9113 17.7695 33.5117 18.1707 33.5117 18.6649V36.5731C33.5117 37.0656 33.9113 37.4685 34.3997 37.4685H39.7279Z" fill="#13836F"/>
<path d="M43.6796 10.8521L23.2551 0.554955C23.0047 0.429598 22.7098 0.429598 22.4612 0.554955L2.03671 10.8521C1.733 11.0044 1.54297 11.3142 1.54297 11.6526V15.0856C1.54297 15.5799 1.9408 15.981 2.43099 15.981H12.8208C14.2878 11.8138 18.2253 8.81778 22.8555 8.81778C27.4856 8.81778 31.4231 11.8138 32.8901 15.981H43.2799C43.7684 15.981 44.168 15.5799 44.168 15.0856V11.6526C44.168 11.3142 43.9779 11.0044 43.6796 10.8521Z" fill="#13836F"/>
<path d="M31.737 19.5596C31.737 14.6151 27.7622 10.6055 22.8568 10.6055C17.9513 10.6055 13.9766 14.6151 13.9766 19.5596C13.9766 24.504 17.9513 28.5136 22.8568 28.5136C27.7622 28.5136 31.737 24.504 31.737 19.5596ZM25.6292 22.7848C25.3113 23.6659 24.6026 24.3267 23.7448 24.6007V24.932C23.7448 25.4245 23.3452 25.8274 22.8568 25.8274C22.3648 25.8274 21.9688 25.4245 21.9688 24.932V24.5935C21.5052 24.4467 21.0772 24.2031 20.7237 23.8486C20.4573 23.5817 20.2424 23.2612 20.0879 22.9012C19.8943 22.4463 20.1004 21.9198 20.5515 21.7246C21.0044 21.5241 21.5247 21.7408 21.7183 22.1921C21.7823 22.3425 21.8693 22.4714 21.9776 22.5807C22.2156 22.8206 22.5282 22.9514 22.8568 22.9514C22.8568 22.9514 22.8568 22.9514 22.8585 22.9514C23.3487 22.9514 23.7892 22.638 23.9597 22.1724C24.068 21.8769 24.0538 21.5563 23.9224 21.2716C23.791 20.9868 23.5548 20.7701 23.2617 20.6609L21.8444 20.1451C20.3153 19.581 19.5267 17.8708 20.0844 16.3361C20.4023 15.455 21.1109 14.7942 21.9705 14.5202V14.1871C21.9705 13.6928 22.3666 13.2917 22.8585 13.2917C23.347 13.2917 23.7466 13.6928 23.7466 14.1871V14.5274C24.2101 14.6724 24.6381 14.916 24.9916 15.2723C25.2598 15.5445 25.4782 15.8669 25.6274 16.225C25.8157 16.6817 25.6025 17.2064 25.1496 17.398C24.7021 17.5843 24.1781 17.3748 23.9899 16.9199C23.9313 16.7766 23.8443 16.6495 23.7306 16.5384C23.4926 16.2949 23.1161 16.1803 22.8497 16.1677C22.3577 16.1677 21.9172 16.4811 21.7485 16.9468C21.6402 17.2422 21.6544 17.5628 21.7858 17.8475C21.9172 18.1323 22.1517 18.349 22.4465 18.4582L23.8602 18.974C25.4001 19.5399 26.1851 21.2483 25.6292 22.7848Z" fill="#D4BDA6"/>
<path d="M20.1927 30.3047C19.7025 30.3047 19.3047 30.7076 19.3047 31.2001V36.5725C19.3047 37.065 19.7025 37.468 20.1927 37.468H25.5208C26.0092 37.468 26.4089 37.065 26.4089 36.5725V31.2001C26.4089 30.7076 26.0092 30.3047 25.5208 30.3047H20.1927Z" fill="#13836F"/>
<path d="M18 21.5C18.6406 19.0979 20.3582 14.1109 22.2658 12.6595L27 15.5C26.8333 17.8333 26.5 22.6 26.5 23C26.5 23.4 24.5 25.5 23.5 26.5L20 25.5L18 21.5Z" fill="#D4BDA6"/>
<path d="M24 15.668C25.6562 15.668 27 17.0111 27 18.668C27 20.3242 25.6562 21.668 24 21.668H21.6667V22.3346H25C25.3688 22.3346 25.6667 22.6326 25.6667 23.0013C25.6667 23.3701 25.3688 23.668 25 23.668H21.6667V24.3346C21.6667 24.7034 21.3688 25.0013 21 25.0013C20.6319 25.0013 20.3333 24.7034 20.3333 24.3346V23.668H19.6667C19.2985 23.668 19 23.3701 19 23.0013C19 22.6326 19.2985 22.3346 19.6667 22.3346H20.3333V21.668H19.6667C19.2985 21.668 19 21.3701 19 21.0013C19 20.6326 19.2985 20.3346 19.6667 20.3346H20.3333V16.3346C20.3333 15.9665 20.6319 15.668 21 15.668H24ZM25.6667 18.668C25.6667 17.7471 24.9208 17.0013 24 17.0013H21.6667V20.3346H24C24.9208 20.3346 25.6667 19.5888 25.6667 18.668Z" fill="white"/>
</g>
<defs>
<clipPath id="clip0_2443_28198">
<rect width="44" height="45" fill="white" transform="translate(0.855469)"/>
</clipPath>
</defs>
</svg>
