<svg width="48" height="48" viewBox="0 0 48 48" fill="none" xmlns="http://www.w3.org/2000/svg">
<rect width="48" height="48" rx="24" fill="#EDF5F4"/>
<path d="M33.3656 27.9838L29.5095 26.7594L29.5096 26.7596C29.1099 26.6313 28.6831 26.6133 28.274 26.7076C27.8649 26.8017 27.489 27.0046 27.1856 27.2947L26.1959 28.2844C26.0611 28.4157 25.887 28.499 25.7001 28.5215C25.5134 28.5441 25.3244 28.5045 25.1622 28.4091C24.3733 27.9225 23.6144 27.3888 22.8896 26.8109C22.2743 26.3203 21.7161 25.7621 21.2255 25.1468C20.6376 24.4229 20.0941 23.6639 19.5979 22.8742C19.5025 22.712 19.4629 22.523 19.4855 22.3363C19.5079 22.1494 19.5912 21.9753 19.7226 21.8404L20.7123 20.8141C21.0031 20.5127 21.207 20.1383 21.3024 19.7305C21.398 19.3227 21.3815 18.8967 21.2548 18.4974L20.0159 14.634C19.8377 14.077 19.4574 13.607 18.9498 13.3166C18.4423 13.0263 17.8444 12.9365 17.2739 13.0651L15.4412 13.483C14.6743 13.6624 14.0474 14.2122 13.7698 14.9492C10.7493 22.9036 17.5527 29.2888 18.1316 29.8677C18.5788 30.3662 22.9554 34.9995 28.8936 34.9995C30.31 35.0123 31.7167 34.7637 33.043 34.2664C33.78 33.9887 34.3299 33.3618 34.5092 32.595L34.9271 30.7622C35.0664 30.1873 34.9826 29.5812 34.693 29.0658C34.4032 28.5501 33.9289 28.1636 33.3655 27.9836L33.3656 27.9838Z" fill="#13836F"/>
<path d="M25.5494 14.4717C27.5764 14.725 29.4613 15.6468 30.9061 17.0913C32.3505 18.5359 33.2723 20.4208 33.5256 22.448C33.5472 22.6268 33.6339 22.7915 33.7691 22.9104C33.9043 23.0294 34.0785 23.0945 34.2587 23.0932H34.3468C34.5431 23.0713 34.7225 22.971 34.8439 22.815C34.9655 22.6591 35.0187 22.4606 34.9918 22.2647C34.7033 19.9094 33.6351 17.7182 31.9571 16.0404C30.2792 14.3624 28.0881 13.2942 25.7329 13.0057C25.4709 12.973 25.2113 13.0825 25.0521 13.2929C24.8927 13.5033 24.8579 13.7828 24.9605 14.026C25.0631 14.2692 25.2876 14.4392 25.5496 14.4719L25.5494 14.4717Z" fill="#D4BDA6"/>
<path d="M24.9478 17.5425C26.3474 17.7163 27.6491 18.3522 28.6463 19.3496C29.6437 20.3468 30.2796 21.6486 30.4534 23.0482C30.475 23.2271 30.5618 23.3917 30.6969 23.5106C30.8321 23.6296 31.0064 23.6946 31.1866 23.6933H31.2818C31.4755 23.6695 31.6518 23.5696 31.7714 23.4154C31.8912 23.2613 31.9446 23.0659 31.9197 22.8723C31.7047 21.1467 30.9204 19.5422 29.6908 18.3128C28.4611 17.0832 26.8567 16.2989 25.1312 16.0838C24.8693 16.0511 24.6099 16.1606 24.4505 16.371C24.2913 16.5815 24.2563 16.861 24.3589 17.1041C24.4615 17.3473 24.686 17.5173 24.9479 17.5501L24.9478 17.5425Z" fill="#D4BDA6"/>
<path d="M24.3345 21.2309C24.9532 21.3076 25.5286 21.5887 25.9694 22.0297C26.4104 22.4706 26.6915 23.0459 26.7683 23.6646C26.7899 23.8435 26.8766 24.0081 27.0118 24.1271C27.1471 24.2461 27.3214 24.3112 27.5014 24.3099H27.5894C27.7817 24.286 27.9566 24.187 28.0762 24.0345C28.1957 23.882 28.25 23.6884 28.2273 23.4961C28.1103 22.5528 27.6819 21.6758 27.01 21.0039C26.3379 20.3318 25.4608 19.9034 24.5177 19.7865C24.2557 19.7551 23.997 19.8657 23.8388 20.0768C23.6807 20.2881 23.6472 20.5674 23.7509 20.8099C23.8547 21.0526 24.0798 21.2213 24.3418 21.2527L24.3345 21.2309Z" fill="#D4BDA6"/>
</svg>
