<svg width="48" height="48" viewBox="0 0 48 48" fill="none" xmlns="http://www.w3.org/2000/svg">
<rect width="48" height="48" rx="24" fill="#EDF5F4"/>
<path d="M15.6407 29.5248C17.0615 29.227 18.103 27.9672 18.103 26.4582C18.103 24.7273 16.687 23.3242 14.9559 23.3242C13.225 23.3242 11.8152 24.7275 11.8152 26.4582C11.8152 28.001 12.9279 29.2809 14.3965 29.5411C12.4764 29.8312 11 31.4833 11 33.4843V35.1095H19.1918V33.4843C19.1918 31.4467 17.6128 29.7688 15.6408 29.5248H15.6407Z" fill="#13836F"/>
<path d="M33.4421 29.5248C34.8628 29.227 35.9007 27.9672 35.9007 26.4582C35.9007 24.7273 34.4829 23.3242 32.7518 23.3242C31.0209 23.3242 29.6104 24.7275 29.6104 26.4582C29.6104 28.001 30.7302 29.2809 32.1984 29.5411C30.2783 29.8312 28.8086 31.4833 28.8086 33.4843V35.1095H37.0004V33.4843C37.0006 31.4467 35.414 29.7688 33.4421 29.5248Z" fill="#13836F"/>
<path d="M24.9229 18.2006C26.3436 17.9028 27.3954 16.643 27.3954 15.134C27.3954 13.4031 25.9843 12 24.2534 12C22.5225 12 21.1152 13.4033 21.1152 15.134C21.1152 16.6768 22.209 17.9567 23.6772 18.2169C21.7574 18.5069 20.2617 20.1596 20.2617 22.1606V23.7112H28.4535V22.1606C28.4538 20.1225 26.8946 18.4446 24.9229 18.2006Z" fill="#13836F"/>
<path d="M33.1988 22.6424H34.8407C34.1974 18.7248 31.6591 15.5743 28.0977 14.1953V15.9543C30.5908 17.204 32.6166 19.4367 33.1991 22.6424H33.1988Z" fill="#D4BDA6"/>
<path d="M19.9023 32.8516V34.6227C21.3271 35.1401 22.6153 35.4234 24.0671 35.4234C25.4704 35.4234 26.6696 35.1604 28.0943 34.6754V32.9164C27.0257 33.4866 25.4908 33.8061 24.0671 33.8061C22.5911 33.8059 21.3271 33.4622 19.9023 32.8516Z" fill="#D4BDA6"/>
<path d="M20.2621 15.8325V14.0938C16.7003 15.3716 14.0268 18.3678 13.25 22.2856H14.9122C15.6117 19.08 17.7687 16.9851 20.2618 15.8327L20.2621 15.8325Z" fill="#D4BDA6"/>
</svg>
