<svg width="20" height="21" viewBox="0 0 20 21" fill="none" xmlns="http://www.w3.org/2000/svg">
<path d="M4.16602 12.9993H3.33268C2.89065 12.9993 2.46673 12.8238 2.15417 12.5112C1.84161 12.1986 1.66602 11.7747 1.66602 11.3327V3.83268C1.66602 3.39065 1.84161 2.96673 2.15417 2.65417C2.46673 2.34161 2.89065 2.16602 3.33268 2.16602H10.8327C11.2747 2.16602 11.6986 2.34161 12.0112 2.65417C12.3238 2.96673 12.4993 3.39065 12.4993 3.83268V4.66602M9.16602 7.99935H16.666C17.5865 7.99935 18.3327 8.74554 18.3327 9.66602V17.166C18.3327 18.0865 17.5865 18.8327 16.666 18.8327H9.16602C8.24554 18.8327 7.49935 18.0865 7.49935 17.166V9.66602C7.49935 8.74554 8.24554 7.99935 9.16602 7.99935Z" stroke="#4E4E4E" stroke-width="1.67" stroke-linecap="round" stroke-linejoin="round"/>
</svg>
