<svg id="Слой_1" data-name="Слой 1" xmlns="http://www.w3.org/2000/svg" viewBox="0 0 18.34 18.34"><defs><style>.cls-1{fill:#4e4e4e;}</style></defs><path class="cls-1" d="M15.83,18.34H8.33a2.52,2.52,0,0,1-2.5-2.51V8.33a2.51,2.51,0,0,1,2.5-2.5h7.5a2.52,2.52,0,0,1,2.51,2.5v7.5A2.52,2.52,0,0,1,15.83,18.34ZM8.33,7.5a.84.84,0,0,0-.83.83v7.5a.84.84,0,0,0,.83.84h7.5a.85.85,0,0,0,.84-.84V8.33a.84.84,0,0,0-.84-.83Zm-5,5H2.5a2.49,2.49,0,0,1-1.77-.73A2.55,2.55,0,0,1,0,10V2.5A2.49,2.49,0,0,1,2.5,0H10a2.49,2.49,0,0,1,2.5,2.5v.83a.83.83,0,0,1-.83.84.84.84,0,0,1-.84-.84V2.5a.82.82,0,0,0-.24-.59A.87.87,0,0,0,10,1.67H2.5a.87.87,0,0,0-.59.24.87.87,0,0,0-.24.59V10a.87.87,0,0,0,.24.59.82.82,0,0,0,.59.24h.83a.84.84,0,0,1,.84.84A.83.83,0,0,1,3.33,12.5Z"/></svg>