<svg width="24" height="24" viewBox="0 0 24 24" fill="none" xmlns="http://www.w3.org/2000/svg">
<path d="M9.10595 18.2925C9.07768 20.5922 10.7451 21.3794 11.6525 21.6301C12.2636 21.8422 12.7777 21.3101 13.0221 20.9219C13.0773 20.8341 13.101 20.7315 13.1023 20.6278L13.1417 17.4197C13.1435 17.2722 13.1942 17.1294 13.2857 17.0137L16.5108 12.9376C16.7808 12.5964 16.9617 12.1965 17.0411 11.7737L17.0871 8.03739V3.75313C17.0871 3.0221 16.4992 2.42697 15.7682 2.41799L7.86473 2.32085C4.99013 2.28552 3.77118 3.99556 3.52103 4.855C2.83249 6.6963 2.3377 9.23423 2.02782 11.3201C1.79952 12.8568 3.00606 14.1925 4.5595 14.2116L8.33923 14.2581C8.87242 14.2646 9.36399 14.9501 9.29045 15.4782C9.19495 16.1639 9.12042 17.1147 9.10595 18.2925Z" fill="#686868"/>
<path d="M20.3109 12.3395C21.2437 12.3395 22 11.5832 22 10.6503V4.12417C22 3.19129 21.2437 2.43504 20.3109 2.43504C19.378 2.43504 18.6217 3.19129 18.6217 4.12418V10.6503C18.6217 11.5832 19.378 12.3395 20.3109 12.3395Z" fill="#686868"/>
</svg>
