<svg width="62" height="63" viewBox="0 0 62 63" fill="none" xmlns="http://www.w3.org/2000/svg">
<path d="M30.975 21.0384V5.55176H15.4884C14.1193 5.55176 12.8063 6.09563 11.8381 7.06374C10.87 8.03184 10.3262 9.34487 10.3262 10.714V52.0117C10.3262 53.3808 10.87 54.6938 11.8381 55.6619C12.8063 56.6301 14.1193 57.1739 15.4884 57.1739H46.4617C47.8308 57.1739 49.1438 56.6301 50.1119 55.6619C51.08 54.6938 51.6239 53.3808 51.6239 52.0117V26.2006H36.1373C34.7681 26.2006 33.4551 25.6568 32.487 24.6886C31.5189 23.7205 30.975 22.4075 30.975 21.0384ZM18.0695 32.0081C18.0695 31.4947 18.2734 31.0023 18.6365 30.6393C18.9995 30.2762 19.4919 30.0723 20.0053 30.0723C20.5187 30.0723 21.0111 30.2762 21.3742 30.6393C21.7372 31.0023 21.9412 31.4947 21.9412 32.0081C21.9412 32.5215 21.7372 33.0139 21.3742 33.377C21.0111 33.74 20.5187 33.944 20.0053 33.944C19.4919 33.944 18.9995 33.74 18.6365 33.377C18.2734 33.0139 18.0695 32.5215 18.0695 32.0081ZM18.0695 39.7514C18.0695 39.238 18.2734 38.7456 18.6365 38.3826C18.9995 38.0196 19.4919 37.8156 20.0053 37.8156C20.5187 37.8156 21.0111 38.0196 21.3742 38.3826C21.7372 38.7456 21.9412 39.238 21.9412 39.7514C21.9412 40.2649 21.7372 40.7572 21.3742 41.1203C21.0111 41.4833 20.5187 41.6873 20.0053 41.6873C19.4919 41.6873 18.9995 41.4833 18.6365 41.1203C18.2734 40.7572 18.0695 40.2649 18.0695 39.7514ZM18.0695 47.4948C18.0695 46.9814 18.2734 46.489 18.6365 46.1259C18.9995 45.7629 19.4919 45.5589 20.0053 45.5589C20.5187 45.5589 21.0111 45.7629 21.3742 46.1259C21.7372 46.489 21.9412 46.9814 21.9412 47.4948C21.9412 48.0082 21.7372 48.5006 21.3742 48.8636C21.0111 49.2267 20.5187 49.4306 20.0053 49.4306C19.4919 49.4306 18.9995 49.2267 18.6365 48.8636C18.2734 48.5006 18.0695 48.0082 18.0695 47.4948ZM25.8128 32.0081C25.8128 31.4947 26.0168 31.0023 26.3798 30.6393C26.7429 30.2762 27.2352 30.0723 27.7487 30.0723H41.9447C42.4582 30.0723 42.9505 30.2762 43.3136 30.6393C43.6766 31.0023 43.8806 31.4947 43.8806 32.0081C43.8806 32.5215 43.6766 33.0139 43.3136 33.377C42.9505 33.74 42.4582 33.944 41.9447 33.944H27.7487C27.2352 33.944 26.7429 33.74 26.3798 33.377C26.0168 33.0139 25.8128 32.5215 25.8128 32.0081ZM25.8128 39.7514C25.8128 39.238 26.0168 38.7456 26.3798 38.3826C26.7429 38.0196 27.2352 37.8156 27.7487 37.8156H41.9447C42.4582 37.8156 42.9505 38.0196 43.3136 38.3826C43.6766 38.7456 43.8806 39.238 43.8806 39.7514C43.8806 40.2649 43.6766 40.7572 43.3136 41.1203C42.9505 41.4833 42.4582 41.6873 41.9447 41.6873H27.7487C27.2352 41.6873 26.7429 41.4833 26.3798 41.1203C26.0168 40.7572 25.8128 40.2649 25.8128 39.7514ZM25.8128 47.4948C25.8128 46.9814 26.0168 46.489 26.3798 46.1259C26.7429 45.7629 27.2352 45.5589 27.7487 45.5589H41.9447C42.4582 45.5589 42.9505 45.7629 43.3136 46.1259C43.6766 46.489 43.8806 46.9814 43.8806 47.4948C43.8806 48.0082 43.6766 48.5006 43.3136 48.8636C42.9505 49.2267 42.4582 49.4306 41.9447 49.4306H27.7487C27.2352 49.4306 26.7429 49.2267 26.3798 48.8636C26.0168 48.5006 25.8128 48.0082 25.8128 47.4948ZM34.8467 21.0384V6.84231L50.3333 22.329H36.1373C35.795 22.329 35.4667 22.193 35.2247 21.951C34.9827 21.7089 34.8467 21.3807 34.8467 21.0384Z" fill="white"/>
</svg>
