<svg width="24" height="32" viewBox="0 0 24 32" fill="none" xmlns="http://www.w3.org/2000/svg">
<path d="M12 0V9C12 9.79565 12.3161 10.5587 12.8787 11.1213C13.4413 11.6839 14.2044 12 15 12H24V29C24 29.7956 23.6839 30.5587 23.1213 31.1213C22.5587 31.6839 21.7956 32 21 32H3C2.20435 32 1.44129 31.6839 0.878679 31.1213C0.31607 30.5587 0 29.7956 0 29V3C0 2.20435 0.31607 1.44129 0.878679 0.87868C1.44129 0.316071 2.20435 0 3 0H12ZM14 0.5V9C14 9.26522 14.1054 9.51957 14.2929 9.70711C14.4804 9.89464 14.7348 10 15 10H23.5L14 0.5Z" fill="#13836F"/>
</svg>
