<svg width="30" height="41" viewBox="0 0 30 41" fill="none" xmlns="http://www.w3.org/2000/svg">
<path d="M0.5 36.9453V4.94531C0.5 3.01232 2.067 1.44531 4 1.44531H17.9C18.7987 1.44531 19.663 1.79102 20.3138 2.41083L28.4138 10.1251C29.1074 10.7857 29.5 11.7017 29.5 12.6596V36.9453C29.5 38.8783 27.933 40.4453 26 40.4453H4C2.067 40.4453 0.5 38.8783 0.5 36.9453Z" fill="#F6F8F9" stroke="#E5E9EB"/>
<path fill-rule="evenodd" clip-rule="evenodd" d="M8 27.9453C8 27.6801 8.10536 27.4257 8.29289 27.2382C8.48043 27.0507 8.73478 26.9453 9 26.9453H21C21.2652 26.9453 21.5196 27.0507 21.7071 27.2382C21.8946 27.4257 22 27.6801 22 27.9453C22 28.2105 21.8946 28.4649 21.7071 28.6524C21.5196 28.84 21.2652 28.9453 21 28.9453H9C8.73478 28.9453 8.48043 28.84 8.29289 28.6524C8.10536 28.4649 8 28.2105 8 27.9453ZM11.293 20.2383C11.4805 20.0508 11.7348 19.9455 12 19.9455C12.2652 19.9455 12.5195 20.0508 12.707 20.2383L14 21.5313V13.9453C14 13.6801 14.1054 13.4257 14.2929 13.2382C14.4804 13.0507 14.7348 12.9453 15 12.9453C15.2652 12.9453 15.5196 13.0507 15.7071 13.2382C15.8946 13.4257 16 13.6801 16 13.9453V21.5313L17.293 20.2383C17.3852 20.1428 17.4956 20.0666 17.6176 20.0142C17.7396 19.9618 17.8708 19.9342 18.0036 19.9331C18.1364 19.9319 18.2681 19.9572 18.391 20.0075C18.5139 20.0578 18.6255 20.132 18.7194 20.2259C18.8133 20.3198 18.8875 20.4315 18.9378 20.5544C18.9881 20.6773 19.0134 20.8089 19.0123 20.9417C19.0111 21.0745 18.9835 21.2057 18.9311 21.3277C18.8787 21.4497 18.8025 21.5601 18.707 21.6523L15.707 24.6523C15.5195 24.8398 15.2652 24.9451 15 24.9451C14.7348 24.9451 14.4805 24.8398 14.293 24.6523L11.293 21.6523C11.1055 21.4648 11.0002 21.2105 11.0002 20.9453C11.0002 20.6801 11.1055 20.4258 11.293 20.2383Z" fill="#13836F"/>
</svg>
