<svg width="24" height="32" viewBox="0 0 24 32" fill="none" xmlns="http://www.w3.org/2000/svg">
<path d="M1.71515 0C1.41202 0 1.12137 0.120314 0.907088 0.334823C0.692579 0.549109 0.572266 0.839731 0.572266 1.14288V30.8572C0.572266 31.1603 0.692579 31.4509 0.907088 31.6652C1.12137 31.8797 1.412 32 1.71515 32H22.2866C22.5897 32 22.8804 31.8797 23.0946 31.6652C23.3091 31.4509 23.4295 31.1603 23.4295 30.8572V8.00002C23.429 7.8094 23.4089 7.61944 23.3692 7.43306H17.7152C17.481 7.43306 17.2563 7.38417 17.0522 7.2969H17.05C16.846 7.20917 16.6627 7.07993 16.5076 6.92413C16.1962 6.61118 16.0031 6.18259 16.0031 5.71207V0.0625314C15.8145 0.0216834 15.6223 0.000702857 15.4295 2.85714e-05L1.71515 0ZM17.1414 0.609371V5.71206C17.1414 5.87322 17.2035 6.01518 17.3066 6.11831C17.3584 6.17054 17.4202 6.21228 17.4896 6.24107C17.5586 6.26965 17.6345 6.28572 17.7151 6.28572H22.82C22.7716 6.22523 22.7283 6.16139 22.6749 6.10491C22.6577 6.08594 22.6403 6.06741 22.6213 6.04911L17.3803 0.808022C17.3066 0.734582 17.2227 0.673645 17.1414 0.609359L17.1414 0.609371ZM12.003 9.70994H12.0122C12.1644 9.70927 12.3109 9.76954 12.4184 9.87735C12.5262 9.98494 12.5865 10.1314 12.5859 10.2836V20.3327L16.1796 16.739C16.2868 16.6312 16.4327 16.5705 16.5848 16.5705C16.7368 16.5705 16.8825 16.6312 16.9899 16.739C17.2129 16.9622 17.2129 17.3238 16.9899 17.547L12.4542 22.0827C12.4245 22.118 12.3908 22.1495 12.3537 22.1765C12.3171 22.2035 12.2774 22.2258 12.2354 22.2435C12.2142 22.2522 12.1928 22.2595 12.1707 22.2658C12.1495 22.2723 12.1278 22.2774 12.106 22.2814C12.0839 22.285 12.0615 22.2872 12.039 22.2881C12.0301 22.2892 12.0211 22.2899 12.0122 22.2903C12.0084 22.2897 12.0046 22.289 12.0008 22.2881C11.9801 22.2879 11.9591 22.2863 11.9383 22.2836H11.9314C11.8872 22.2769 11.8437 22.2649 11.8019 22.2479C11.7814 22.2394 11.7613 22.2298 11.7419 22.2189C11.6926 22.193 11.6475 22.1598 11.608 22.1207L7.04322 17.547C6.82001 17.3238 6.82001 16.9622 7.04322 16.739C7.1296 16.6526 7.24143 16.5963 7.36241 16.5783C7.53942 16.5535 7.71777 16.6131 7.84455 16.739L11.4472 20.3417V10.2834C11.4459 9.97289 11.6926 9.7182 12.003 9.70972L12.003 9.70994ZM7.42938 25.7145H7.43853H16.5854C16.7376 25.7138 16.8841 25.7741 16.9916 25.8819C17.0995 25.9895 17.1597 26.1359 17.159 26.2882C17.1555 26.602 16.8992 26.8542 16.5854 26.8529H7.43796C7.12747 26.8493 6.8768 26.5987 6.87323 26.2882C6.87189 25.9777 7.11877 25.723 7.42904 25.7145L7.42938 25.7145Z" fill="#13836F"/>
</svg>
