<svg width="336" height="299" viewBox="0 0 336 299" fill="none" xmlns="http://www.w3.org/2000/svg">
<g clip-path="url(#clip0_1_43531)">
<path d="M336 219.973H0V220.141H336V219.973Z" fill="#DEEDEB"/>
<path d="M302.333 230.785H280.076V230.953H302.333V230.785Z" fill="#DEEDEB"/>
<path d="M222.58 232.613H216.74V232.781H222.58V232.613Z" fill="#DEEDEB"/>
<path d="M279.405 224.547H266.509V224.715H279.405V224.547Z" fill="#DEEDEB"/>
<path d="M64.2766 225.68H35.2529V225.848H64.2766V225.68Z" fill="#DEEDEB"/>
<path d="M74.5184 225.68H70.2646V225.848H74.5184V225.68Z" fill="#DEEDEB"/>
<path d="M151.301 228.516H88.3477V228.684H151.301V228.516Z" fill="#DEEDEB"/>
<path d="M159.27 190.001H29.5139C27.3971 190.001 25.6768 188.281 25.6768 186.164V3.7629C25.6768 1.6461 27.3971 -0.0742188 29.5139 -0.0742188H159.277C161.394 -0.0742188 163.114 1.6461 163.114 3.7629V186.164C163.107 188.281 161.387 190.001 159.27 190.001ZM29.5139 0.0937813C27.4912 0.0937813 25.8448 1.74018 25.8448 3.7629V186.164C25.8448 188.187 27.4912 189.833 29.5139 189.833H159.277C161.3 189.833 162.946 188.187 162.946 186.164V3.7629C162.946 1.74018 161.3 0.0937813 159.277 0.0937813H29.5139Z" fill="#DEEDEB"/>
<path d="M304.625 190.001H174.862C172.745 190.001 171.024 188.281 171.024 186.164V3.7629C171.024 1.6461 172.745 -0.0742188 174.862 -0.0742188H304.625C306.742 -0.0742188 308.462 1.6461 308.462 3.7629V186.164C308.462 188.281 306.742 190.001 304.625 190.001ZM174.862 0.0937813C172.839 0.0937813 171.192 1.74018 171.192 3.7629V186.164C171.192 188.187 172.839 189.833 174.862 189.833H304.625C306.647 189.833 308.294 188.187 308.294 186.164V3.7629C308.294 1.74018 306.647 0.0937813 304.625 0.0937813H174.862Z" fill="#DEEDEB"/>
<path d="M79.9274 176.957V186.499L75.8954 189.429H94.7114L88.697 187.198V177.622L79.9274 176.957Z" fill="#DEEDEB"/>
<path d="M46.6836 189.152V219.211H130.684V189.152H46.6836ZM129.172 200.926H63.4231V191.101H129.172V200.926Z" fill="#DEEDEB"/>
<path d="M61.4004 189.152V219.211H130.684V189.152H61.4004ZM129.172 200.926H63.4231V191.101H129.172V200.926Z" fill="#DEEDEB"/>
<path d="M129.171 191.102H115.617V200.926H129.171V191.102Z" fill="#DEEDEB"/>
<path d="M80.1893 196.012H63.4229V200.924H80.1893V196.012Z" fill="#DEEDEB"/>
<path d="M94.0459 198H81.4258V200.916H94.0459V198Z" fill="#DEEDEB"/>
<path d="M108.985 194.957H96.9629V200.924H108.985V194.957Z" fill="#DEEDEB"/>
<path d="M75.3374 203.062L74.9813 204.239H70.1563L69.7934 203.062H63.4229V216.106H84.5707V203.062H75.3374Z" fill="#DEEDEB"/>
<path d="M100.471 203.062L100.108 204.239H95.2828L94.9199 203.062H85.6934V216.106H106.841V203.062H100.471Z" fill="#DEEDEB"/>
<path d="M119.877 203.062L119.521 204.239H114.696L114.333 203.062H107.963V216.106H129.111V203.062H119.877Z" fill="#DEEDEB"/>
<path d="M118.399 182.654H55.9101C54.5997 182.654 53.538 181.592 53.538 180.281V144.403C53.538 143.093 54.5997 142.031 55.9101 142.031H118.399C119.71 142.031 120.772 143.093 120.772 144.403V180.281C120.772 181.592 119.71 182.654 118.399 182.654Z" fill="#DEEDEB"/>
<path d="M119.979 182.654H57.4894C56.179 182.654 55.1172 181.592 55.1172 180.281V144.403C55.1172 143.093 56.179 142.031 57.4894 142.031H119.979C121.289 142.031 122.351 143.093 122.351 144.403V180.281C122.351 181.592 121.289 182.654 119.979 182.654Z" fill="#DEEDEB"/>
<path d="M120.374 180.686V144.008H57.0917L57.0917 180.686H120.374Z" fill="#EAF3F2"/>
<path d="M208.905 138.512H269.075C275.601 138.512 280.889 143.8 280.889 150.325V197.312H197.091V150.325C197.091 143.8 202.379 138.512 208.905 138.512Z" fill="#DEEDEB"/>
<path d="M179.303 173.336H190.068C193.946 173.336 197.091 176.481 197.091 180.358V219.213H172.28V180.358C172.28 176.481 175.419 173.336 179.303 173.336Z" fill="#DEEDEB"/>
<path d="M179.303 173.336H179.531C183.409 173.336 186.554 176.481 186.554 180.358V219.213H172.28V180.358C172.28 176.481 175.419 173.336 179.303 173.336Z" fill="#DEEDEB"/>
<path d="M272.126 201.363H189.551V219.212H272.126V201.363Z" fill="#DEEDEB"/>
<path d="M189.436 185.039H269.068C273.013 185.039 276.205 188.238 276.205 192.176V196.624C276.205 200.569 273.006 203.761 269.068 203.761H189.436C185.492 203.761 182.3 200.562 182.3 196.624V192.176C182.3 188.231 185.492 185.039 189.436 185.039Z" fill="#DEEDEB"/>
<path d="M259.062 185.039H268.941C272.885 185.039 276.077 188.238 276.077 192.176V196.624C276.077 200.569 272.879 203.761 268.941 203.761H259.062C255.118 203.761 251.926 200.562 251.926 196.624V192.176C251.926 188.231 255.118 185.039 259.062 185.039Z" fill="#DEEDEB"/>
<path d="M270.003 173.336H280.768C284.646 173.336 287.791 176.481 287.791 180.358V219.213H262.98V180.358C262.98 176.481 266.125 173.336 270.003 173.336Z" fill="#DEEDEB"/>
<path d="M270.003 173.336H270.231C274.109 173.336 277.254 176.481 277.254 180.358V219.213H262.98V180.358C262.98 176.481 266.125 173.336 270.003 173.336Z" fill="#EAF3F2"/>
<path d="M205.678 116.859L285.397 116.859V34.4856L205.678 34.4856V116.859Z" fill="#DEEDEB"/>
<path d="M202.891 116.859L282.61 116.859V34.4856L202.891 34.4856V116.859Z" fill="#EAF3F2"/>
<path d="M280.6 36.4336H205V114.943H280.6V36.4336Z" fill="#DEEDEB"/>
<path d="M280.6 36.4336H206.889V114.943H280.6V36.4336Z" fill="#DEEDEB"/>
<path d="M242.984 114.949H244.482V36.4395H242.984V114.949Z" fill="#DEEDEB"/>
<path d="M234.394 36.4336L213.387 114.943H211.371L232.378 36.4336H234.394Z" fill="white"/>
<path d="M242.34 116.449H243.624V35.2246H242.34V116.449Z" fill="#EAF3F2"/>
<path d="M226.766 36.4336L206.889 110.73V69.8925L215.84 36.4336H226.766Z" fill="white"/>
<path d="M280.6 43.5586V51.0984L263.511 114.945H261.495L280.6 43.5586Z" fill="white"/>
<path d="M280.6 58.7773V99.6148L276.501 114.943H265.574L280.6 58.7773Z" fill="white"/>
<path d="M65.6297 97.9141H113.899L113.899 39.1813L65.6297 39.1813V97.9141Z" fill="#DEEDEB"/>
<path d="M76.6751 83.3667L102.036 58.4355L74.5986 53.9062L76.6751 83.3667Z" fill="#DEEDEB"/>
<path d="M101.425 77.4544L102.682 58.3359L83.5835 63.0265L82.1992 77.6559L101.425 77.4544Z" fill="#EAF3F2"/>
<path d="M81.8897 56.0049C84.8998 52.9948 84.8998 48.1145 81.8897 45.1045C78.8796 42.0944 73.9993 42.0944 70.9893 45.1045C67.9792 48.1145 67.9792 52.9948 70.9893 56.0049C73.9993 59.015 78.8796 59.015 81.8897 56.0049Z" fill="#FAFAFA"/>
<path d="M98.9316 84.2676C98.9316 82.2045 100.605 80.5312 102.668 80.5312C104.731 80.5312 106.404 82.2045 106.404 84.2676C106.404 86.3306 104.731 88.0039 102.668 88.0039C100.605 88.0039 98.9316 86.3373 98.9316 84.2676Z" fill="#DEEDEB"/>
<path d="M101.782 90.8378L90.9893 84.2656L100.061 76.793L101.782 90.8378Z" fill="#DEEDEB"/>
<path d="M89.0337 46.6484H86.9102V93.5473H89.0337V46.6484Z" fill="#DEEDEB"/>
<path d="M109.369 46.6484H106.62V91.4708H109.369V46.6484Z" fill="#DEEDEB"/>
<path d="M84.504 77.6562H70.4727V91.6876H84.504V77.6562Z" fill="#DEEDEB"/>
<path d="M168 250.32C239.96 250.32 298.294 246.914 298.294 242.712C298.294 238.511 239.96 235.105 168 235.105C96.0407 235.105 37.7061 238.511 37.7061 242.712C37.7061 246.914 96.0407 250.32 168 250.32Z" fill="#DEEDEB"/>
<path d="M276.857 225.744H131.101V124.487C131.101 122.901 132.384 121.617 133.97 121.617H273.995C275.581 121.617 276.864 122.901 276.864 124.487V225.744H276.857Z" fill="#263238"/>
<path d="M273.988 128.047H133.97V217.537H273.988V128.047Z" fill="#13836F"/>
<path opacity="0.2" d="M202.702 126.483C203.474 126.483 204.1 125.857 204.1 125.085C204.1 124.313 203.474 123.688 202.702 123.688C201.93 123.688 201.305 124.313 201.305 125.085C201.305 125.857 201.93 126.483 202.702 126.483Z" fill="white"/>
<path opacity="0.2" d="M205.599 126.136C206.178 126.136 206.647 125.666 206.647 125.087C206.647 124.508 206.178 124.039 205.599 124.039C205.02 124.039 204.551 124.508 204.551 125.087C204.551 125.666 205.02 126.136 205.599 126.136Z" fill="white"/>
<path opacity="0.2" d="M204.55 219.374C204.369 219.314 204.181 219.273 203.979 219.273C202.964 219.273 202.145 220.093 202.145 221.108C202.145 222.123 202.964 222.943 203.979 222.943C204.994 222.943 205.814 222.123 205.814 221.108C205.814 221.074 205.807 221.041 205.8 221.007C205.101 220.772 204.591 220.14 204.55 219.374Z" fill="white"/>
<path d="M287.724 224.324V225.641C287.724 225.997 287.623 226.34 287.448 226.629C287.206 227.039 286.817 227.355 286.339 227.496L276.186 230.493C274.929 230.869 273.618 231.058 272.301 231.058H135.664C134.353 231.058 133.043 230.869 131.786 230.493L121.632 227.496C121.148 227.355 120.759 227.039 120.517 226.629C120.342 226.34 120.241 225.997 120.241 225.641V224.324H287.724Z" fill="#263238"/>
<path opacity="0.2" d="M287.724 224.324V225.641C287.724 225.997 287.623 226.34 287.448 226.629C287.206 227.039 286.817 227.355 286.339 227.496L276.186 230.493C274.929 230.869 273.618 231.058 272.301 231.058H135.664C134.353 231.058 133.043 230.869 131.786 230.493L121.632 227.496C121.148 227.355 120.759 227.039 120.517 226.629C120.342 226.34 120.241 225.997 120.241 225.641V224.324H287.724Z" fill="white"/>
<path opacity="0.2" d="M287.724 224.324V225.641C287.724 225.997 287.623 226.34 287.448 226.629H120.517C120.342 226.34 120.241 225.997 120.241 225.641V224.324H287.724Z" fill="white"/>
<path opacity="0.2" d="M215.766 224.324V224.902C215.766 225.218 215.511 225.473 215.195 225.473H192.777C192.455 225.473 192.199 225.218 192.199 224.902V224.324H215.766Z" fill="black"/>
<path opacity="0.1" d="M273.988 128.047C273.988 128.047 254.627 204.904 133.97 217.537V128.047H273.988Z" fill="white"/>
<path d="M260.723 93.0115V177.186L246.705 191.204H191.292C190.102 191.204 189.135 190.236 189.135 189.04V93.0115C189.135 91.8153 190.102 90.8477 191.292 90.8477H258.559C259.749 90.8477 260.723 91.8153 260.723 93.0115Z" fill="#13836F"/>
<path opacity="0.6" d="M260.723 96.6875V177.186L246.705 191.204H191.292C190.102 191.204 189.135 190.237 189.135 189.04V96.6875H260.723Z" fill="white"/>
<path opacity="0.6" d="M258.855 93.5221C258.855 94.1 258.384 94.5637 257.813 94.5637C257.235 94.5637 256.771 94.0933 256.771 93.5221C256.771 92.9442 257.242 92.4805 257.813 92.4805C258.384 92.4805 258.855 92.9442 258.855 93.5221Z" fill="white"/>
<path opacity="0.6" d="M254.863 93.5221C254.863 94.1 254.393 94.5637 253.822 94.5637C253.251 94.5637 252.78 94.0933 252.78 93.5221C252.78 92.9442 253.251 92.4805 253.822 92.4805C254.393 92.4805 254.863 92.9442 254.863 93.5221Z" fill="white"/>
<path opacity="0.6" d="M250.878 93.5221C250.878 94.1 250.408 94.5637 249.837 94.5637C249.259 94.5637 248.795 94.0933 248.795 93.5221C248.795 92.9442 249.265 92.4805 249.837 92.4805C250.408 92.4805 250.878 92.9442 250.878 93.5221Z" fill="white"/>
<path d="M232.647 103.172H194.276C193.906 103.172 193.604 102.87 193.604 102.5C193.604 102.131 193.906 101.828 194.276 101.828H232.647C233.016 101.828 233.319 102.131 233.319 102.5C233.319 102.876 233.023 103.172 232.647 103.172Z" fill="#13836F"/>
<path d="M221.801 106.848H194.276C193.906 106.848 193.604 106.546 193.604 106.176C193.604 105.806 193.906 105.504 194.276 105.504H221.801C222.17 105.504 222.473 105.806 222.473 106.176C222.473 106.546 222.177 106.848 221.801 106.848Z" fill="#13836F"/>
<path d="M251.55 163.606H202.481C202.111 163.606 201.809 163.303 201.809 162.934C201.809 162.564 202.111 162.262 202.481 162.262H251.55C251.92 162.262 252.222 162.564 252.222 162.934C252.222 163.303 251.92 163.606 251.55 163.606Z" fill="#13836F"/>
<path d="M243.345 178.289H194.276C193.906 178.289 193.604 177.987 193.604 177.617C193.604 177.248 193.906 176.945 194.276 176.945H243.345C243.715 176.945 244.017 177.248 244.017 177.617C244.017 177.987 243.715 178.289 243.345 178.289Z" fill="#13836F"/>
<path d="M251.55 167.274H194.276C193.906 167.274 193.604 166.971 193.604 166.602C193.604 166.232 193.906 165.93 194.276 165.93H251.543C251.913 165.93 252.215 166.232 252.215 166.602C252.215 166.971 251.92 167.274 251.55 167.274Z" fill="#13836F"/>
<path d="M251.55 170.949H194.276C193.906 170.949 193.604 170.647 193.604 170.277C193.604 169.908 193.906 169.605 194.276 169.605H251.543C251.913 169.605 252.215 169.908 252.215 170.277C252.215 170.647 251.92 170.949 251.55 170.949Z" fill="#13836F"/>
<path d="M251.55 174.617H194.276C193.906 174.617 193.604 174.315 193.604 173.945C193.604 173.576 193.906 173.273 194.276 173.273H251.543C251.913 173.273 252.215 173.576 252.215 173.945C252.222 174.315 251.92 174.617 251.55 174.617Z" fill="#13836F"/>
<path opacity="0.5" d="M260.723 177.188L246.705 191.205V177.188H260.723Z" fill="#13836F"/>
<path opacity="0.4" d="M260.723 96.6875H256.765V177.186H260.723V96.6875Z" fill="black"/>
<path d="M258.747 138.747C257.941 138.747 257.289 138.095 257.289 137.289V129.064C257.289 128.257 257.941 127.605 258.747 127.605C259.554 127.605 260.206 128.257 260.206 129.064V137.289C260.206 138.095 259.554 138.747 258.747 138.747Z" fill="#13836F"/>
<path d="M251.55 143.446H202.481C202.111 143.446 201.809 143.143 201.809 142.774C201.809 142.404 202.111 142.102 202.481 142.102H251.55C251.92 142.102 252.222 142.404 252.222 142.774C252.222 143.143 251.92 143.446 251.55 143.446Z" fill="#13836F"/>
<path d="M243.345 158.129H194.276C193.906 158.129 193.604 157.827 193.604 157.457C193.604 157.088 193.906 156.785 194.276 156.785H243.345C243.715 156.785 244.017 157.088 244.017 157.457C244.017 157.827 243.715 158.129 243.345 158.129Z" fill="#13836F"/>
<path d="M251.55 147.114H194.276C193.906 147.114 193.604 146.811 193.604 146.442C193.604 146.072 193.906 145.77 194.276 145.77H251.543C251.913 145.77 252.215 146.072 252.215 146.442C252.215 146.811 251.92 147.114 251.55 147.114Z" fill="#13836F"/>
<path d="M251.55 150.789H194.276C193.906 150.789 193.604 150.487 193.604 150.117C193.604 149.748 193.906 149.445 194.276 149.445H251.543C251.913 149.445 252.215 149.748 252.215 150.117C252.215 150.487 251.92 150.789 251.55 150.789Z" fill="#13836F"/>
<path d="M251.55 154.461H194.276C193.906 154.461 193.604 154.159 193.604 153.789C193.604 153.42 193.906 153.117 194.276 153.117H251.543C251.913 153.117 252.215 153.42 252.215 153.789C252.222 154.159 251.92 154.461 251.55 154.461Z" fill="#13836F"/>
<path d="M251.543 111.223H194.101V132.659H251.543V111.223Z" fill="#13836F"/>
<path opacity="0.2" d="M194.101 129.219H195.666V125.321H197.467V117.627H199.981V122.364H203.435V128.661H207.554V124.273H210.961L213.212 122.022V116.794H214.59V124.273H218.057V126.934H221.646V113.36L222.64 112.365V116.088H224.932V117.761L227.129 119.965V123.937H230.288V120.792H238.527V118.447H240.388V114.354H241.053V120.792H242.102L244.474 118.42H246.705V116.276H247.834V118.447H249.292V127.33H250.878V122.895L251.55 122.936V111.223H194.101V129.219Z" fill="black"/>
<path d="M251.55 136.055H236.08C235.711 136.055 235.408 135.753 235.408 135.383C235.408 135.013 235.711 134.711 236.08 134.711H251.55C251.919 134.711 252.222 135.013 252.222 135.383C252.222 135.753 251.919 136.055 251.55 136.055Z" fill="#13836F"/>
<path opacity="0.2" d="M216.855 90.8477V160.413L206.277 170.99H189.135V93.0115C189.135 91.8153 190.102 90.8477 191.292 90.8477H216.855Z" fill="black"/>
<path opacity="0.4" d="M258.747 138.747C257.941 138.747 257.289 138.095 257.289 137.289V129.064C257.289 128.257 257.941 127.605 258.747 127.605C259.554 127.605 260.206 128.257 260.206 129.064V137.289C260.206 138.095 259.554 138.747 258.747 138.747Z" fill="white"/>
<path d="M175.889 103.5V187.674L161.871 201.692H106.458C105.268 201.692 104.301 200.725 104.301 199.529V103.5C104.301 102.304 105.268 101.336 106.458 101.336H173.725C174.915 101.336 175.889 102.304 175.889 103.5Z" fill="#13836F"/>
<path opacity="0.6" d="M175.889 107.184V187.682L161.871 201.7H106.458C105.268 201.7 104.301 200.733 104.301 199.537V107.184H175.889Z" fill="white"/>
<path opacity="0.6" d="M174.021 104.018C174.021 104.596 173.55 105.06 172.979 105.06C172.401 105.06 171.938 104.589 171.938 104.018C171.938 103.44 172.408 102.977 172.979 102.977C173.55 102.97 174.021 103.44 174.021 104.018Z" fill="white"/>
<path opacity="0.6" d="M170.029 104.018C170.029 104.596 169.559 105.06 168.988 105.06C168.41 105.06 167.946 104.589 167.946 104.018C167.946 103.44 168.417 102.977 168.988 102.977C169.566 102.97 170.029 103.44 170.029 104.018Z" fill="white"/>
<path opacity="0.6" d="M166.044 104.018C166.044 104.596 165.574 105.06 165.003 105.06C164.425 105.06 163.961 104.589 163.961 104.018C163.961 103.44 164.431 102.977 165.003 102.977C165.574 102.97 166.044 103.44 166.044 104.018Z" fill="white"/>
<path d="M121.363 114.032H109.442C109.072 114.032 108.77 113.729 108.77 113.36C108.77 112.99 109.072 112.688 109.442 112.688H121.363C121.732 112.688 122.035 112.99 122.035 113.36C122.035 113.729 121.732 114.032 121.363 114.032Z" fill="#13836F"/>
<path d="M126.981 117.699H109.442C109.072 117.699 108.77 117.397 108.77 117.027C108.77 116.658 109.072 116.355 109.442 116.355H126.981C127.35 116.355 127.653 116.658 127.653 117.027C127.653 117.397 127.35 117.699 126.981 117.699Z" fill="#13836F"/>
<path d="M121.558 121.367H109.442C109.072 121.367 108.77 121.065 108.77 120.695C108.77 120.326 109.072 120.023 109.442 120.023H121.558C121.927 120.023 122.23 120.326 122.23 120.695C122.23 121.072 121.927 121.367 121.558 121.367Z" fill="#13836F"/>
<path d="M166.709 181.492H117.64C117.27 181.492 116.968 181.19 116.968 180.82C116.968 180.451 117.27 180.148 117.64 180.148H166.709C167.079 180.148 167.381 180.451 167.381 180.82C167.381 181.19 167.086 181.492 166.709 181.492Z" fill="#13836F"/>
<path d="M139.829 185.16H109.442C109.072 185.16 108.77 184.858 108.77 184.488C108.77 184.119 109.072 183.816 109.442 183.816H139.829C140.199 183.816 140.501 184.119 140.501 184.488C140.501 184.858 140.206 185.16 139.829 185.16Z" fill="#13836F"/>
<path opacity="0.5" d="M175.889 187.68L161.871 201.698V187.68H175.889Z" fill="#13836F"/>
<path opacity="0.4" d="M175.889 107.184H171.931V187.682H175.889V107.184Z" fill="black"/>
<path d="M173.906 182.173C173.1 182.173 172.448 181.521 172.448 180.715V172.489C172.448 171.683 173.1 171.031 173.906 171.031C174.713 171.031 175.365 171.683 175.365 172.489V180.715C175.365 181.521 174.713 182.173 173.906 182.173Z" fill="#13836F"/>
<path d="M166.709 114.032H157.476C157.106 114.032 156.804 113.729 156.804 113.36C156.804 112.99 157.106 112.688 157.476 112.688H166.709C167.079 112.688 167.381 112.99 167.381 113.36C167.381 113.729 167.085 114.032 166.709 114.032Z" fill="#13836F"/>
<path d="M166.709 117.699H161.938C161.568 117.699 161.266 117.397 161.266 117.027C161.266 116.658 161.568 116.355 161.938 116.355H166.709C167.078 116.355 167.381 116.658 167.381 117.027C167.381 117.397 167.085 117.699 166.709 117.699Z" fill="#13836F"/>
<path d="M166.709 131.094H117.64C117.27 131.094 116.968 130.792 116.968 130.422C116.968 130.052 117.27 129.75 117.64 129.75H166.709C167.079 129.75 167.381 130.052 167.381 130.422C167.381 130.792 167.086 131.094 166.709 131.094Z" fill="#13836F"/>
<path d="M166.709 134.762H109.442C109.072 134.762 108.77 134.46 108.77 134.09C108.77 133.72 109.072 133.418 109.442 133.418H166.709C167.079 133.418 167.381 133.72 167.381 134.09C167.381 134.46 167.086 134.762 166.709 134.762Z" fill="#13836F"/>
<path d="M133.109 138.43H109.442C109.072 138.43 108.77 138.128 108.77 137.758C108.77 137.388 109.072 137.086 109.442 137.086H133.109C133.479 137.086 133.781 137.388 133.781 137.758C133.781 138.134 133.486 138.43 133.109 138.43Z" fill="#13836F"/>
<path opacity="0.7" d="M141.509 143.305H118.943V149.353H141.509V143.305Z" fill="#13836F"/>
<path opacity="0.3" d="M129.164 150.695H118.943V173.026H129.164V150.695Z" fill="#13836F"/>
<path opacity="0.3" d="M154.587 150.695H142.847V173.026H154.587V150.695Z" fill="#13836F"/>
<path opacity="0.7" d="M166.709 143.305H142.847V149.353H166.709V143.305Z" fill="#13836F"/>
<path opacity="0.3" d="M166.716 150.695H155.938V173.026H166.716V150.695Z" fill="#13836F"/>
<path opacity="0.5" d="M117.599 150.695H109.441V173.026H117.599V150.695Z" fill="#13836F"/>
<path d="M117.599 143.305H109.441V149.353H117.599V143.305Z" fill="#13836F"/>
<path opacity="0.3" d="M141.503 150.695H130.509V173.026H141.503V150.695Z" fill="#13836F"/>
<path opacity="0.4" d="M173.906 182.173C173.1 182.173 172.448 181.521 172.448 180.715V172.489C172.448 171.683 173.1 171.031 173.906 171.031C174.713 171.031 175.365 171.683 175.365 172.489V180.715C175.365 181.521 174.713 182.173 173.906 182.173Z" fill="white"/>
<path opacity="0.2" d="M175.889 103.5V173.522H135.348C134.158 173.522 133.19 172.554 133.19 171.358V101.336H173.725C174.915 101.336 175.889 102.304 175.889 103.5Z" fill="black"/>
<path d="M211.485 65.3435V149.518L197.467 163.536H142.054C140.864 163.536 139.896 162.569 139.896 161.372V65.3435C139.896 64.1474 140.864 63.1797 142.054 63.1797H209.321C210.51 63.1797 211.485 64.1474 211.485 65.3435Z" fill="#13836F"/>
<path opacity="0.6" d="M211.485 69.0195V149.518L197.467 163.536H142.054C140.864 163.536 139.896 162.569 139.896 161.372V69.0195H211.485Z" fill="white"/>
<path opacity="0.6" d="M208.568 66.8957C209.143 66.8957 209.61 66.4294 209.61 65.8541C209.61 65.2788 209.143 64.8125 208.568 64.8125C207.993 64.8125 207.526 65.2788 207.526 65.8541C207.526 66.4294 207.993 66.8957 208.568 66.8957Z" fill="white"/>
<path opacity="0.6" d="M204.577 66.8957C205.152 66.8957 205.618 66.4294 205.618 65.8541C205.618 65.2788 205.152 64.8125 204.577 64.8125C204.001 64.8125 203.535 65.2788 203.535 65.8541C203.535 66.4294 204.001 66.8957 204.577 66.8957Z" fill="white"/>
<path opacity="0.6" d="M201.633 65.8541C201.633 66.432 201.163 66.8957 200.591 66.8957C200.013 66.8957 199.55 66.4253 199.55 65.8541C199.55 65.2762 200.02 64.8125 200.591 64.8125C201.169 64.8125 201.633 65.2762 201.633 65.8541Z" fill="white"/>
<path d="M180.512 75.8674H166.823C166.454 75.8674 166.151 75.565 166.151 75.1954C166.151 74.8258 166.454 74.5234 166.823 74.5234H180.512C180.882 74.5234 181.184 74.8258 181.184 75.1954C181.184 75.565 180.882 75.8674 180.512 75.8674Z" fill="#13836F"/>
<path d="M186.136 79.5354H161.205C160.836 79.5354 160.533 79.233 160.533 78.8634C160.533 78.4938 160.836 78.1914 161.205 78.1914H186.136C186.506 78.1914 186.808 78.4938 186.808 78.8634C186.808 79.2397 186.506 79.5354 186.136 79.5354Z" fill="#13836F"/>
<path d="M180.713 83.2112H166.628C166.258 83.2112 165.956 82.9088 165.956 82.5392C165.956 82.1696 166.258 81.8672 166.628 81.8672H180.713C181.083 81.8672 181.385 82.1696 181.385 82.5392C181.385 82.9088 181.083 83.2112 180.713 83.2112Z" fill="#13836F"/>
<path d="M202.305 92.9299H153.236C152.866 92.9299 152.564 92.6275 152.564 92.2579C152.564 91.8883 152.866 91.5859 153.236 91.5859H202.305C202.675 91.5859 202.977 91.8883 202.977 92.2579C202.977 92.6275 202.675 92.9299 202.305 92.9299Z" fill="#13836F"/>
<path d="M194.1 107.614H145.03C144.661 107.614 144.358 107.311 144.358 106.942C144.358 106.572 144.661 106.27 145.03 106.27H194.1C194.469 106.27 194.772 106.572 194.772 106.942C194.772 107.311 194.476 107.614 194.1 107.614Z" fill="#13836F"/>
<path d="M202.305 96.5979H145.037C144.668 96.5979 144.365 96.2955 144.365 95.9259C144.365 95.5563 144.668 95.2539 145.037 95.2539H202.305C202.675 95.2539 202.977 95.5563 202.977 95.9259C202.977 96.2955 202.675 96.5979 202.305 96.5979Z" fill="#13836F"/>
<path d="M202.305 100.274H145.037C144.668 100.274 144.365 99.9713 144.365 99.6017C144.365 99.2321 144.668 98.9297 145.037 98.9297H202.305C202.675 98.9297 202.977 99.2321 202.977 99.6017C202.977 99.9713 202.675 100.274 202.305 100.274Z" fill="#13836F"/>
<path d="M202.305 103.946H145.037C144.668 103.946 144.365 103.643 144.365 103.274C144.365 102.904 144.668 102.602 145.037 102.602H202.305C202.675 102.602 202.977 102.904 202.977 103.274C202.977 103.643 202.675 103.946 202.305 103.946Z" fill="#13836F"/>
<path d="M202.305 129.891H153.236C152.866 129.891 152.564 129.588 152.564 129.219C152.564 128.849 152.866 128.547 153.236 128.547H202.305C202.675 128.547 202.977 128.849 202.977 129.219C202.977 129.588 202.675 129.891 202.305 129.891Z" fill="#13836F"/>
<path d="M194.1 144.574H145.03C144.661 144.574 144.358 144.272 144.358 143.902C144.358 143.533 144.661 143.23 145.03 143.23H194.1C194.469 143.23 194.772 143.533 194.772 143.902C194.772 144.272 194.476 144.574 194.1 144.574Z" fill="#13836F"/>
<path d="M202.305 133.559H145.037C144.668 133.559 144.365 133.256 144.365 132.887C144.365 132.517 144.668 132.215 145.037 132.215H202.305C202.675 132.215 202.977 132.517 202.977 132.887C202.977 133.256 202.675 133.559 202.305 133.559Z" fill="#13836F"/>
<path d="M202.305 137.235H145.037C144.668 137.235 144.365 136.932 144.365 136.563C144.365 136.193 144.668 135.891 145.037 135.891H202.305C202.675 135.891 202.977 136.193 202.977 136.563C202.977 136.932 202.675 137.235 202.305 137.235Z" fill="#13836F"/>
<path d="M202.305 140.907H145.037C144.668 140.907 144.365 140.604 144.365 140.235C144.365 139.865 144.668 139.562 145.037 139.562H202.305C202.675 139.562 202.977 139.865 202.977 140.235C202.977 140.604 202.675 140.907 202.305 140.907Z" fill="#13836F"/>
<path d="M202.305 74.3867H195.431V83.5394H202.305V74.3867Z" fill="#13836F"/>
<path d="M148.847 82.0111C150.952 82.0111 152.658 80.3052 152.658 78.2009C152.658 76.0965 150.952 74.3906 148.847 74.3906C146.743 74.3906 145.037 76.0965 145.037 78.2009C145.037 80.3052 146.743 82.0111 148.847 82.0111Z" fill="#13836F"/>
<path d="M144.815 112.416C144.815 112.859 145.178 113.215 145.622 113.215C146.065 113.215 146.428 112.853 146.428 112.416C146.428 111.972 146.065 111.609 145.622 111.609C145.178 111.609 144.815 111.972 144.815 112.416Z" fill="#13836F"/>
<path d="M144.815 116.084C144.815 116.527 145.178 116.89 145.622 116.89C146.065 116.89 146.428 116.527 146.428 116.084C146.428 115.64 146.065 115.277 145.622 115.277C145.178 115.277 144.815 115.64 144.815 116.084Z" fill="#13836F"/>
<path d="M144.815 119.761C144.815 120.204 145.178 120.567 145.622 120.567C146.065 120.567 146.428 120.204 146.428 119.761C146.428 119.317 146.065 118.961 145.622 118.961C145.178 118.961 144.815 119.317 144.815 119.761Z" fill="#13836F"/>
<path d="M144.815 123.431C144.815 123.875 145.178 124.238 145.622 124.238C146.065 124.238 146.428 123.875 146.428 123.431C146.428 122.988 146.065 122.625 145.622 122.625C145.178 122.625 144.815 122.988 144.815 123.431Z" fill="#13836F"/>
<path d="M157.14 113.086H148.391C148.021 113.086 147.719 112.784 147.719 112.414C147.719 112.045 148.021 111.742 148.391 111.742H157.14C157.51 111.742 157.812 112.045 157.812 112.414C157.812 112.784 157.516 113.086 157.14 113.086Z" fill="#13836F"/>
<path d="M165.345 116.758H148.398C148.028 116.758 147.726 116.456 147.726 116.086C147.726 115.716 148.028 115.414 148.398 115.414H165.345C165.715 115.414 166.017 115.716 166.017 116.086C166.017 116.456 165.715 116.758 165.345 116.758Z" fill="#13836F"/>
<path d="M155.265 120.434H148.398C148.028 120.434 147.726 120.131 147.726 119.762C147.726 119.392 148.028 119.09 148.398 119.09H155.265C155.635 119.09 155.937 119.392 155.937 119.762C155.937 120.131 155.635 120.434 155.265 120.434Z" fill="#13836F"/>
<path d="M162.657 124.102H148.398C148.028 124.102 147.726 123.799 147.726 123.43C147.726 123.06 148.028 122.758 148.398 122.758H162.657C163.027 122.758 163.329 123.06 163.329 123.43C163.329 123.799 163.027 124.102 162.657 124.102Z" fill="#13836F"/>
<path opacity="0.5" d="M211.485 149.52L197.467 163.537V149.52H211.485Z" fill="#13836F"/>
<path opacity="0.2" d="M202.305 74.3867L195.431 83.5394H202.305V74.3867Z" fill="black"/>
<path opacity="0.2" d="M151.072 75.9766H146.616V80.4319H151.072V75.9766Z" fill="black"/>
<path opacity="0.4" d="M211.478 69.0195H207.52V149.518H211.478V69.0195Z" fill="black"/>
<path d="M209.502 84.2003C208.696 84.2003 208.044 83.5485 208.044 82.7421V74.5168C208.044 73.7104 208.696 73.0586 209.502 73.0586C210.309 73.0586 210.96 73.7104 210.96 74.5168V82.7421C210.96 83.5485 210.309 84.2003 209.502 84.2003Z" fill="#13836F"/>
<path opacity="0.4" d="M209.502 84.2003C208.696 84.2003 208.044 83.5485 208.044 82.7421V74.5168C208.044 73.7104 208.696 73.0586 209.502 73.0586C210.309 73.0586 210.96 73.7104 210.96 74.5168V82.7421C210.96 83.5485 210.309 84.2003 209.502 84.2003Z" fill="white"/>
<path d="M56.3339 103.402H79.8002C81.6818 103.402 83.2005 104.928 83.2005 106.803V129.61C83.2005 131.492 81.675 133.017 79.8002 133.017H70.2779L71.2994 139.892L66.5886 133.017H56.3339C54.4523 133.017 52.9336 131.492 52.9336 129.61V106.809C52.9336 104.928 54.4523 103.402 56.3339 103.402Z" fill="#13836F"/>
<path opacity="0.6" d="M56.3339 103.402H79.8002C81.6818 103.402 83.2005 104.928 83.2005 106.803V129.61C83.2005 131.492 81.675 133.017 79.8002 133.017H70.2779L71.2994 139.892L66.5886 133.017H56.3339C54.4523 133.017 52.9336 131.492 52.9336 129.61V106.809C52.9336 104.928 54.4523 103.402 56.3339 103.402Z" fill="white"/>
<path d="M66.1318 113.469V115.29L67.0659 115.377C67.1936 115.989 67.4355 116.553 67.7648 117.057L67.16 117.783L68.4435 119.067L69.1693 118.462C69.6733 118.791 70.2378 119.033 70.8493 119.161L70.9366 120.095H72.7578L72.8451 119.161C73.4566 119.033 74.0211 118.791 74.5251 118.462L75.2509 119.067L76.5344 117.783L75.9296 117.057C76.2589 116.553 76.5008 115.989 76.6285 115.377L77.5626 115.29V113.469L76.6285 113.382C76.5008 112.77 76.2589 112.206 75.9296 111.702L76.5344 110.976L75.2509 109.692L74.5251 110.297C74.0211 109.968 73.4566 109.726 72.8451 109.598L72.7578 108.664H70.9366L70.8493 109.598C70.2378 109.726 69.6733 109.968 69.1693 110.297L68.4435 109.692L67.16 110.976L67.7648 111.702C67.4355 112.206 67.1936 112.77 67.0659 113.382L66.1318 113.469ZM71.8573 111.917C73.2147 111.917 74.3235 113.019 74.3235 114.376C74.3235 115.734 73.2214 116.836 71.8573 116.836C70.4998 116.836 69.3978 115.734 69.3978 114.376C69.3978 113.019 70.4998 111.917 71.8573 111.917Z" fill="#DEEDEB"/>
<path d="M67.3077 126.74C67.7848 126.639 68.2283 126.451 68.6248 126.196L69.196 126.666L70.204 125.658L69.7336 125.087C69.9957 124.69 70.1838 124.247 70.2779 123.77L71.0104 123.702V122.278L70.2779 122.211C70.1771 121.733 69.9889 121.29 69.7336 120.893L70.204 120.322L69.196 119.314L68.6248 119.785C68.2283 119.523 67.7848 119.334 67.3077 119.24L67.2405 118.508H65.8158L65.7486 119.24C65.2715 119.341 64.828 119.529 64.4315 119.785L63.8603 119.314L62.8523 120.322L63.3227 120.893C63.0606 121.29 62.8725 121.733 62.7784 122.211L62.0459 122.278V123.702L62.7784 123.77C62.8792 124.247 63.0673 124.69 63.3227 125.087L62.8523 125.658L63.8603 126.666L64.4315 126.196C64.828 126.458 65.2715 126.646 65.7486 126.74L65.8158 127.472H67.2405L67.3077 126.74ZM64.5928 122.99C64.5928 121.922 65.4597 121.061 66.5214 121.061C67.5899 121.061 68.4501 121.928 68.4501 122.99C68.4501 124.059 67.5832 124.919 66.5214 124.919C65.4597 124.919 64.5928 124.052 64.5928 122.99Z" fill="#DEEDEB"/>
<path d="M63.5986 118.702L63.9951 119.179L64.9829 118.507L64.6805 117.963C64.956 117.681 65.1845 117.338 65.3391 116.962L65.9573 117.022L66.1791 115.846L65.581 115.672C65.5743 115.262 65.4869 114.865 65.3324 114.502L65.8095 114.106L65.1375 113.118L64.5932 113.42C64.3109 113.145 63.9682 112.923 63.5919 112.762L63.6524 112.144L62.4764 111.922L62.3084 112.52C61.8984 112.527 61.502 112.614 61.1391 112.769L60.7426 112.291L59.7548 112.963L60.0572 113.508C59.7816 113.79 59.5532 114.133 59.3986 114.509L58.7804 114.449L58.5586 115.625L59.1567 115.799C59.1634 116.209 59.2508 116.606 59.4053 116.969L58.9282 117.365L59.6002 118.353L60.1445 118.051C60.4268 118.326 60.7695 118.555 61.1458 118.709L61.0853 119.327L62.2613 119.549L62.436 118.951C62.8325 118.938 63.229 118.85 63.5986 118.702ZM60.7695 115.43C60.9375 114.549 61.7842 113.971 62.6645 114.139C63.5448 114.307 64.1228 115.154 63.9548 116.035C63.7868 116.915 62.94 117.493 62.0597 117.325C61.1861 117.157 60.6082 116.303 60.7695 115.43Z" fill="#DEEDEB"/>
<path d="M94.9935 186.855C94.9935 186.855 96.6466 201.74 97.1842 203.514C97.7218 205.288 105.295 214.764 105.295 214.764L103.145 215.886C103.145 215.886 95.054 207.593 93.7973 205.134C92.5407 202.674 90.5986 189.839 90.5986 189.839L94.9935 186.855Z" fill="#EBB376"/>
<path d="M93.4819 180.23C96.2707 181.709 97.1846 202.353 97.1846 202.353L98.5891 204.53L94.3017 207.581C94.3017 207.581 92.4739 204.57 91.6271 202.265C90.7737 199.96 88.751 188.617 88.751 188.617L93.4819 180.23Z" fill="#263238"/>
<path opacity="0.1" d="M93.4819 180.23C96.2707 181.709 97.1846 202.353 97.1846 202.353L98.5891 204.53L94.3017 207.581C94.3017 207.581 92.4739 204.57 91.6271 202.265C90.7737 199.96 88.751 188.617 88.751 188.617L93.4819 180.23Z" fill="white"/>
<path d="M93.6768 207.588L98.5958 203.684L99.6508 205.901L95.1148 209.133L93.6768 207.588Z" fill="#E7AC55"/>
<path opacity="0.4" d="M93.6768 207.588L98.5958 203.684L99.6508 205.901L95.1148 209.133L93.6768 207.588Z" fill="white"/>
<path d="M82.4877 206.854L87.5076 214.804C97.4733 212.485 129.414 207.613 133.331 218.567C138.203 232.189 102.977 243.041 83.4823 243.707C63.9876 244.372 48.3434 233.27 60.6679 204.852L82.4877 206.854Z" fill="#E7AC55"/>
<path opacity="0.2" d="M82.4877 206.854L87.5076 214.804C97.4733 212.485 129.414 207.613 133.331 218.567C138.203 232.189 102.977 243.041 83.4823 243.707C63.9876 244.372 48.3434 233.27 60.6679 204.852L82.4877 206.854Z" fill="black"/>
<path d="M127.693 237.829C127.646 237.856 127.592 237.856 127.552 237.822C127.511 237.796 127.498 237.742 127.518 237.702C127.579 237.486 128.23 235.612 128.882 235.41C129.023 235.376 129.171 235.417 129.272 235.524C129.46 235.679 129.548 235.914 129.5 236.156C129.393 236.505 129.178 236.814 128.889 237.036C128.519 237.339 128.116 237.601 127.693 237.829ZM127.861 237.466C128.466 237.198 128.963 236.727 129.252 236.129C129.285 235.968 129.218 235.8 129.084 235.699C129.05 235.652 128.983 235.638 128.929 235.652C128.876 235.672 128.822 235.699 128.781 235.739C128.371 236.257 128.062 236.841 127.861 237.466Z" fill="#E7AC55"/>
<path d="M127.659 237.849C127.612 237.862 127.565 237.849 127.538 237.815C127.478 237.762 126.578 236.626 126.725 235.86C126.759 235.665 126.873 235.497 127.034 235.389C127.176 235.255 127.391 235.235 127.552 235.342C128.022 235.672 127.969 237.197 127.733 237.768L127.72 237.829C127.7 237.842 127.68 237.849 127.659 237.849ZM127.149 235.625C127.068 235.699 127.014 235.793 126.994 235.9C126.9 236.384 127.35 237.11 127.599 237.459C127.747 236.807 127.7 235.746 127.424 235.551C127.397 235.537 127.337 235.49 127.196 235.591L127.149 235.625Z" fill="#E7AC55"/>
<path d="M93.4211 241.021C93.4479 240.974 93.5017 240.947 93.5487 240.96C93.5958 240.967 93.6294 241.001 93.6361 241.048C93.6831 241.27 94.0259 243.218 93.5487 243.709C93.4412 243.81 93.2934 243.843 93.1523 243.796C92.9171 243.749 92.7222 243.588 92.6483 243.36C92.5676 243.003 92.6079 242.627 92.7558 242.291C92.9372 241.848 93.159 241.424 93.4211 241.021ZM93.4479 241.417C93.0447 241.948 92.8431 242.6 92.8835 243.259C92.9305 243.42 93.0716 243.534 93.2329 243.554C93.2867 243.575 93.3471 243.561 93.3875 243.521C93.4278 243.48 93.4547 243.427 93.4748 243.373C93.5823 242.728 93.5756 242.063 93.4479 241.417Z" fill="#E7AC55"/>
<path d="M106.183 231.156L98.1592 234.012L94.3086 235.383L95.2964 239.603L99.026 238.804L108.138 236.862L106.183 231.156Z" fill="#EBB376"/>
<path d="M96.3441 239.798L95.6721 234.825C95.6318 234.549 95.3764 234.355 95.1009 234.402L92.6481 234.811C92.6481 234.811 89.3083 235.127 88.643 235.981C86.7009 238.481 87.9172 249.522 89.2075 249.911C89.6779 250.052 90.1819 249.407 90.3835 248.957C91.0353 247.532 92.1912 243.816 92.7489 242.634C93.4008 241.256 95.195 240.577 96.0014 240.335C96.2366 240.268 96.3777 240.04 96.3441 239.798Z" fill="#263238"/>
<path d="M93.4347 240.982C93.4683 240.948 93.5154 240.935 93.5557 240.955C93.6363 240.968 94.9736 241.533 95.2155 242.272C95.276 242.46 95.2626 242.662 95.1685 242.836C95.1147 243.025 94.9333 243.145 94.7384 243.132C94.1672 243.072 93.4818 241.714 93.4011 241.096L93.3877 241.035C93.4011 241.015 93.4213 240.995 93.4347 240.982ZM94.9669 242.689C95.0005 242.588 95.0072 242.474 94.9736 242.373C94.8191 241.902 94.0731 241.486 93.6901 241.298C93.8715 241.936 94.4293 242.85 94.7653 242.883C94.7989 242.883 94.8728 242.897 94.9467 242.742L94.9669 242.689Z" fill="#E7AC55"/>
<path opacity="0.2" d="M106.183 231.156L98.1592 234.012L99.0261 238.804L108.138 236.862L106.183 231.156Z" fill="black"/>
<path d="M100.45 239.529L102.755 239.69L101.21 231.754L98.5957 233.205L100.45 239.529Z" fill="#E7AC55"/>
<path opacity="0.6" d="M100.45 239.529L102.755 239.69L101.21 231.754L98.5957 233.205L100.45 239.529Z" fill="white"/>
<path opacity="0.2" d="M66.9844 208.684L78.9997 222.003C78.9997 222.003 92.2852 221.707 108.413 229.59C108.413 229.59 125.724 222.439 127.31 216.499C129.393 208.717 87.514 214.799 87.514 214.799L66.9844 208.684Z" fill="black"/>
<path d="M123.339 218.09V220.066C123.339 220.57 122.741 220.778 122.243 220.778H82.7903C82.2863 220.778 81.6748 220.57 81.6748 220.066V218.09H123.339Z" fill="#263238"/>
<path opacity="0.4" d="M123.339 218.09V220.066C123.339 220.57 122.741 220.778 122.243 220.778H82.7903C82.2863 220.778 81.6748 220.57 81.6748 220.066V218.09H123.339Z" fill="white"/>
<path opacity="0.2" d="M123.339 218.09V220.066C123.339 220.57 122.741 220.778 122.244 220.778H96.224C95.72 220.778 95.1152 220.57 95.1152 220.066V218.09H123.339Z" fill="black"/>
<path d="M129.938 197.594L125.24 218.896C125.086 219.595 124.407 220.106 123.715 220.106H98.058C97.3725 220.106 96.9357 219.468 97.097 218.769L101.788 197.628C101.949 196.929 102.621 196.586 103.313 196.586H128.97C129.662 196.586 130.092 196.902 129.938 197.594Z" fill="#263238"/>
<path opacity="0.4" d="M129.938 197.594L125.241 218.896C125.086 219.595 124.407 220.106 123.715 220.106H98.9317C98.2396 220.106 97.8095 219.468 97.9641 218.769L102.661 197.628C102.816 196.929 103.495 196.586 104.187 196.586H128.97C129.662 196.586 130.092 196.902 129.938 197.594Z" fill="white"/>
<path opacity="0.2" d="M117.29 208.418C117.29 210.246 115.335 211.731 113.904 211.731C112.472 211.731 111.619 210.252 112.029 208.425C112.439 206.637 113.863 205.179 115.268 205.125C114.858 206.946 115.731 208.425 117.163 208.425C117.19 208.425 117.29 208.425 117.29 208.418Z" fill="black"/>
<path d="M111.753 240.28L120.153 241.665L124.185 242.33L125.361 238.164L121.712 237.048L112.801 234.34L111.753 240.28Z" fill="#EBB376"/>
<path d="M124.541 237.481L122.727 242.158C122.626 242.42 122.761 242.709 123.023 242.803L125.368 243.637C125.368 243.637 128.439 244.981 129.44 244.551C132.35 243.301 136.631 233.053 135.69 232.085C135.347 231.729 134.594 232.058 134.198 232.347C132.935 233.274 130.132 235.976 129.071 236.735C127.827 237.622 125.932 237.347 125.112 237.172C124.864 237.125 124.629 237.253 124.541 237.481Z" fill="#263238"/>
<path opacity="0.2" d="M111.753 240.28L120.153 241.665L121.712 237.048L112.801 234.34L111.753 240.28Z" fill="black"/>
<path d="M120.268 236.181C120.268 236.181 86.016 216.921 74.1956 217.473C62.3751 218.024 60.6682 228.44 65.5469 234.965C70.4256 241.49 79.4304 243.076 79.4304 243.076C79.4304 243.076 73.3018 234.414 74.1888 231.974C75.0759 229.535 78.5434 232.935 78.5434 232.935C78.5434 232.935 100.094 239.897 118.944 241.49L120.268 236.181Z" fill="#E7AC55"/>
<path d="M120.818 235.651L118.883 234.348L116.39 242.002H119.38L120.818 235.651Z" fill="#E7AC55"/>
<path opacity="0.6" d="M120.818 235.651L118.883 234.348L116.39 242.002H119.38L120.818 235.651Z" fill="white"/>
<path d="M60.6748 204.854L82.4946 206.856C82.4946 206.856 85.9151 199.774 88.5359 197.012C91.15 194.243 93.4818 180.232 93.4818 180.232C91.6406 179.338 89.806 178.606 88.0118 178.001C81.0566 175.642 74.7465 175.212 71.3193 175.192H71.1983C69.5721 175.185 68.6313 175.272 68.6313 175.272C68.0937 175.568 67.5762 176.186 67.079 177.04C64.7404 181.072 62.879 190.48 61.7769 197.233C61.0646 201.595 60.6748 204.854 60.6748 204.854Z" fill="#263238"/>
<path opacity="0.2" d="M61.7773 197.233C66.5889 195.029 73.1543 191.299 72.8116 187.516C72.442 183.363 69.0753 179.183 67.0794 177.039C64.7409 181.071 62.8794 190.479 61.7773 197.233Z" fill="black"/>
<path d="M72.3878 175.212C72.3878 175.212 74.8742 183.391 81.6749 184.278C88.4755 185.165 89.6044 178.572 89.6044 178.572C89.6044 178.572 80.8483 173.768 72.3878 175.212Z" fill="#263238"/>
<path opacity="0.1" d="M72.3878 175.212C72.3878 175.212 74.8742 183.391 81.6749 184.278C88.4755 185.165 89.6044 178.572 89.6044 178.572C89.6044 178.572 80.8483 173.768 72.3878 175.212Z" fill="white"/>
<path d="M73.8125 175.442C73.8125 175.442 77.0247 183.015 82.7971 183.015C88.5696 183.015 88.7578 178.761 88.7578 178.761C88.7578 178.761 82.9786 174.978 73.8125 175.442Z" fill="#E7AC55"/>
<path opacity="0.4" d="M73.8125 175.442C73.8125 175.442 77.0247 183.015 82.7971 183.015C88.5696 183.015 88.7578 178.761 88.7578 178.761C88.7578 178.761 82.9786 174.978 73.8125 175.442Z" fill="white"/>
<path d="M84.2753 176.622C84.3156 177.986 85.0817 178.302 85.0817 178.302C85.364 180.809 83.1867 181.595 82.098 181.481C77.8174 181.044 76.46 175.89 76.46 175.89C79.578 174.653 80.2769 171.219 80.4046 169.176C80.4651 168.222 80.4046 167.57 80.4046 167.57L86.2241 171.239C85.6462 172.214 85.2296 173.054 84.9204 173.786C84.4232 175.036 84.2619 175.95 84.2753 176.622Z" fill="#EBB376"/>
<path opacity="0.2" d="M85.8743 170.785C85.3972 171.813 85.0746 172.694 84.8394 173.453C84.4631 174.743 84.3892 175.677 84.4765 176.336C81.2039 176.591 79.9069 169.367 79.9069 169.367L79.88 169.327C79.8464 168.373 79.7188 167.734 79.7188 167.734L85.8743 170.785Z" fill="black"/>
<path d="M89.5975 154.642C89.5975 154.642 93.8647 149.722 88.7575 145.603C83.6436 141.484 73.5434 143.345 71.682 152.646C69.8205 161.953 72.3876 165.884 72.3876 165.884C72.3876 165.884 72.3876 159.957 74.0944 158.23C74.0944 158.23 73.5837 161.066 74.0944 162.773C74.6052 164.48 74.0944 163.391 74.0944 163.391C74.0944 163.391 75.6669 155.972 83.2471 158.096C90.8205 160.219 89.5975 154.642 89.5975 154.642Z" fill="#263238"/>
<path d="M90.619 156.243C96.2504 157.956 97.1441 161.525 95.7867 167.452C94.0932 174.857 90.9147 179.521 84.3492 175.825C75.4318 170.805 81.2715 153.393 90.619 156.243Z" fill="#EBB376"/>
<path d="M92.2448 166.023C92.2448 166.023 92.5741 167.73 93.1722 168.859C93.1722 168.859 92.4599 169.478 91.4922 169.041L92.2448 166.023Z" fill="#D58745"/>
<path d="M88.9385 164.52C88.8109 164.984 88.448 165.293 88.1389 165.205C87.8297 165.118 87.6819 164.668 87.8096 164.204C87.9373 163.74 88.3001 163.431 88.6093 163.519C88.9184 163.606 89.0662 164.05 88.9385 164.52Z" fill="#263238"/>
<path d="M88.4746 163.505L89.5969 163.391C89.5969 163.391 88.8577 164.103 88.4746 163.505Z" fill="#263238"/>
<path d="M94.752 166.04C94.6243 166.503 94.2615 166.812 93.9523 166.725C93.6432 166.638 93.4954 166.187 93.6231 165.724C93.7507 165.26 94.1136 164.951 94.4227 165.038C94.7386 165.126 94.8864 165.576 94.752 166.04Z" fill="#263238"/>
<path d="M94.2949 165.024L95.4172 164.91C95.4172 164.91 94.6712 165.622 94.2949 165.024Z" fill="#263238"/>
<path d="M87.366 160.963C87.2853 160.963 87.2114 160.922 87.1644 160.855C87.0905 160.741 87.1173 160.593 87.2316 160.519C88.5084 159.659 90.101 160.365 90.1682 160.392C90.2892 160.445 90.343 160.593 90.2892 160.714C90.2354 160.835 90.0876 160.889 89.9666 160.835C89.9532 160.828 88.5554 160.217 87.5004 160.922C87.4601 160.949 87.413 160.963 87.366 160.963Z" fill="#263238"/>
<path d="M96.331 163.014C96.2638 163.014 96.1898 162.987 96.1428 162.927C95.249 161.831 94.2814 161.858 94.241 161.865C94.1134 161.865 93.9924 161.771 93.9857 161.636C93.9789 161.502 94.0797 161.388 94.2141 161.381C94.2612 161.374 95.4574 161.32 96.5191 162.617C96.6065 162.725 96.5863 162.873 96.4855 162.96C96.4452 162.994 96.3847 163.014 96.331 163.014Z" fill="#263238"/>
<path d="M81.5741 163.855C81.5741 163.855 85.6196 160.031 86.305 156.342C86.305 156.342 98.8513 155.186 95.9482 166.677C95.9482 166.677 100.101 156.953 90.4983 153.781C80.9021 150.61 76.6148 164.775 80.3242 170.521C80.3242 170.514 79.0676 166.247 81.5741 163.855Z" fill="#263238"/>
<path d="M90.1957 171.583C90.1889 171.583 90.1889 171.583 90.1957 171.583C87.4405 171.516 87.0843 168.962 87.0843 168.942C87.0708 168.808 87.1649 168.687 87.2926 168.673C87.427 168.66 87.548 168.754 87.5681 168.881C87.5816 168.969 87.8772 171.045 90.2024 171.099C90.3368 171.099 90.4443 171.213 90.4376 171.348C90.4309 171.482 90.3233 171.583 90.1957 171.583Z" fill="#263238"/>
<path d="M80.599 162.725C80.5788 162.799 80.6191 162.872 80.6863 162.906C80.6998 162.913 80.7132 162.92 80.7266 162.92L86.4521 164.25C86.2706 165.298 86.8082 166.38 87.8969 166.911C89.2745 167.583 91.0015 167.113 91.7407 165.87C91.8146 165.749 91.8617 165.621 91.9154 165.493C92.2178 165.298 92.4732 165.224 92.6546 165.285C92.8764 165.366 92.9436 165.608 92.9503 165.621C92.7756 166.663 93.3199 167.738 94.4018 168.262C95.7794 168.934 97.5065 168.464 98.2457 167.22C98.9849 165.977 98.4674 164.418 97.0898 163.746C95.7122 163.074 93.9852 163.544 93.246 164.788C93.1721 164.909 93.1183 165.036 93.0713 165.164C92.9974 165.09 92.91 165.016 92.7823 164.976C92.5673 164.902 92.3119 164.929 92.0364 165.05C92.2178 164.001 91.6802 162.92 90.5916 162.389C89.214 161.717 87.487 162.187 86.7478 163.43C86.6537 163.592 86.5798 163.76 86.526 163.928L80.8207 162.597C80.7266 162.59 80.6258 162.637 80.599 162.725ZM93.5686 164.949C94.2137 163.86 95.7257 163.45 96.9286 164.035C98.1314 164.62 98.5884 165.984 97.9366 167.072C97.2914 168.161 95.7794 168.571 94.5766 167.986C93.3737 167.395 92.9167 166.038 93.5686 164.949ZM87.0636 163.598C87.7087 162.51 89.2207 162.1 90.4236 162.684C91.6265 163.269 92.0834 164.633 91.4316 165.722C90.7865 166.81 89.2745 167.22 88.0716 166.636C86.8687 166.051 86.4185 164.687 87.0636 163.598Z" fill="#263238"/>
<g opacity="0.3">
<path opacity="0.3" d="M80.599 162.725C80.5788 162.799 80.6191 162.872 80.6863 162.906C80.6998 162.913 80.7132 162.92 80.7266 162.92L86.4521 164.25C86.2706 165.298 86.8082 166.38 87.8969 166.911C89.2745 167.583 91.0015 167.113 91.7407 165.87C91.8146 165.749 91.8617 165.621 91.9154 165.493C92.2178 165.298 92.4732 165.224 92.6546 165.285C92.8764 165.366 92.9436 165.608 92.9503 165.621C92.7756 166.663 93.3199 167.738 94.4018 168.262C95.7794 168.934 97.5065 168.464 98.2457 167.22C98.9849 165.977 98.4674 164.418 97.0898 163.746C95.7122 163.074 93.9852 163.544 93.246 164.788C93.1721 164.909 93.1183 165.036 93.0713 165.164C92.9974 165.09 92.91 165.016 92.7823 164.976C92.5673 164.902 92.3119 164.929 92.0364 165.05C92.2178 164.001 91.6802 162.92 90.5916 162.389C89.214 161.717 87.487 162.187 86.7478 163.43C86.6537 163.592 86.5798 163.76 86.526 163.928L80.8207 162.597C80.7266 162.59 80.6258 162.637 80.599 162.725ZM93.5686 164.949C94.2137 163.86 95.7257 163.45 96.9286 164.035C98.1314 164.62 98.5884 165.984 97.9366 167.072C97.2914 168.161 95.7794 168.571 94.5766 167.986C93.3737 167.395 92.9167 166.038 93.5686 164.949ZM87.0636 163.598C87.7087 162.51 89.2207 162.1 90.4236 162.684C91.6265 163.269 92.0834 164.633 91.4316 165.722C90.7865 166.81 89.2745 167.22 88.0716 166.636C86.8687 166.051 86.4185 164.687 87.0636 163.598Z" fill="white"/>
</g>
<path d="M82.1312 165.319C82.3731 164.399 81.9027 162.584 80.1622 162.255C78.3613 161.912 76.4394 165.239 80.5117 167.423C81.0963 167.739 81.6339 167.235 82.1312 165.319Z" fill="#EBB376"/>
<path d="M71.1984 182.625C71.1984 182.625 71.9107 196.986 73.1203 200.205C74.3299 203.423 87.024 215.318 87.024 215.318C87.024 215.318 90.5654 214.525 91.1568 214.76C91.7414 214.989 95.1216 218.093 95.1216 218.093H85.3574L84.504 216.581C84.504 216.581 71.3664 206.851 69.9283 204.532C68.8598 202.819 65.4326 185.367 65.4326 185.367L71.1984 182.625Z" fill="#EBB376"/>
<path d="M68.631 175.272C70.909 174.083 72.0178 177.9 73.382 185.608C74.7394 193.316 74.5177 200.358 74.5177 200.358L76.4665 203.819L71.5542 208.348C71.5542 208.348 67.8918 205.002 66.373 200.358C64.8476 195.721 60.661 179.432 68.631 175.272Z" fill="#263238"/>
<path opacity="0.1" d="M68.631 175.272C70.909 174.083 72.0178 177.9 73.382 185.608C74.7394 193.316 74.5177 200.358 74.5177 200.358L76.4665 203.819L71.5542 208.348C71.5542 208.348 67.8918 205.002 66.373 200.358C64.8476 195.721 60.661 179.432 68.631 175.272Z" fill="white"/>
<path d="M70.2637 208.349L76.4662 202.805L77.9312 204.854L72.3872 210.298L70.2637 208.349Z" fill="#E7AC55"/>
<path opacity="0.4" d="M70.2637 208.349L76.4662 202.805L77.9312 204.854L72.3872 210.298L70.2637 208.349Z" fill="white"/>
</g>
<defs>
<clipPath id="clip0_1_43531">
<rect width="336" height="299" fill="white"/>
</clipPath>
</defs>
</svg>
