<svg width="58" height="56" viewBox="0 0 58 56" fill="none" xmlns="http://www.w3.org/2000/svg">
<path opacity="0.1" d="M56.9805 55.0287C56.3008 55.6768 55.4889 56.0009 54.5449 56.0009C53.6009 56.0009 52.7891 55.6768 52.1094 55.0287L26.6777 30.7785L20.7305 36.4495V36.5035C21.4102 37.1516 21.75 37.9347 21.75 38.8529C21.75 39.7711 21.4102 40.5542 20.7305 41.2023C20.0508 41.8504 19.2295 42.1745 18.2666 42.1745C17.3037 42.1745 16.4824 41.8504 15.8027 41.2023L1.01953 27.1059C0.339844 26.4578 0 25.6746 0 24.7565C0 23.8383 0.339844 23.0552 1.01953 22.4071C1.69922 21.7589 2.52051 21.4349 3.4834 21.4349C4.44629 21.4349 5.26758 21.7589 5.94727 22.4071L6.00391 22.4611L22.8262 6.4203L22.7695 6.36629C22.0898 5.71818 21.75 4.93504 21.75 4.01689C21.75 3.09873 22.0898 2.31559 22.7695 1.66748C23.4492 1.01937 24.2705 0.695312 25.2334 0.695312C26.1963 0.695312 27.0176 1.01937 27.6973 1.66748L42.4805 15.7639C43.1602 16.412 43.5 17.1952 43.5 18.1133C43.5 19.0315 43.1602 19.8146 42.4805 20.4627C41.8008 21.1108 40.9795 21.4349 40.0166 21.4349C39.0537 21.4349 38.2324 21.1108 37.5527 20.4627L37.4961 20.4087L31.5488 26.0797L56.9805 50.3839C57.6602 51.032 58 51.8061 58 52.7063C58 53.6064 57.6602 54.3806 56.9805 55.0287ZM19.0879 14.1976L14.2168 18.8965L24.4688 28.6721L29.3398 24.0273L19.0879 14.1976Z" fill="#85BFB5"/>
</svg>
