<svg width="25" height="25" viewBox="0 0 25 25" fill="none" xmlns="http://www.w3.org/2000/svg">
<path fill-rule="evenodd" clip-rule="evenodd" d="M7.85778 0.773438H17.6891C18.9903 0.918016 19.8578 1.06259 20.5807 1.35175C21.4481 1.78549 22.0265 2.07464 22.7493 2.79753C23.4722 3.52043 23.906 4.24332 24.1951 4.96621C24.4843 5.6891 24.7734 6.55657 24.7734 7.85778V17.6891C24.6289 18.9903 24.4843 19.8578 24.1951 20.5807C23.7614 21.4481 23.4722 22.0265 22.7493 22.7493C22.0265 23.4722 21.3036 23.906 20.5807 24.1951C19.8578 24.4843 18.9903 24.7734 17.6891 24.7734H7.85778C6.55657 24.6289 5.6891 24.4843 4.96621 24.1951C4.09874 23.7614 3.52043 23.4722 2.79754 22.7493C2.07464 22.0265 1.64091 21.3036 1.35175 20.5807C1.0626 19.8578 0.773438 18.9903 0.773438 17.6891V7.85778C0.918016 6.55657 1.0626 5.6891 1.35175 4.96621C1.78549 4.09874 2.07464 3.52043 2.79754 2.79753C3.52043 2.07464 4.24332 1.64091 4.96621 1.35175C5.6891 1.06259 6.55657 0.773438 7.85778 0.773438ZM17.6891 2.94211H7.85778C6.70115 3.08669 6.12284 3.23127 5.6891 3.37585C5.11079 3.52043 4.67705 3.80958 4.24332 4.24332C3.90011 4.58653 3.73795 4.92974 3.54195 5.34458C3.49029 5.45391 3.43614 5.56851 3.37585 5.6891C3.35348 5.7562 3.32766 5.82676 3.29998 5.90238C3.14872 6.31561 2.94211 6.88008 2.94211 7.85778V17.6891C3.08669 18.8457 3.23127 19.424 3.37585 19.8578C3.52043 20.4361 3.80958 20.8698 4.24332 21.3036C4.58653 21.6468 4.92974 21.8089 5.34458 22.0049C5.454 22.0566 5.5684 22.1107 5.6891 22.171C5.7562 22.1934 5.82676 22.2192 5.90238 22.2469C6.3156 22.3982 6.88008 22.6048 7.85778 22.6048H17.6891C18.8457 22.4602 19.424 22.3156 19.8578 22.171C20.4361 22.0265 20.8698 21.7373 21.3036 21.3036C21.6468 20.9604 21.8089 20.6171 22.0049 20.2023C22.0566 20.0929 22.1107 19.9785 22.171 19.8578C22.1934 19.7907 22.2192 19.7201 22.2469 19.6445C22.3982 19.2313 22.6048 18.6668 22.6048 17.6891V7.85778C22.4602 6.70115 22.3156 6.12284 22.171 5.6891C22.0265 5.11079 21.7373 4.67705 21.3036 4.24332C20.9603 3.90011 20.6171 3.73795 20.2023 3.54195C20.0931 3.49033 19.9783 3.4361 19.8578 3.37585C19.7907 3.35348 19.7201 3.32766 19.6445 3.29998C19.2313 3.14873 18.6668 2.94211 17.6891 2.94211ZM6.55657 12.7734C6.55657 9.30356 9.30356 6.55657 12.7734 6.55657C16.2433 6.55657 18.9903 9.30356 18.9903 12.7734C18.9903 16.2433 16.2433 18.9903 12.7734 18.9903C9.30356 18.9903 6.55657 16.2433 6.55657 12.7734ZM19.1349 7.85778C19.9334 7.85778 20.5807 7.21048 20.5807 6.41199C20.5807 5.61351 19.9334 4.96621 19.1349 4.96621C18.3364 4.96621 17.6891 5.61351 17.6891 6.41199C17.6891 7.21048 18.3364 7.85778 19.1349 7.85778ZM8.72525 12.7734C8.72525 15.0867 10.6048 16.8216 12.7734 16.8216C14.9421 16.8216 16.8216 14.9421 16.8216 12.7734C16.8216 10.4602 14.9421 8.72525 12.7734 8.72525C10.4602 8.72525 8.72525 10.6048 8.72525 12.7734Z" fill="white"/>
</svg>
