<svg width="40" height="29" viewBox="0 0 40 29" fill="none" xmlns="http://www.w3.org/2000/svg">
<path d="M33.3333 25C35.1667 25 36.65 23.5 36.65 21.6667L36.6667 3.33333C36.6667 1.5 35.1667 0 33.3333 0H6.66667C4.83333 0 3.33333 1.5 3.33333 3.33333V21.6667C3.33333 23.5 4.83333 25 6.66667 25H0C0 26.8333 1.5 28.3333 3.33333 28.3333H36.6667C38.5 28.3333 40 26.8333 40 25H33.3333ZM6.66667 3.33333H33.3333V21.6667H6.66667V3.33333ZM20 26.6667C19.0833 26.6667 18.3333 25.9167 18.3333 25C18.3333 24.0833 19.0833 23.3333 20 23.3333C20.9167 23.3333 21.6667 24.0833 21.6667 25C21.6667 25.9167 20.9167 26.6667 20 26.6667Z" fill="#13836F"/>
</svg>
