<svg width="62" height="63" viewBox="0 0 62 63" fill="none" xmlns="http://www.w3.org/2000/svg">
<mask id="mask0_2040_4318" style="mask-type:alpha" maskUnits="userSpaceOnUse" x="0" y="0" width="62" height="63">
<rect y="0.0615234" width="61.9466" height="61.9466" fill="#C4C4C4"/>
</mask>
<g mask="url(#mask0_2040_4318)">
</g>
<g clip-path="url(#clip0_2040_4318)">
<path d="M49.3067 45.7218C51.9012 45.7218 54.0004 43.599 54.0004 41.0046L54.0239 15.06C54.0239 12.4655 51.9012 10.3428 49.3067 10.3428H11.5692C8.9747 10.3428 6.85196 12.4655 6.85196 15.06V41.0046C6.85196 43.599 8.9747 45.7218 11.5692 45.7218H2.13477C2.13477 48.3162 4.2575 50.4389 6.85196 50.4389H54.0239C56.6184 50.4389 58.7411 48.3162 58.7411 45.7218H49.3067ZM11.5692 15.06H49.3067V41.0046H11.5692V15.06ZM30.438 48.0804C29.1407 48.0804 28.0794 47.019 28.0794 45.7218C28.0794 44.4245 29.1407 43.3632 30.438 43.3632C31.7352 43.3632 32.7966 44.4245 32.7966 45.7218C32.7966 47.019 31.7352 48.0804 30.438 48.0804Z" fill="white"/>
</g>
<defs>
<clipPath id="clip0_2040_4318">
<rect width="56.6064" height="56.6064" fill="white" transform="translate(2.13477 3.26562)"/>
</clipPath>
</defs>
</svg>
