<svg width="62" height="63" viewBox="0 0 62 63" fill="none" xmlns="http://www.w3.org/2000/svg">
<mask id="mask0_2040_4314" style="mask-type:alpha" maskUnits="userSpaceOnUse" x="0" y="0" width="62" height="63">
<rect y="0.31543" width="61.9466" height="61.9466" fill="#C4C4C4"/>
</mask>
<g mask="url(#mask0_2040_4314)">
</g>
<g clip-path="url(#clip0_2040_4314)">
<path d="M54.6556 54.971C54.0673 55.5593 53.3647 55.8534 52.5476 55.8534C51.7306 55.8534 51.028 55.5593 50.4397 54.971L28.429 32.9603L23.2817 38.1076V38.1566C23.87 38.7448 24.1641 39.4557 24.1641 40.289C24.1641 41.1224 23.87 41.8332 23.2817 42.4215C22.6935 43.0097 21.9827 43.3039 21.1493 43.3039C20.3159 43.3039 19.6051 43.0097 19.0169 42.4215L6.22223 29.6268C5.63397 29.0386 5.33984 28.3278 5.33984 27.4944C5.33984 26.661 5.63397 25.9502 6.22223 25.362C6.81049 24.7737 7.5213 24.4796 8.35467 24.4796C9.18804 24.4796 9.89885 24.7737 10.4871 25.362L10.5361 25.411L25.0955 10.8516L25.0465 10.8025C24.4583 10.2143 24.1641 9.50347 24.1641 8.6701C24.1641 7.83673 24.4583 7.12592 25.0465 6.53766C25.6348 5.9494 26.3456 5.65527 27.179 5.65527C28.0123 5.65527 28.7231 5.9494 29.3114 6.53766L42.106 19.3323C42.6943 19.9206 42.9884 20.6314 42.9884 21.4647C42.9884 22.2981 42.6943 23.0089 42.106 23.5972C41.5178 24.1854 40.807 24.4796 39.9736 24.4796C39.1402 24.4796 38.4294 24.1854 37.8412 23.5972L37.7921 23.5482L32.6449 28.6954L54.6556 50.7551C55.2438 51.3434 55.538 52.046 55.538 52.8631C55.538 53.6801 55.2438 54.3827 54.6556 54.971ZM21.8601 17.9107L17.6443 22.1755L26.5172 31.0485L30.733 26.8326L21.8601 17.9107Z" fill="white"/>
</g>
<defs>
<clipPath id="clip0_2040_4314">
<rect width="50.1981" height="50.1981" fill="white" transform="translate(5.33984 5.65527)"/>
</clipPath>
</defs>
</svg>
