<svg width="24" height="24" viewBox="0 0 24 24" fill="none" xmlns="http://www.w3.org/2000/svg">
<path d="M14.8941 5.7062C14.9223 3.40653 13.2549 2.61935 12.3475 2.36861C11.7364 2.15653 11.2223 2.6886 10.9779 3.07688C10.9227 3.1646 10.899 3.26728 10.8977 3.37092L10.8583 6.57901C10.8565 6.72655 10.8058 6.86934 10.7143 6.98505L7.48919 11.0611C7.21923 11.4023 7.03831 11.8022 6.95887 12.225L6.91294 15.9614V20.2456C6.91294 20.9766 7.5008 21.5718 8.23178 21.5807L16.1353 21.6779C19.0099 21.7132 20.2288 20.0032 20.479 19.1437C21.1675 17.3024 21.6623 14.7645 21.9722 12.6786C22.2005 11.1419 20.9939 9.80621 19.4405 9.78712L15.6608 9.74067C15.1276 9.73411 14.636 9.04862 14.7096 8.5205C14.805 7.8348 14.8796 6.88399 14.8941 5.7062Z" fill="#13836F"/>
<path d="M3.68913 11.6593C2.75625 11.6593 2 12.4155 2 13.3484V19.8746C2 20.8074 2.75625 21.5637 3.68913 21.5637C4.62201 21.5637 5.37826 20.8074 5.37826 19.8746V13.3484C5.37826 12.4155 4.62201 11.6593 3.68913 11.6593Z" fill="#13836F"/>
</svg>
