<svg width="51" height="51" viewBox="0 0 51 51" fill="none" xmlns="http://www.w3.org/2000/svg">
<path d="M21.4501 28.5896C22.0826 29.4189 22.7488 30.2232 23.4081 31.0326C23.4435 31.0758 23.5255 31.0973 23.5876 31.0991C23.8551 31.106 24.1235 31.0939 24.391 31.1051C24.5403 31.1112 24.5765 31.0577 24.5757 30.9153C24.5696 30.1386 24.5731 29.362 24.5731 28.5844C24.5731 27.8018 24.5714 27.0199 24.5748 26.2381C24.5748 26.1268 24.5489 26.0724 24.4255 26.0482C23.8974 25.9473 23.3693 25.8886 22.8325 25.9637C22.313 26.037 21.8488 26.226 21.5062 26.642C21.2275 26.9802 21.0342 27.3642 21.1377 27.813C21.1973 28.0831 21.2853 28.3748 21.4501 28.5896Z" fill="#13836F"/>
<path d="M26.1172 30.9376C26.1163 31.0584 26.1491 31.1067 26.2777 31.1024C26.5452 31.0938 26.8136 31.1076 27.0802 31.0946C27.1571 31.0912 27.252 31.0472 27.302 30.9894C27.5877 30.6614 27.8673 30.3275 28.1382 29.9875C28.5119 29.5215 28.8924 29.0598 29.2393 28.5748C29.4922 28.2236 29.6406 27.8189 29.5362 27.3736C29.3645 26.6401 28.8717 26.2164 28.1658 26.0266C27.5393 25.8592 26.9102 25.9265 26.282 26.0395C26.1483 26.0637 26.1163 26.1215 26.1172 26.2483C26.1224 27.025 26.1198 27.8008 26.1198 28.5774C26.1189 29.3636 26.1207 30.1514 26.1172 30.9376Z" fill="#13836F"/>
<path d="M19.9635 36.3012H22.8854C23.4808 36.3012 24.072 36.4298 24.6078 36.6904C25.0134 36.888 25.2827 37.1054 25.4561 37.3358C25.778 37.0174 26.1655 36.7076 26.9421 36.4505C27.2424 36.3504 27.5574 36.3012 27.8749 36.3012H31.0169C31.7107 36.3012 32.2734 35.7385 32.2734 35.0447V22.1627C32.2734 21.4689 31.7107 20.9062 31.0169 20.9062H19.9635C19.2697 20.9062 18.707 21.4689 18.707 22.1627V35.0456C18.707 35.7385 19.2697 36.3012 19.9635 36.3012ZM21.6402 25.1045C22.3832 24.6756 23.2038 24.5772 24.0452 24.6687C24.3093 24.6972 24.5707 24.742 24.8331 24.786C24.8348 24.6143 24.8331 24.4426 24.8296 24.2709C24.827 24.144 24.89 24.081 25.0057 24.0784C25.1066 24.0776 25.2067 24.0767 25.3068 24.0758C25.1368 23.8549 24.9789 23.6495 24.8175 23.4381C25.0436 23.1672 25.2404 22.929 25.4699 22.652C25.6926 22.9238 25.8962 23.1723 26.1214 23.4468C25.9592 23.6556 25.8039 23.8549 25.6304 24.0767C25.721 24.0776 25.8117 24.0784 25.9031 24.0793C26.0498 24.081 26.1189 24.1595 26.1171 24.3088C26.1145 24.4599 26.1163 24.6109 26.1163 24.7619C26.5926 24.6765 27.0724 24.6212 27.5582 24.6437C28.4704 24.6868 29.3014 24.9422 29.9676 25.6058C30.985 26.6181 31.155 28.0281 30.3533 29.2224C29.9521 29.8213 29.4757 30.3719 29.0235 30.9371C28.6956 31.347 28.3522 31.744 28.0165 32.147C27.8801 32.3109 27.7093 32.3929 27.4944 32.3886C27.2994 32.3843 27.1052 32.3877 26.911 32.3877C26.6953 32.3886 26.4804 32.392 26.2656 32.3869C26.1784 32.3843 26.1292 32.4084 26.1189 32.4757V32.5405C26.1214 32.5689 26.1197 32.5983 26.1189 32.6276V33.003C26.1189 33.2869 25.8893 33.5165 25.6054 33.5165H25.3448C25.0609 33.5165 24.8313 33.2869 24.8313 33.003V32.6949C24.8305 32.6854 24.8305 32.6768 24.8305 32.6665C24.8313 32.6621 24.8313 32.657 24.8313 32.6518V32.4542C24.8184 32.3774 24.7606 32.3877 24.5552 32.3877C24.1772 32.3869 23.7993 32.386 23.4213 32.3877C23.2366 32.3886 23.0735 32.3265 22.9605 32.1875C22.17 31.215 21.3709 30.2485 20.6055 29.257C20.2603 28.8091 20.0817 28.2672 20.0852 27.6985C20.0921 26.5361 20.6495 25.6766 21.6402 25.1045Z" fill="#13836F"/>
<path d="M33.9497 33.8164C33.803 33.6533 33.6675 33.4799 33.5329 33.3047V36.1446C33.5329 36.2042 33.5225 36.2603 33.5156 36.3172C34.3958 36.5614 35.3839 36.3397 36.2227 35.6631C35.4547 35.053 34.5926 34.5335 33.9497 33.8164Z" fill="#DCBFA6"/>
<path d="M37.3444 23.0015C39.4129 22.5019 41.4926 22.0238 43.5162 21.3749C45.2455 20.8217 46.4441 19.6153 46.7936 17.7548C46.9697 16.8142 46.9688 15.8684 46.338 14.9399C43.7181 17.8247 40.6866 19.976 36.9216 20.9624C36.4797 20.2971 36.8275 19.9804 37.303 19.6378C38.82 18.5427 40.3664 17.477 41.8024 16.2818C43.9658 14.4825 44.8296 11.7789 43.996 9.59224C43.7405 8.92259 43.2651 8.33752 42.8086 7.57812C40.0333 12.2208 37.1476 16.5277 33.2773 20.0278C33.4396 20.266 33.5354 20.5542 33.5354 20.864V31.1305C34.1964 31.8139 34.8324 32.5258 35.5745 33.1057C36.6446 33.9419 37.939 34.2983 39.2808 33.7961C39.8185 33.595 40.2655 33.1506 40.8169 32.7735C39.3249 32.2152 38.0106 31.8174 36.7852 31.2323C36.0025 30.8586 35.3173 30.2477 34.6615 29.6617C34.4509 29.4736 34.476 29.0214 34.3923 28.6909C34.7055 28.7272 35.0412 28.7021 35.3277 28.81C36.9742 29.4322 38.5732 30.2183 40.2629 30.6714C41.0723 30.8888 42.0828 30.6144 42.9328 30.3469C43.914 30.0371 44.4568 29.2527 44.4007 28.0489C41.4805 28.0825 38.5724 28.0256 35.8748 26.7053C35.8023 25.8294 36.3736 25.9795 36.8404 26.0227C38.5698 26.1806 40.2957 26.4559 42.0276 26.4973C44.7726 26.562 46.7712 25.0243 46.6728 22.4605C46.6685 22.3396 46.6185 22.2188 46.5753 22.0385C43.4489 23.4779 40.2534 24.3253 36.7973 23.9292C36.5211 23.3139 36.7688 23.1405 37.3444 23.0015Z" fill="#DCBFA6"/>
<path d="M17.4475 31.1072V20.864C17.4475 20.5585 17.5399 20.2763 17.6969 20.0399C13.8197 16.5372 10.9297 12.2259 8.15191 7.57812C7.69542 8.33752 7.2208 8.92259 6.9645 9.59224C6.13003 11.7789 6.99384 14.4834 9.15811 16.2818C10.5949 17.477 12.1404 18.5418 13.6575 19.6369C14.133 19.9804 14.4816 20.2962 14.0389 20.9624C10.2739 19.9752 7.24237 17.8247 4.62247 14.939C3.99166 15.8684 3.9908 16.8142 4.16684 17.754C4.51633 19.6153 5.71496 20.8209 7.44344 21.374C9.4679 22.0229 11.5476 22.501 13.6161 23.0007C14.1917 23.1396 14.4393 23.313 14.1623 23.9283C10.7062 24.3244 7.51075 23.477 4.3843 22.0376C4.34115 22.2171 4.29196 22.3379 4.28679 22.4596C4.18927 25.0225 6.18785 26.5612 8.93201 26.4956C10.6639 26.455 12.3898 26.1797 14.1192 26.0218C14.586 25.9787 15.1573 25.8285 15.0848 26.7044C12.3881 28.0247 9.47912 28.0808 6.55892 28.048C6.50283 29.2518 7.04562 30.0362 8.02679 30.346C8.87765 30.6144 9.88816 30.888 10.6967 30.6714C12.3864 30.2183 13.9854 29.4322 15.6319 28.81C15.9175 28.7013 16.2541 28.7263 16.5673 28.6901C16.4836 29.0214 16.5095 29.4727 16.2981 29.6609C15.6423 30.2477 14.9571 30.8586 14.1744 31.2314C12.949 31.8165 11.6339 32.2143 10.1427 32.7718C10.695 33.1489 11.1412 33.5942 11.6788 33.7944C13.0206 34.2975 14.3159 33.9402 15.3851 33.1049C16.135 32.5198 16.7779 31.7984 17.4475 31.1072Z" fill="#DCBFA6"/>
<path d="M17.1888 33.2773C17.0481 33.462 16.904 33.6441 16.7504 33.8158C16.1084 34.5329 15.2454 35.0533 14.4766 35.6634C15.3222 36.3451 16.3207 36.5652 17.2061 36.3115C17.2 36.2554 17.1897 36.2019 17.1897 36.144V33.2773H17.1888Z" fill="#DCBFA6"/>
<path d="M31.7852 12.7347C32.3504 12.8305 32.9173 12.9271 33.5326 13.0316C33.4265 12.0245 32.6671 11.8062 31.7852 12.7347Z" fill="#DCBFA6"/>
<path d="M17.4609 13.0283C18.0762 12.9239 18.644 12.8272 19.2084 12.7314C18.3273 11.802 17.5679 12.0204 17.4609 13.0283Z" fill="#DCBFA6"/>
<path d="M17.8125 11.5197C21.3394 12.2635 23.0454 16.1632 21.2902 19.3785H29.6927C29.4338 18.8642 29.1292 18.3775 28.9963 17.8485C28.4069 15.5056 30.2078 12.4586 32.5516 11.6966C33.6294 11.3462 34.6486 11.2522 35.5288 12.1444C36.207 10.9191 35.8541 10.0018 34.5683 9.64794C34.1187 9.52368 33.6424 9.46241 33.1746 9.44256C31.5471 9.37266 29.9188 9.34074 28.2912 9.27688C27.8865 9.26048 27.4844 9.17764 27.0814 9.125C27.0175 9.2018 26.9537 9.2786 26.889 9.35541C27.4378 10.0061 27.9866 10.6567 28.5812 11.3626C26.7725 13.0756 26.0502 15.421 25.4772 17.8476C25.0336 15.333 24.1439 13.079 22.4664 11.3367C23.0903 10.5851 23.64 9.92236 24.2207 9.22251C22.2316 9.29414 20.4272 9.34937 18.6245 9.42962C17.9204 9.46068 17.2015 9.47449 16.5189 9.62637C15.1892 9.92322 14.812 10.8776 15.4912 12.2048C16.1462 11.4472 16.9314 11.3333 17.8125 11.5197Z" fill="#DCBFA6"/>
<path d="M31.7211 41.25C28.6646 41.25 26.0973 41.6271 25.3612 42.0335C24.6355 41.6323 22.126 41.2604 19.1256 41.2509L18.1953 42.61C18.4594 42.6057 18.7277 42.6022 19.0013 42.6022C22.057 42.6022 24.626 42.9793 25.3612 43.3866C26.0973 42.9793 28.6654 42.6022 31.7211 42.6022C32.1439 42.6022 32.5573 42.6083 32.9577 42.6195L32.0214 41.2517C31.9222 41.2517 31.8221 41.25 31.7211 41.25Z" fill="#DCBFA6"/>
<path d="M28.3171 37.6337C28.223 37.6337 28.1289 37.6371 28.0357 37.6449C27.7553 37.6665 27.4783 37.7217 27.2116 37.8106C27.14 37.8339 27.077 37.858 27.0114 37.8822C26.2279 38.1721 25.805 38.5096 25.4538 38.8565C25.4529 38.8573 25.4512 38.859 25.4504 38.8599C25.3994 38.7935 25.3425 38.727 25.2778 38.6623C25.0836 38.469 24.823 38.2852 24.4778 38.1135C24.4761 38.1126 24.4752 38.1117 24.4735 38.1109C24.4468 38.0979 24.4191 38.0859 24.3907 38.0729C24.3898 38.072 24.3889 38.072 24.3881 38.0712C24.0774 37.9262 23.7529 37.8158 23.4207 37.7433C23.4173 37.7424 23.4138 37.7424 23.4104 37.7415C23.2481 37.7062 23.0833 37.6785 22.9176 37.6613C22.7468 37.6432 22.5742 37.6328 22.4007 37.6328H19.3329L17.582 40.1906C17.8685 40.1862 18.1593 40.1828 18.4553 40.1828C21.7639 40.1828 24.5451 40.591 25.3416 41.0319C26.1381 40.591 28.9194 40.1828 32.2288 40.1828C32.687 40.1828 33.134 40.1897 33.5672 40.2018L31.8103 37.6337H28.3171Z" fill="#DCBFA6"/>
</svg>
