<svg width="15" height="25" viewBox="0 0 15 25" fill="none" xmlns="http://www.w3.org/2000/svg">
<path fill-rule="evenodd" clip-rule="evenodd" d="M14.1235 7.17067C14.1235 10.5873 11.3382 13.3725 7.92147 13.3725C4.46778 13.3725 1.68248 10.5873 1.68248 7.17067C1.68248 3.75405 4.46778 0.96875 7.92147 0.96875C11.3382 0.96875 14.1235 3.75405 14.1235 7.17067ZM14.0121 16.975C12.898 17.6805 11.6724 18.1633 10.4098 18.4605L13.9378 21.877C14.6434 22.5827 14.6434 23.7339 13.9378 24.4396C13.2323 25.1451 12.081 25.1451 11.3754 24.4396L7.95868 21.0228L4.54211 24.4396C4.17072 24.7738 3.72508 24.9594 3.24229 24.9594C2.75951 24.9594 2.31387 24.811 1.94249 24.4396C1.23687 23.7339 1.23687 22.5827 1.94249 21.877L5.39629 18.4233C4.13358 18.1261 2.90805 17.6435 1.79394 16.9378C0.939773 16.4179 0.679815 15.3038 1.1626 14.4496C1.71967 13.5954 2.83378 13.3727 3.68794 13.8926C6.21327 15.4895 9.51841 15.4895 12.0438 13.8926C12.898 13.3355 14.0493 13.5954 14.5691 14.4496C15.1262 15.3038 14.8662 16.455 14.0121 16.975ZM7.92147 4.6082C9.33272 4.6082 10.484 5.75947 10.484 7.17067C10.484 8.5819 9.33272 9.73308 7.92147 9.73308C6.5104 9.73308 5.35908 8.5819 5.35908 7.17067C5.32188 5.75947 6.4732 4.6082 7.92147 4.6082Z" fill="#13836F"/>
</svg>
