<svg width="13" height="13" viewBox="0 0 13 13" fill="none" xmlns="http://www.w3.org/2000/svg">
<path d="M8.52812 9.06877L9.57812 8.01877C9.71954 7.8791 9.89847 7.78349 10.0932 7.74355C10.2879 7.70361 10.49 7.72106 10.675 7.79377L11.9547 8.30471C12.1416 8.38059 12.3019 8.51011 12.4154 8.67694C12.5288 8.84378 12.5903 9.04046 12.5922 9.24221V11.586C12.5911 11.7232 12.5622 11.8588 12.5074 11.9846C12.4525 12.1104 12.3727 12.2238 12.2729 12.3179C12.173 12.4121 12.0552 12.4851 11.9264 12.5325C11.7976 12.5799 11.6605 12.6007 11.5234 12.5938C2.55624 12.036 0.746868 4.44221 0.40468 1.53596C0.388795 1.39324 0.403309 1.24878 0.447265 1.11207C0.491222 0.975365 0.563625 0.849516 0.659712 0.742802C0.755798 0.636088 0.873391 0.550928 1.00475 0.492924C1.13612 0.43492 1.27827 0.405388 1.42187 0.406269H3.68593C3.88797 0.406867 4.0852 0.467895 4.25227 0.581502C4.41934 0.695109 4.5486 0.8561 4.62343 1.04377L5.13437 2.32346C5.20949 2.50771 5.22865 2.71001 5.18947 2.90509C5.15029 3.10017 5.05449 3.27938 4.91405 3.42033L3.86406 4.47033C3.86406 4.47033 4.46874 8.56252 8.52812 9.06877Z" fill="#13836F"/>
</svg>
