<svg width="44" height="44" viewBox="0 0 44 44" fill="none" xmlns="http://www.w3.org/2000/svg">
<path d="M21.9978 3.14453C16.9965 3.14453 12.2004 5.13124 8.66376 8.66766C5.12711 12.2041 3.14062 17.0003 3.14062 22.0017C3.14062 27.003 5.12733 31.799 8.66376 35.3357C12.2002 38.8723 16.9964 40.8588 21.9978 40.8588C26.9991 40.8588 31.7951 38.8721 35.3318 35.3357C38.8684 31.7993 40.8549 27.003 40.8549 22.0017C40.8543 17.0007 38.8676 12.2043 35.3312 8.6684C31.7948 5.13249 26.9985 3.14527 21.9979 3.14468L21.9978 3.14453ZM23.4899 32.1745C23.117 32.5741 22.5934 32.7984 22.0472 32.7929C21.5058 32.7967 20.9856 32.5819 20.6044 32.1972C20.2044 31.8249 19.9799 31.301 19.9862 30.7544C19.9799 30.2081 20.1964 29.6828 20.586 29.2996C20.9603 28.9037 21.4839 28.6831 22.0288 28.6915C22.5701 28.6872 23.0906 28.9019 23.4712 29.2872C23.8717 29.6593 24.0966 30.1831 24.0897 30.7297C24.0943 31.2728 23.8778 31.7947 23.4899 32.1745L23.4899 32.1745ZM26.6965 20.9426V20.9429C26.4519 21.2666 26.1905 21.5777 25.9133 21.8744C25.7319 22.0558 25.4921 22.2879 25.194 22.5711C24.8929 22.8554 24.6397 23.1007 24.4315 23.3108C24.2234 23.521 24.0543 23.6984 23.9287 23.8448C23.6003 24.2473 23.4367 24.8134 23.4382 25.5428V26.3671C23.4382 26.4763 23.3947 26.5813 23.3177 26.6586C23.2403 26.7357 23.1354 26.7791 23.0261 26.7791H20.7612C20.5334 26.7791 20.3491 26.5948 20.3491 26.3671V25.1078C20.3491 24.3784 20.4357 23.8341 20.6088 23.4796C20.9109 22.9549 21.2919 22.4796 21.7381 22.0702L23.7229 20.0712C24.1406 19.6068 24.362 18.9991 24.341 18.3748C24.3597 17.7483 24.1242 17.1411 23.6878 16.6911C23.2479 16.2469 22.6433 16.0057 22.0184 16.0255C21.3805 16.0071 20.7603 16.2377 20.2894 16.6684C19.8978 17.0359 19.6341 17.5192 19.5369 18.0473C19.4998 18.2394 19.3328 18.3788 19.1373 18.3811H16.664C16.5418 18.3829 16.4254 18.3302 16.3458 18.2374C16.2661 18.1448 16.2316 18.0214 16.252 17.901C16.4392 16.6009 17.089 15.4117 18.082 14.552C19.1605 13.6314 20.5069 13.1705 22.1213 13.1691C23.7357 13.1676 25.0514 13.6101 26.068 14.4962C27.0846 15.3823 27.5924 16.619 27.5909 18.2057V18.206C27.6275 19.1953 27.3103 20.1657 26.6965 20.9429L26.6965 20.9426Z" fill="#13836F"/>
</svg>
