<svg width="232" height="204" viewBox="0 0 232 204" fill="none" xmlns="http://www.w3.org/2000/svg">
<path d="M224.946 146.591C221.157 137.974 213.881 130.782 205.141 127.244C196.038 123.557 185.585 124.898 175.996 123.664C167.668 122.592 161.66 118.875 156.686 112.265C151.922 105.931 147.649 98.9175 139.86 95.9874C133.705 93.672 126.706 94.3149 120.589 96.7262C109.316 101.172 100.801 110.622 93.6299 120.038C87.0829 128.635 81.743 138.048 69.6329 138.354C57.5149 138.661 45.9785 131.749 33.7787 133.58C17.6539 136.001 4.22332 149.425 1.40957 165.405C-1.22813 180.383 5.38969 194.911 16.7595 203.445H212.185C226.511 188.247 234.03 167.252 224.946 146.591Z" fill="#DEEDEB"/>
<path d="M48.2856 203.444H48.8232C52.5565 199.34 55.4819 194.362 57.3399 188.835C60.3486 179.889 60.2228 170.5 56.9831 162.398C55.3451 158.303 52.9825 154.488 50.6954 150.797C48.3768 147.054 45.9796 143.184 44.3526 139.038C43.6799 137.323 43.1831 135.482 42.8845 133.603C42.7493 133.586 42.6141 133.572 42.4805 133.555C42.7807 135.501 43.2916 137.407 43.988 139.181C45.6275 143.36 48.0357 147.246 50.3637 151.003C52.6414 154.678 54.9962 158.481 56.62 162.543C59.8251 170.558 59.9493 179.85 56.9689 188.709C55.0858 194.303 52.0991 199.33 48.2856 203.444Z" fill="white"/>
<path d="M211.24 186.401C215.267 187.259 219.147 188.028 222.899 188.512C222.964 188.388 223.027 188.264 223.089 188.139C219.306 187.658 215.389 186.883 211.322 186.016C205.129 184.697 198.426 183.268 191.777 183.268C187.66 183.268 183.565 183.815 179.626 185.275C178.134 185.829 176.694 186.53 175.325 187.366C171.767 185.851 168.191 184.195 164.65 182.378C167.22 180.442 169.818 178.546 172.443 176.713C191.932 163.105 209.918 155.39 227.294 153.2C227.26 153.073 227.224 152.945 227.187 152.818C209.764 155.025 191.74 162.761 172.22 176.391C169.538 178.263 166.887 180.201 164.263 182.179C160.28 180.121 156.344 177.859 152.533 175.363C145.623 170.836 137.405 164.373 130.228 155.786C158.043 152.666 186.361 148.734 209.488 133.277C210.366 132.691 211.339 131.998 212.347 131.214C212.235 131.135 212.122 131.056 212.01 130.978C211.045 131.726 210.113 132.386 209.271 132.951C186.151 148.403 157.779 152.304 129.929 155.424C124.856 149.289 120.325 142.083 117.176 133.741C112.27 120.746 112.529 107.995 117.886 98.7532C118.119 98.3524 118.364 97.9562 118.617 97.5664C118.394 97.6686 118.173 97.7755 117.951 97.8824C117.813 98.1056 117.677 98.3304 117.547 98.5567C112.13 107.9 111.861 120.774 116.808 133.88C119.941 142.176 124.432 149.354 129.462 155.476C127.849 155.657 126.237 155.835 124.63 156.012C118.831 156.652 112.833 157.314 107.01 158.064C104.885 158.337 102.724 158.656 100.572 159.057C95.9612 149.325 90.8965 139.832 84.3494 131.69C84.2551 131.783 84.1607 131.874 84.0664 131.966C90.5569 140.046 95.5902 149.47 100.174 159.133C90.7927 160.921 81.6834 164.285 76.8198 172.114C72.277 179.425 72.2817 189.531 76.8324 202.15C76.9896 202.587 77.1515 203.016 77.3166 203.444H77.7378C77.5571 202.977 77.3779 202.504 77.2034 202.016C72.6951 189.515 72.6794 179.524 77.1547 172.319C81.96 164.584 91.0206 161.266 100.35 159.499C101.979 162.941 103.55 166.414 105.113 169.864L105.283 170.24C110.711 182.221 116.324 193.783 123.673 203.445H124.163C116.747 193.765 111.102 182.135 105.64 170.078L105.47 169.702C103.92 166.282 102.361 162.839 100.748 159.425C102.857 159.035 104.978 158.722 107.062 158.455C112.881 157.705 118.877 157.043 124.676 156.404C126.369 156.217 128.066 156.03 129.764 155.839C137.011 164.56 145.334 171.112 152.323 175.691C156.091 178.161 159.983 180.401 163.92 182.441C157.235 187.498 150.734 192.817 144.384 198.011C142.185 199.809 139.963 201.626 137.721 203.444H138.344C140.458 201.729 142.556 200.014 144.633 198.316C151.026 193.086 157.575 187.728 164.307 182.642C167.83 184.455 171.386 186.107 174.924 187.621C170.084 190.698 166.138 195.466 163.754 201.254C163.455 201.979 163.194 202.711 162.954 203.445H163.367C163.595 202.761 163.839 202.079 164.117 201.403C166.508 195.6 170.486 190.837 175.364 187.808C185.255 192.009 194.974 195.128 203.327 197.599L203.641 197.692C207.161 198.733 210.761 199.8 213.946 201.512C214.035 201.41 214.125 201.309 214.213 201.207C210.976 199.451 207.325 198.369 203.753 197.315L203.439 197.222C195.172 194.776 185.563 191.695 175.779 187.556C177.054 186.797 178.388 186.157 179.769 185.645C189.959 181.867 201.266 184.276 211.24 186.401Z" fill="white"/>
<path d="M17.7448 160.945C19.4802 168.05 18.7068 175.723 15.6196 181.996C13.5981 186.105 10.679 189.826 7.08398 193.02C7.15629 193.132 7.2286 193.242 7.30091 193.352C10.9541 190.116 13.9203 186.341 15.9717 182.169C19.0982 175.814 19.8826 168.044 18.1252 160.851C16.7529 155.231 13.9926 150.471 10.1775 147.027C10.0927 147.128 10.0078 147.229 9.92446 147.329C13.6751 150.721 16.3914 155.409 17.7448 160.945Z" fill="white"/>
<path d="M106.69 70.9446C110.114 74.4421 111.648 80.3369 109.76 85.7695C107.932 91.0307 103.925 95.3881 99.1117 98.1908C95.2384 100.445 90.1863 101.688 86.3775 99.3273C83.5307 97.5636 82.0547 94.1022 81.9729 90.7556C81.8912 87.4074 83.0167 84.1456 84.4079 81.0993C86.3696 76.8063 89.0089 72.6423 92.9419 70.0313C98.3619 66.4316 103.398 67.5807 106.69 70.9446Z" fill="#DEEDEB"/>
<path d="M222.604 35.2142C220.768 29.1104 217.539 23.5065 212.918 18.3836C208.287 13.2607 201.971 9.03063 193.97 5.68556C185.969 2.3405 175.803 0.667969 163.473 0.667969C153.636 0.667969 143.612 1.99467 133.399 4.64809C123.176 7.31094 114.309 11.0977 106.789 16.0194L116.579 42.8963L111.332 47.1468L118.942 49.3836C126.452 45.4522 133.297 42.5976 139.471 40.8198C145.636 39.0513 152.188 38.1663 159.134 38.1663C166.071 38.1663 171.325 39.8389 174.891 43.1839C178.458 46.5384 180.237 50.5657 180.237 55.2956C180.237 61.0049 178.401 66.0712 174.75 70.5025C171.079 74.9338 167.032 79.4122 162.597 83.9393C159.519 87.0832 156.526 90.3308 153.636 93.6759C150.746 97.0304 148.186 100.616 145.974 104.461C143.753 108.296 141.974 112.429 140.628 116.86C139.273 121.292 138.605 126.26 138.605 131.768C138.605 133.546 138.643 135.661 138.746 138.122C138.764 138.576 138.787 139.018 138.814 139.455H131.621L139.471 144.764H177.641C177.443 143.581 177.348 142.206 177.348 140.631C177.348 139.054 177.348 137.872 177.348 137.085C177.348 133.74 178.026 130.443 179.371 127.194C180.717 123.945 182.411 120.85 184.436 117.89C186.459 114.939 188.72 112.132 191.232 109.48C193.736 106.817 196.145 104.308 198.461 101.944C201.539 98.8004 204.72 95.4569 207.996 91.909C211.272 88.3627 214.171 84.6326 216.675 80.6917C219.179 76.7509 221.249 72.4737 222.887 67.8412C224.525 63.2182 225.353 58.1518 225.353 52.6344C225.352 47.1232 224.429 41.318 222.604 35.2142Z" fill="#0E6C5C"/>
<path d="M151.051 36.2896C144.186 36.2896 137.712 37.1447 131.619 38.8565C125.517 40.5778 118.754 43.3397 111.33 47.1453L99.3203 14.8563C106.752 10.0934 115.516 6.42762 125.619 3.85123C135.712 1.28427 145.618 0 155.339 0C167.525 0 177.573 1.61908 185.479 4.85569C193.386 8.09229 199.628 12.1856 204.206 17.1435C208.774 22.1013 211.963 27.5245 213.777 33.4318C215.582 39.3391 216.494 44.9572 216.494 50.2876C216.494 55.6274 215.675 60.5303 214.057 65.004C212.438 69.4871 210.391 73.6276 207.917 77.4411C205.443 81.2546 202.577 84.8637 199.341 88.2968C196.104 91.7299 192.959 94.9665 189.917 98.0082C187.628 100.297 185.247 102.724 182.772 105.302C180.289 107.869 178.057 110.585 176.056 113.441C174.056 116.307 172.38 119.302 171.051 122.445C169.721 125.589 169.051 128.78 169.051 132.017C169.051 132.779 169.051 133.924 169.051 135.45C169.051 136.976 169.144 138.306 169.339 139.451H131.617C131.226 137.544 130.995 135.404 130.9 133.023C130.798 130.641 130.76 128.595 130.76 126.874C130.76 121.543 131.421 116.735 132.76 112.445C134.09 108.157 135.849 104.156 138.043 100.445C140.23 96.7239 142.759 93.2547 145.615 90.0071C148.471 86.7705 151.43 83.6251 154.471 80.5834C158.852 76.2024 162.853 71.867 166.481 67.5788C170.09 63.2906 171.904 58.3877 171.904 52.8624C171.904 48.2849 170.147 44.3881 166.621 41.1421C163.098 37.9086 157.908 36.2896 151.051 36.2896Z" fill="#13836F"/>
<path d="M180.251 181.81C180.251 188.692 178.023 194.002 173.567 197.748C169.112 201.502 164.075 203.371 158.453 203.371C152.822 203.371 147.787 201.502 143.332 197.748C138.884 194.002 136.656 188.692 136.656 181.81C136.656 174.936 138.884 169.626 143.332 165.872C150.191 160.085 160.337 158.796 168.367 162.857C175.492 166.463 180.251 173.782 180.251 181.81Z" fill="#0E6C5C"/>
<path d="M172.784 181.811C172.784 188.692 170.556 194.002 166.1 197.748C161.645 201.502 156.609 203.371 150.986 203.371C145.355 203.371 140.32 201.502 135.865 197.748C131.417 194.002 129.189 188.692 129.189 181.811C129.189 174.937 131.417 169.627 135.865 165.873C140.32 162.127 145.357 160.25 150.986 160.25C156.609 160.25 161.644 162.127 166.1 165.873C170.556 169.628 172.784 174.938 172.784 181.811Z" fill="#13836F"/>
<path d="M59.7831 84.2475C60.2013 82.0161 58.7314 79.8682 56.5 79.45C54.2686 79.0318 52.1207 80.5017 51.7025 82.7331C51.2843 84.9645 52.7542 87.1124 54.9856 87.5306C57.217 87.9488 59.3649 86.4789 59.7831 84.2475Z" fill="#DEEDEB"/>
<path d="M61.7485 91.9716C61.9837 90.7164 61.1499 89.5068 59.8862 89.27C58.6224 89.0332 57.4073 89.8587 57.172 91.114C56.9368 92.3692 57.7706 93.5787 59.0343 93.8155C60.2981 94.0524 61.5132 93.2268 61.7485 91.9716Z" fill="#DEEDEB"/>
<path d="M57.0413 74.241C63.3617 67.9206 63.3617 57.6732 57.0413 51.3528C50.7209 45.0323 40.4735 45.0324 34.1531 51.3528C27.8327 57.6732 27.8327 67.9206 34.1531 74.241C40.4735 80.5614 50.7209 80.5614 57.0413 74.241Z" fill="#DEEDEB"/>
<path d="M39.3865 64.8393C40.5124 64.8393 41.4252 63.9265 41.4252 62.8005C41.4252 61.6745 40.5124 60.7617 39.3865 60.7617C38.2605 60.7617 37.3477 61.6745 37.3477 62.8005C37.3477 63.9265 38.2605 64.8393 39.3865 64.8393Z" fill="white"/>
<path d="M45.6013 64.8393C46.7273 64.8393 47.6401 63.9265 47.6401 62.8005C47.6401 61.6745 46.7273 60.7617 45.6013 60.7617C44.4753 60.7617 43.5625 61.6745 43.5625 62.8005C43.5625 63.9265 44.4753 64.8393 45.6013 64.8393Z" fill="white"/>
<path d="M51.8161 64.8393C52.9421 64.8393 53.8549 63.9265 53.8549 62.8005C53.8549 61.6745 52.9421 60.7617 51.8161 60.7617C50.6901 60.7617 49.7773 61.6745 49.7773 62.8005C49.7773 63.9265 50.6901 64.8393 51.8161 64.8393Z" fill="white"/>
<path d="M34.0064 195.266L35.5186 201.096C35.9131 202.616 37.3829 203.644 39.0098 203.533C43.9677 203.196 54.2701 201.981 60.1837 197.622L58.5033 189.22C50.3733 188.761 42.7714 189.214 36.1866 191.429C34.5361 191.985 33.5835 193.637 34.0064 195.266Z" fill="#312E2E"/>
<path d="M43.4811 199.905C43.3946 199.905 43.316 199.848 43.2924 199.761L41.2615 192.491C41.2316 192.386 41.2929 192.279 41.3982 192.249C41.5035 192.221 41.612 192.281 41.6403 192.386L43.6713 199.656C43.7011 199.761 43.6398 199.868 43.5345 199.898C43.5172 199.903 43.4999 199.905 43.4811 199.905Z" fill="white"/>
<path d="M47.8677 198.925C47.7813 198.925 47.7027 198.868 47.6791 198.781L45.6482 191.511C45.6183 191.406 45.6796 191.299 45.7849 191.269C45.8903 191.239 45.9987 191.301 46.027 191.406L48.058 198.676C48.0878 198.782 48.0265 198.888 47.9212 198.918C47.9039 198.923 47.885 198.925 47.8677 198.925Z" fill="white"/>
<path d="M52.9649 163.752L34.0703 169.36L48.1029 188.587L68.2488 190.188L96.0358 178.44L85.4755 162.551L52.9649 163.752Z" fill="#13836F"/>
<path d="M76.2617 166.423C117.758 154.14 124.426 190.813 59.6826 197.489C57.3954 194.916 54.7232 190.452 53.6621 186.718L87.8516 170.919L76.2617 166.423Z" fill="#13836F"/>
<path d="M78.0238 192.708C76.0824 192.087 74.2228 190.859 74.2228 190.859L67.5547 192.952L69.0826 200.206L76.0101 201.613C78.1212 197.752 78.2438 194.582 78.0238 192.708Z" fill="#FFC7A1"/>
<path d="M53.8111 186.972L53.5156 186.463C60.649 182.318 78.918 172.36 94.4848 169.422L94.5948 170.002C79.1161 172.921 60.9163 182.843 53.8111 186.972Z" fill="#0E6C5C"/>
<path d="M52.9653 163.75C14.3414 156.406 4.33767 193.526 69.0823 200.202C71.3694 197.628 73.1614 194.588 74.2225 190.855C64.2769 184.201 53.1571 177.875 40.9715 171.85L52.9653 163.75Z" fill="#13836F"/>
<path d="M74.0643 191.106C72.2267 189.937 70.3121 188.701 68.2859 187.392C58.1108 180.823 46.5791 173.376 36.7812 169.131L37.0155 168.59C46.8573 172.854 58.411 180.315 68.605 186.897C70.6312 188.204 72.5442 189.44 74.3802 190.609L74.0643 191.106Z" fill="#0E6C5C"/>
<path d="M24.6289 182.155L24.1133 181.871C25.5626 179.246 27.8859 177.476 31.0156 176.609L31.1728 177.177C28.1579 178.012 26.0185 179.64 24.6289 182.155Z" fill="#0E6C5C"/>
<path d="M105.241 179.921C103.852 177.406 101.711 175.777 98.6973 174.942L98.8545 174.375C101.984 175.241 104.307 177.013 105.757 179.636L105.241 179.921Z" fill="#0E6C5C"/>
<path d="M65.4659 199.879L65.0352 199.477C68.1256 196.168 70.0229 192.675 70.8372 188.797L71.4141 188.918C70.5762 192.903 68.6317 196.488 65.4659 199.879Z" fill="#0E6C5C"/>
<path d="M97.2839 190.547C92.3354 187.489 82.742 192.773 80.3338 193.04C79.6311 193.119 78.82 192.964 78.0215 192.708C78.2415 194.584 78.1189 197.753 76.0078 201.613L77.1852 201.852C77.1852 201.852 85.3199 204.834 93.9498 203.099C101.915 201.495 101.174 192.95 97.2839 190.547Z" fill="#312E2E"/>
<path d="M90.5405 200.548C90.5201 200.548 90.5012 200.545 90.4808 200.539C90.3771 200.506 90.3205 200.396 90.3519 200.292C90.9398 198.431 91.196 194.768 89.4936 192.308C89.4323 192.219 89.4543 192.096 89.5439 192.035C89.6335 191.973 89.7562 191.995 89.8175 192.085C91.6 194.661 91.3391 198.475 90.7276 200.41C90.7009 200.493 90.6239 200.548 90.5405 200.548Z" fill="white"/>
<path d="M86.6597 201.283C86.6393 201.283 86.6204 201.279 86.6 201.273C86.4962 201.24 86.4396 201.13 86.4711 201.026C87.059 199.165 87.3152 195.503 85.6128 193.043C85.5515 192.953 85.5735 192.83 85.6631 192.769C85.7527 192.708 85.8753 192.73 85.9366 192.819C87.7192 195.396 87.4582 199.209 86.8468 201.144C86.8216 201.229 86.743 201.283 86.6597 201.283Z" fill="white"/>
<path d="M46.1326 115.896C46.1326 115.896 55.8596 107.625 55.4997 106.053C55.2419 104.929 52.4863 106.576 52.4863 106.576C52.4863 106.576 56.3501 101.991 56.1536 101.434C55.8031 100.439 53.1292 102.294 53.1292 102.294C53.1292 102.294 54.9353 99.6943 54.0724 99.2699C53.2094 98.8455 51.3262 100.449 51.3262 100.449C51.3262 100.449 52.4266 99.0058 51.9094 98.627C51.3922 98.2481 49.1632 99.8059 49.1632 99.8059C49.1632 99.8059 49.9633 97.9856 48.2641 98.6757C46.5648 99.3658 34.6465 110.303 34.6465 110.303L46.1326 115.896Z" fill="#FFC7A1"/>
<path d="M50.1121 106.087C50.065 106.087 50.0178 106.069 49.9801 106.035C48.3107 104.509 47.5735 104.139 45.7328 103.572C45.629 103.54 45.5708 103.43 45.6023 103.326C45.6337 103.223 45.7438 103.165 45.8475 103.196C47.7558 103.782 48.5182 104.166 50.2457 105.744C50.3259 105.818 50.3322 105.942 50.2583 106.022C50.219 106.065 50.1656 106.087 50.1121 106.087Z" fill="#935E4B"/>
<path d="M47.181 110.571C47.1716 110.571 47.1621 110.571 47.1543 110.57C47.0474 110.554 46.9719 110.455 46.9861 110.348C47.1779 108.98 47.6086 108.125 48.3018 107.736C48.896 107.401 49.6678 107.435 50.5984 107.838C50.6974 107.88 50.7446 107.996 50.7006 108.096C50.6581 108.195 50.5418 108.242 50.4428 108.198C49.6316 107.847 48.9761 107.806 48.4951 108.078C47.923 108.4 47.5457 109.182 47.3759 110.403C47.3618 110.501 47.2769 110.571 47.181 110.571Z" fill="#935E4B"/>
<path d="M46.7218 102.303C46.6699 102.303 46.618 102.282 46.5787 102.241C46.5048 102.163 46.508 102.039 46.5866 101.963L49.0278 99.6633C49.1064 99.5879 49.2306 99.5926 49.306 99.6712C49.3799 99.7498 49.3768 99.8739 49.2982 99.9494L46.8569 102.249C46.8192 102.284 46.7705 102.303 46.7218 102.303Z" fill="#935E4B"/>
<path d="M48.9823 103.087C48.9335 103.087 48.8848 103.068 48.8455 103.032C48.7669 102.957 48.7653 102.832 48.8392 102.754L51.1846 100.311C51.26 100.232 51.3842 100.229 51.4628 100.305C51.5414 100.38 51.543 100.504 51.4691 100.583L49.1238 103.026C49.0845 103.067 49.0326 103.087 48.9823 103.087Z" fill="#935E4B"/>
<path d="M51.2913 104.464C51.2426 104.464 51.1954 104.447 51.1577 104.411C51.0791 104.337 51.0744 104.213 51.1483 104.132L52.9874 102.16C53.0613 102.081 53.1855 102.076 53.2657 102.15C53.3443 102.224 53.349 102.348 53.2751 102.428L51.4359 104.401C51.3966 104.442 51.3448 104.464 51.2913 104.464Z" fill="#935E4B"/>
<path d="M82.8775 171.222L47.3126 172.597L43.3828 140.176C43.3828 140.176 55.2886 128.884 59.8692 124.724L67.6031 124.328C91.5955 135.233 87.6672 148.853 82.8775 171.222Z" fill="#E7AC55"/>
<path d="M67.6016 124.328C67.6016 124.328 95.0506 126.675 103.704 145.482C112.172 163.884 77.3742 170.436 77.3742 170.436L67.6016 124.328Z" fill="#E7AC55"/>
<path d="M36.2271 128.356L47.5702 114.553L36.9628 108.125C32.5378 111.201 23.9818 118.17 16.7305 126.061C15.1303 127.802 13.879 129.836 13.2503 132.076C12.7127 133.988 12.6152 135.876 12.917 137.724C13.7045 142.544 17.4945 146.262 22.5545 146.854C26.8757 147.36 43.3826 146.068 56.7439 142.138L60.6738 126.971C58.6538 125.827 43.6466 125.627 36.2271 128.356Z" fill="#E7AC55"/>
<g opacity="0.8">
<path opacity="0.8" d="M90.5076 131.79C90.5674 131.776 90.6255 131.764 90.6853 131.749C90.5611 131.676 90.4369 131.605 90.3127 131.533C88.3007 131.996 86.2257 132.469 84.179 132.716C82.9498 132.864 78.8408 133.136 77.6414 130.399C77.0441 129.038 77.4968 127.523 78.1711 126.46C78.0721 126.432 77.9746 126.403 77.8772 126.375C77.1855 127.501 76.7407 129.08 77.371 130.517C78.6521 133.441 82.9341 133.164 84.2152 133.009C86.32 132.756 88.45 132.265 90.5076 131.79Z" fill="white"/>
<path opacity="0.8" d="M103.318 153C102.007 152.493 100.652 151.968 99.2283 152.104C96.7305 152.339 94.5927 154.81 94.4622 157.61C94.3742 159.52 95.1036 161.521 96.4931 163.28C96.5765 163.228 96.6598 163.175 96.7431 163.121C95.3834 161.411 94.6697 159.47 94.7562 157.623C94.8788 154.963 96.8971 152.618 99.255 152.396C100.608 152.27 101.874 152.758 103.212 153.273C103.689 153.457 104.175 153.644 104.669 153.801C104.694 153.707 104.719 153.611 104.743 153.515C104.26 153.363 103.785 153.18 103.318 153Z" fill="white"/>
<path opacity="0.8" d="M34.0353 143.629C32.3219 142.211 29.659 141.832 26.7305 142.59C24.1211 143.264 21.8827 144.602 20.3438 146.37C20.4444 146.403 20.5434 146.439 20.6456 146.469C22.142 144.79 24.2972 143.522 26.8028 142.874C29.637 142.14 32.2055 142.498 33.8451 143.855C34.6247 144.499 35.1765 145.337 35.5773 146.24C35.6779 146.229 35.7801 146.216 35.8823 146.205C35.4642 145.235 34.8794 144.328 34.0353 143.629Z" fill="white"/>
<path opacity="0.8" d="M18.543 124.133C21.7544 123.335 24.8873 122.214 27.7781 120.549C28.8705 119.921 30.1029 119.119 30.9706 117.942C31.8934 116.689 32.1999 115.197 31.7912 113.952C31.6309 113.463 31.3463 113.034 30.9911 112.691C30.9156 112.753 30.8402 112.816 30.7647 112.877C31.0964 113.193 31.3621 113.591 31.5114 114.045C31.8902 115.2 31.601 116.591 30.7349 117.767C29.9002 118.901 28.6976 119.682 27.6319 120.295C24.9061 121.865 21.9572 122.951 18.9281 123.736C18.7992 123.868 18.6719 124.001 18.543 124.133Z" fill="white"/>
</g>
<path d="M70.1166 117.119L70.1119 117.622L70.0317 125.44L70.0223 126.287C70.0065 127.612 69.4642 128.813 68.5871 129.685C67.7147 130.552 66.5137 131.095 65.1839 131.105C62.5037 131.119 60.3109 128.967 60.2857 126.282L60.1914 116.621L70.1166 117.119Z" fill="#FFC7A1"/>
<path d="M70.1123 117.621L70.0321 125.438C65.6873 123.67 63.8984 118.967 63.8984 118.967L70.1123 117.621Z" fill="#312E2E"/>
<path d="M71.8285 103.982C73.3848 105.851 77.9323 116.438 73.3234 120.05C68.1377 124.116 60.245 117.435 60.245 117.435L59.1855 105.103L66.036 103.297L71.8285 103.982Z" fill="#FFC7A1"/>
<path d="M55.696 103.301C55.696 103.301 40.5002 111.226 52.8901 134.071C54.4809 137.006 58.0067 138.286 61.0217 136.855C64.2567 135.319 65.4813 131.368 63.7239 128.247C61.6976 124.648 59.7406 120.01 60.5769 116.562L55.696 103.301Z" fill="#312E2E"/>
<path d="M60.0362 109.961C61.6415 108.356 61.6415 105.753 60.0362 104.148C58.4309 102.543 55.8283 102.543 54.223 104.148C52.6177 105.753 52.6177 108.356 54.223 109.961C55.8283 111.567 58.4309 111.567 60.0362 109.961Z" fill="#13836F"/>
<path d="M62.189 111.992C61.7441 109.428 61.4737 107.669 64.0659 106.347C64.0659 106.347 73.2003 108.008 74.9436 104.561C76.6869 101.115 74.0303 95.6766 68.4673 99.454C54.2256 96.6716 52.3157 110 56.6338 114.442L60.8953 113.788C61.7535 113.658 62.3367 112.847 62.189 111.992Z" fill="#312E2E"/>
<path d="M69.2611 112.604C69.5962 112.604 69.8678 112.332 69.8678 111.997C69.8678 111.662 69.5962 111.391 69.2611 111.391C68.9259 111.391 68.6543 111.662 68.6543 111.997C68.6543 112.332 68.9259 112.604 69.2611 112.604Z" fill="#312E2E"/>
<path d="M73.3724 110.581C73.7075 110.581 73.9792 110.309 73.9792 109.974C73.9792 109.639 73.7075 109.367 73.3724 109.367C73.0373 109.367 72.7656 109.639 72.7656 109.974C72.7656 110.309 73.0373 110.581 73.3724 110.581Z" fill="#312E2E"/>
<path d="M72.9502 113.867C72.9077 113.867 72.8653 113.852 72.8323 113.82C72.7631 113.754 72.7599 113.646 72.826 113.577C73.0696 113.32 73.3368 112.96 73.2237 112.698C73.1073 112.426 72.6153 112.31 72.389 112.31C71.9048 112.31 71.6722 111.448 71.6297 111.275C71.6077 111.183 71.6643 111.09 71.7571 111.068C71.8498 111.044 71.9426 111.102 71.9646 111.195C72.0526 111.56 72.2538 111.967 72.389 111.967C72.6216 111.967 73.3306 112.077 73.5396 112.564C73.689 112.912 73.5333 113.333 73.0743 113.815C73.0413 113.85 72.9957 113.867 72.9502 113.867Z" fill="#312E2E"/>
<path d="M72.9805 116.169C72.9475 116.169 72.9145 116.16 72.8846 116.139C71.7418 115.367 70.5864 116.015 70.5754 116.021C70.4937 116.068 70.3883 116.04 70.3412 115.958C70.294 115.877 70.3223 115.771 70.4041 115.724C70.4591 115.693 71.7575 114.965 73.078 115.855C73.1565 115.908 73.177 116.015 73.1235 116.094C73.0905 116.142 73.0355 116.169 72.9805 116.169Z" fill="#312E2E"/>
<path d="M68.9954 109.367C69.3413 110.017 68.7392 110.148 68.0334 110.522C67.3276 110.896 66.6061 111.034 66.441 110.723C66.276 110.414 66.7145 109.859 67.4203 109.483C68.1261 109.107 68.7282 108.864 68.9954 109.367Z" fill="#312E2E"/>
<path d="M71.5662 108.193C71.7187 108.773 72.151 108.52 72.7798 108.355C73.4085 108.19 73.9178 107.874 73.8455 107.598C73.7732 107.321 73.2042 107.23 72.5738 107.395C71.9451 107.56 71.4483 107.745 71.5662 108.193Z" fill="#312E2E"/>
<path opacity="0.4" d="M67.6776 116.149C68.4044 115.478 68.4502 114.346 67.7798 113.619C67.1094 112.892 65.9766 112.846 65.2497 113.517C64.5228 114.187 64.4771 115.32 65.1475 116.047C65.8179 116.773 66.9507 116.819 67.6776 116.149Z" fill="#FF9B59"/>
<path d="M61.8391 116.513C62.6574 115.452 62.3441 113.839 61.1392 112.909C59.9343 111.98 58.2942 112.086 57.4759 113.146C56.6575 114.207 56.9709 115.82 58.1757 116.75C59.3806 117.679 61.0207 117.573 61.8391 116.513Z" fill="#FFC7A1"/>
<path d="M60.7225 115.74C60.6282 115.74 60.5512 115.663 60.5512 115.568C60.5512 115.061 60.3044 114.592 59.8894 114.312C59.5357 114.073 59.1129 114.018 58.7592 114.161C58.6711 114.196 58.5705 114.155 58.5344 114.067C58.4982 113.979 58.5407 113.878 58.6287 113.842C59.0877 113.655 59.63 113.723 60.0796 114.026C60.5889 114.369 60.8938 114.944 60.8938 115.567C60.8954 115.663 60.8184 115.74 60.7225 115.74Z" fill="#312E2E"/>
<path d="M36.0787 128.219L29.875 134.93L30.1636 135.196L36.3672 128.485L36.0787 128.219Z" fill="#312E2E"/>
<path d="M79.7866 157.065L79.6719 156.689C84.188 155.312 88.5721 153.667 92.5444 148.699L92.8509 148.944C88.8095 153.998 84.3657 155.669 79.7866 157.065Z" fill="#312E2E"/>
<path d="M82.5353 141.848H44.1158C42.7341 141.848 41.6133 143.06 41.6133 144.555V171.986C41.6133 173.481 42.7341 174.693 44.1158 174.693H82.5369C83.9186 174.693 85.0394 173.481 85.0394 171.986V144.555C85.0378 143.058 83.917 141.848 82.5353 141.848Z" fill="#DEEDEB"/>
<path d="M65.3533 156.536C65.4995 156.536 65.6174 156.663 65.6174 156.822V159.718C65.6174 159.875 65.4995 160.004 65.3533 160.004H61.2961C61.15 160.004 61.0321 159.876 61.0321 159.718V156.822C61.0321 156.665 61.15 156.536 61.2961 156.536H65.3533ZM65.3533 155.75H61.2961C60.7177 155.75 60.2461 156.231 60.2461 156.822V159.718C60.2461 160.309 60.7177 160.79 61.2961 160.79H65.3533C65.9318 160.79 66.4033 160.309 66.4033 159.718V156.822C66.4033 156.231 65.9318 155.75 65.3533 155.75Z" fill="#1F3C88"/>
<path d="M231.652 203.055H0V203.841H231.652V203.055Z" fill="#312E2E"/>
</svg>
