<svg width="39" height="39" viewBox="0 0 39 39" fill="none" xmlns="http://www.w3.org/2000/svg">
<g clip-path="url(#clip0_1_42963)">
<path d="M35.5529 19.8252C35.5791 19.7853 35.5934 19.7388 35.5942 19.691C35.5949 19.6433 35.582 19.5964 35.557 19.5557C33.9034 16.8319 26.9394 13.6817 21.4607 13.6806C20.4873 13.6767 19.5154 13.7576 18.5561 13.9224C17.7859 13.0027 16.8786 12.2202 15.8446 11.814C12.9186 10.6765 9.99377 12.4183 8.82524 13.2572C8.76096 13.3028 8.70813 13.3627 8.67091 13.4322C8.63368 13.5016 8.61308 13.5788 8.61073 13.6576C8.60838 13.7363 8.62433 13.8146 8.65734 13.8862C8.69035 13.9577 8.73951 14.0207 8.80096 14.07L12.4235 16.9728C12.1798 17.2211 11.949 17.4817 11.7318 17.7534C11.5784 17.9396 11.4951 18.1737 11.4964 18.4149L11.4994 20.9388C11.4984 21.1799 11.5817 21.4139 11.7348 21.6002C11.9507 21.8705 12.1802 22.1297 12.4224 22.3767L8.80581 25.2773C8.74446 25.3267 8.69539 25.3896 8.66244 25.4612C8.6295 25.5327 8.61358 25.611 8.61593 25.6897C8.61829 25.7684 8.63885 25.8456 8.67601 25.915C8.71316 25.9845 8.76591 26.0444 8.8301 26.09C9.99264 26.9312 12.9216 28.6771 15.8424 27.5343C16.8763 27.1281 17.7814 26.3516 18.5497 25.4383C19.5105 25.6045 20.4839 25.6866 21.4589 25.6838C26.942 25.6977 33.7824 22.6495 35.5529 19.8252ZM21.9791 19.6794C21.9789 19.1776 22.1275 18.6871 22.4062 18.2698C22.6849 17.8525 23.0811 17.5273 23.5446 17.3352C24.0082 17.1431 24.5183 17.0928 25.0104 17.1906C25.5026 17.2885 25.9546 17.5301 26.3094 17.8849C26.6642 18.2397 26.9059 18.6918 27.0037 19.1839C27.1016 19.6761 27.0513 20.1862 26.8592 20.6497C26.6671 21.1133 26.3418 21.5094 25.9245 21.7881C25.5072 22.0668 25.0167 22.2154 24.5149 22.2153C24.1818 22.2155 23.852 22.1501 23.5442 22.0227C23.2364 21.8954 22.9568 21.7086 22.7213 21.4731C22.4857 21.2375 22.299 20.9579 22.1716 20.6501C22.0442 20.3424 21.9788 20.0125 21.9791 19.6794Z" fill="#13836F"/>
<path d="M10.5 21.7679C10.0901 21.7683 9.68162 21.5198 9.21787 21.1928C8.17827 20.4559 8.16146 18.904 9.21899 18.1656C9.62033 17.8861 10.2776 17.589 10.5019 17.589C10.5504 17.5895 10.5978 17.5746 10.6375 17.5466C10.6771 17.5186 10.7069 17.4788 10.7226 17.4329C10.7383 17.3869 10.7392 17.3372 10.725 17.2908C10.7109 17.2444 10.6825 17.2036 10.6439 17.1742C10.0864 16.7383 9.39905 16.5013 8.69134 16.5012C6.93352 16.5019 3.5879 19.6816 3.5879 19.6816C3.5879 19.6816 6.93539 22.8632 8.69322 22.8625C9.40174 22.8637 10.09 22.6264 10.6472 22.1887C10.8173 22.0463 10.7201 21.7631 10.5 21.7679Z" fill="#13836F"/>
</g>
<defs>
<clipPath id="clip0_1_42963">
<rect width="27.0579" height="27.0579" fill="white" transform="translate(19.1328 0.546875) rotate(45)"/>
</clipPath>
</defs>
</svg>
