<svg width="14" height="12" viewBox="0 0 14 12" fill="none" xmlns="http://www.w3.org/2000/svg">
<path opacity="0.65" fill-rule="evenodd" clip-rule="evenodd" d="M9.96369 7.52427L13.3498 10.6626C13.4688 10.773 13.5356 10.9227 13.5356 11.0787C13.5355 11.2348 13.4686 11.3844 13.3495 11.4947C13.2304 11.605 13.0689 11.667 12.9005 11.6669C12.7321 11.6669 12.5707 11.6048 12.4517 11.4944L9.06555 8.3561C8.05332 9.08275 6.78043 9.4247 5.50583 9.31239C4.23123 9.20008 3.05066 8.64195 2.20429 7.75154C1.35793 6.86113 0.909336 5.70533 0.949781 4.51925C0.990226 3.33318 1.51667 2.20594 2.42201 1.36684C3.32735 0.527739 4.54359 0.039817 5.8233 0.00233119C7.10301 -0.0351546 8.35006 0.380611 9.31077 1.16505C10.2715 1.94949 10.8737 3.04367 10.9948 4.22501C11.116 5.40635 10.7471 6.5861 9.96306 7.52427H9.96369ZM5.98282 8.16652C6.98436 8.16652 7.94488 7.79777 8.65308 7.14139C9.36128 6.48501 9.75914 5.59478 9.75914 4.66652C9.75914 3.73826 9.36128 2.84802 8.65308 2.19164C7.94488 1.53527 6.98436 1.16652 5.98282 1.16652C4.98128 1.16652 4.02076 1.53527 3.31256 2.19164C2.60437 2.84802 2.20651 3.73826 2.20651 4.66652C2.20651 5.59478 2.60437 6.48501 3.31256 7.14139C4.02076 7.79777 4.98128 8.16652 5.98282 8.16652Z" fill="#686868"/>
</svg>
