<svg width="25" height="24" viewBox="0 0 25 24" fill="none" xmlns="http://www.w3.org/2000/svg">
<path fill-rule="evenodd" clip-rule="evenodd" d="M23.8888 13.7778C24.0369 13.1853 24.0369 12.4447 24.0369 11.8521C24.0369 8.59286 22.5554 5.48148 20.0369 3.25926C17.5183 1.03704 14.1109 0.296297 10.8517 0.740741C9.96278 0.296297 8.77766 0 7.59249 0C5.22211 0 2.99985 1.33334 1.81466 3.40741C0.629487 5.48148 0.629487 8 1.81466 10.0741C1.22207 13.6296 2.25908 17.3333 4.92574 20C7.44426 22.5185 11.148 23.7037 14.7036 23.1111C15.7406 23.7037 16.7777 24 17.9629 24C20.3332 24 22.5554 22.6667 23.7406 20.5926C24.9257 18.3704 25.074 15.8519 23.8888 13.7778ZM12.9258 18.963C8.92577 18.963 7.14797 16.8889 7.14797 15.4074C7.14797 15.1111 7.29618 14.6667 7.59249 14.5185C7.88878 14.2222 8.18503 14.2222 8.48134 14.2222C9.15635 14.2222 9.47549 14.6543 9.84941 15.1606C10.3782 15.8765 11.0165 16.7407 12.9258 16.7407C14.5554 16.7407 15.4443 15.7037 15.4443 14.8148C15.4443 14.2222 15.148 13.6296 14.111 13.3333L10.5555 12.4444C7.74062 11.7037 7.29618 10.0741 7.29618 8.74074C7.29618 5.62963 10.111 4.59259 12.7777 4.59259C15.148 4.59259 18.111 5.92593 18.111 7.7037C18.111 8.44444 17.5184 8.88889 16.6295 8.88889C16.0158 8.88889 15.7072 8.53303 15.3456 8.11612C14.8343 7.52652 14.217 6.81481 12.4814 6.81481C10.9999 6.81481 10.2591 7.55555 10.2591 8.44444C10.2591 9.33333 11.4443 9.77777 12.3332 9.92593L14.9999 10.5185C17.8147 11.1111 18.5554 12.8889 18.5554 14.3704C18.5554 17.1852 16.6295 18.963 12.9258 18.963Z" fill="#13836F"/>
</svg>
