<svg width="24" height="24" viewBox="0 0 24 24" fill="none" xmlns="http://www.w3.org/2000/svg">
<path d="M9.075 13.8C9.075 14.55 9.97501 15.6 12 15.6C13.875 15.6 14.85 14.7 14.85 13.275C14.85 12.525 14.475 11.625 13.05 11.325L11.7 11.025C11.25 10.95 10.65 10.725 10.65 10.275C10.65 9.825 11.025 9.45 11.775 9.45C12.6537 9.45 12.9662 9.8103 13.2251 10.1088C13.4081 10.3198 13.5644 10.5 13.875 10.5C14.325 10.5 14.625 10.275 14.625 9.9C14.625 9 13.125 8.325 11.925 8.325C10.575 8.325 9.15003 8.85 9.15003 10.425C9.15003 11.1 9.37503 11.925 10.8 12.3L12.6 12.75C13.125 12.9 13.275 13.2 13.275 13.5C13.275 13.95 12.825 14.475 12 14.475C11.0335 14.475 10.7103 14.0375 10.4426 13.675C10.2533 13.4188 10.0917 13.2 9.75002 13.2C9.60001 13.2 9.45004 13.2 9.30004 13.35C9.15003 13.425 9.075 13.65 9.075 13.8Z" fill="#EDF5F4"/>
<path fill-rule="evenodd" clip-rule="evenodd" d="M0 3.75C0 1.67893 1.67893 0 3.75 0H20.25C22.3211 0 24 1.67893 24 3.75V20.25C24 22.3211 22.3211 24 20.25 24H3.75C1.67893 24 0 22.3211 0 20.25V3.75ZM17.625 12.0001C17.625 12.3001 17.625 12.675 17.55 12.975C18.15 14.025 18.075 15.3 17.475 16.425C16.875 17.475 15.75 18.15 14.55 18.15C13.95 18.15 13.425 18 12.9 17.7C11.1 18 9.225 17.4 7.95 16.125C6.6 14.775 6.07502 12.9 6.37502 11.1C5.77502 10.05 5.77502 8.775 6.37502 7.725C6.97502 6.675 8.10004 6 9.30004 6C9.90003 6 10.5 6.15 10.95 6.375C12.6 6.15 14.325 6.525 15.6 7.65C16.875 8.775 17.625 10.3501 17.625 12.0001Z" fill="#EDF5F4"/>
</svg>
