<svg width="24" height="24" viewBox="0 0 24 24" fill="none" xmlns="http://www.w3.org/2000/svg">
<path d="M12.0232 7.10124C12.8501 7.10124 13.5247 7.77581 13.5247 8.60269C13.5247 9.42958 12.8501 10.1041 12.0232 10.1041C11.1964 10.1041 10.5218 9.42958 10.5218 8.60269C10.5 7.77581 11.1746 7.10124 12.0232 7.10124Z" fill="#13836F"/>
<path fill-rule="evenodd" clip-rule="evenodd" d="M3.75 0C1.67893 0 0 1.67893 0 3.75V20.25C0 22.3211 1.67893 24 3.75 24H20.25C22.3211 24 24 22.3211 24 20.25V3.75C24 1.67893 22.3211 0 20.25 0H3.75ZM12.0232 12.2366C14.0252 12.2366 15.6572 10.6046 15.6572 8.60269C15.6572 6.60076 14.0252 4.96875 12.0232 4.96875C9.99956 4.96875 8.36754 6.60076 8.36754 8.60269C8.36754 10.6046 9.99956 12.2366 12.0232 12.2366ZM13.4812 15.2178C14.221 15.0437 14.9391 14.7608 15.5919 14.3474C16.0924 14.0427 16.2447 13.3682 15.9183 12.8677C15.6137 12.3672 14.9391 12.2149 14.4386 12.5413C12.9589 13.477 11.0223 13.477 9.54262 12.5413C9.04213 12.2367 8.38933 12.3672 8.06292 12.8677C7.78004 13.3682 7.93236 14.021 8.43285 14.3256C9.08565 14.7391 9.80373 15.0219 10.5436 15.196L8.51989 17.2197C8.10644 17.6332 8.10644 18.3077 8.51989 18.7212C8.7375 18.9388 8.99862 19.0258 9.2815 19.0258C9.56437 19.0258 9.8255 18.917 10.0431 18.7212L12.045 16.7192L14.047 18.7212C14.4604 19.1346 15.135 19.1346 15.5484 18.7212C15.9618 18.3077 15.9618 17.6332 15.5484 17.2197L13.4812 15.2178Z" fill="#13836F"/>
</svg>
