<svg width="23" height="23" viewBox="0 0 23 23" fill="none" xmlns="http://www.w3.org/2000/svg">
<path d="M0 2.875C0 2.1125 0.302901 1.38124 0.842068 0.842068C1.38124 0.302901 2.1125 0 2.875 0L20.125 0C20.8875 0 21.6188 0.302901 22.1579 0.842068C22.6971 1.38124 23 2.1125 23 2.875V14.375C23 15.1375 22.6971 15.8688 22.1579 16.4079C21.6188 16.9471 20.8875 17.25 20.125 17.25H16.5312C16.3081 17.25 16.088 17.302 15.8884 17.4018C15.6888 17.5016 15.5151 17.6465 15.3812 17.825L12.65 21.4662C12.5161 21.6447 12.3425 21.7896 12.1429 21.8894C11.9433 21.9892 11.7232 22.0412 11.5 22.0412C11.2768 22.0412 11.0567 21.9892 10.8571 21.8894C10.6575 21.7896 10.4839 21.6447 10.35 21.4662L7.61875 17.825C7.48485 17.6465 7.31122 17.5016 7.11162 17.4018C6.91201 17.302 6.69192 17.25 6.46875 17.25H2.875C2.1125 17.25 1.38124 16.9471 0.842068 16.4079C0.302901 15.8688 0 15.1375 0 14.375V2.875ZM5.03125 4.3125C4.84063 4.3125 4.65781 4.38823 4.52302 4.52302C4.38823 4.65781 4.3125 4.84063 4.3125 5.03125C4.3125 5.22187 4.38823 5.40469 4.52302 5.53948C4.65781 5.67427 4.84063 5.75 5.03125 5.75H17.9688C18.1594 5.75 18.3422 5.67427 18.477 5.53948C18.6118 5.40469 18.6875 5.22187 18.6875 5.03125C18.6875 4.84063 18.6118 4.65781 18.477 4.52302C18.3422 4.38823 18.1594 4.3125 17.9688 4.3125H5.03125ZM5.03125 7.90625C4.84063 7.90625 4.65781 7.98198 4.52302 8.11677C4.38823 8.25156 4.3125 8.43438 4.3125 8.625C4.3125 8.81562 4.38823 8.99844 4.52302 9.13323C4.65781 9.26802 4.84063 9.34375 5.03125 9.34375H17.9688C18.1594 9.34375 18.3422 9.26802 18.477 9.13323C18.6118 8.99844 18.6875 8.81562 18.6875 8.625C18.6875 8.43438 18.6118 8.25156 18.477 8.11677C18.3422 7.98198 18.1594 7.90625 17.9688 7.90625H5.03125ZM5.03125 11.5C4.84063 11.5 4.65781 11.5757 4.52302 11.7105C4.38823 11.8453 4.3125 12.0281 4.3125 12.2188C4.3125 12.4094 4.38823 12.5922 4.52302 12.727C4.65781 12.8618 4.84063 12.9375 5.03125 12.9375H12.2188C12.4094 12.9375 12.5922 12.8618 12.727 12.727C12.8618 12.5922 12.9375 12.4094 12.9375 12.2188C12.9375 12.0281 12.8618 11.8453 12.727 11.7105C12.5922 11.5757 12.4094 11.5 12.2188 11.5H5.03125Z" fill="#13836F"/>
</svg>
