<svg width="24" height="24" viewBox="0 0 24 24" fill="none" xmlns="http://www.w3.org/2000/svg">
<path d="M9.25023 9.75H8.37503C8.12497 9.75 8.07495 9.8677 8.07495 9.99745C8.07495 10.2292 8.37167 11.3787 9.4565 12.899C10.1797 13.9372 11.1987 14.5 12.1259 14.5C12.6822 14.5 12.751 14.375 12.751 14.1597V13.375C12.751 13.125 12.8038 13.0751 12.9799 13.0751C13.1097 13.0751 13.3323 13.14 13.8515 13.6406C14.0282 13.8172 14.1609 13.9648 14.269 14.085C14.5241 14.3687 14.6421 14.5 14.8765 14.5H15.7517C16.0018 14.5 16.1268 14.375 16.0547 14.1283C15.9758 13.8825 15.6925 13.5257 15.3165 13.1029C15.2131 12.9807 15.0834 12.8538 14.9686 12.7414C14.8571 12.6321 14.7595 12.5365 14.7138 12.4725C14.584 12.3057 14.6211 12.2315 14.7138 12.0832C14.7138 12.0832 15.7801 10.5815 15.8914 10.0717C15.947 9.88622 15.8914 9.75 15.6267 9.75H14.7515C14.529 9.75 14.4264 9.8677 14.3707 9.99745C14.3707 9.99745 13.9257 11.082 13.2952 11.7866C13.0912 11.9905 12.9985 12.0554 12.8872 12.0554C12.8316 12.0554 12.751 11.9905 12.751 11.8051V10.0717C12.751 9.84915 12.6865 9.75 12.501 9.75H11.1257C10.9866 9.75 10.903 9.85325 10.903 9.95113C10.903 10.0316 10.9489 10.0885 11.0075 10.1611C11.1024 10.2785 11.2306 10.4372 11.2507 10.8039V12.0925C11.2507 12.375 11.1997 12.4262 11.0884 12.4262C10.7917 12.4262 10.07 11.3368 9.64193 10.0902C9.55805 9.84788 9.4739 9.75 9.25023 9.75Z" fill="#13836F"/>
<path fill-rule="evenodd" clip-rule="evenodd" d="M3.75 0C1.67893 0 0 1.67893 0 3.75V20.25C0 22.3211 1.67893 24 3.75 24H20.25C22.3211 24 24 22.3211 24 20.25V3.75C24 1.67893 22.3211 0 20.25 0H3.75ZM6 11.75C6 9.03942 6 7.68414 6.84207 6.84207C7.68414 6 9.03942 6 11.75 6H12.25C14.9606 6 16.3159 6 17.1579 6.84207C18 7.68414 18 9.03942 18 11.75V12.25C18 14.9606 18 16.3159 17.1579 17.1579C16.3159 18 14.9606 18 12.25 18H11.75C9.03942 18 7.68414 18 6.84207 17.1579C6 16.3159 6 14.9606 6 12.25V11.75Z" fill="#13836F"/>
</svg>
