<svg width="58" height="45" viewBox="0 0 58 45" fill="none" xmlns="http://www.w3.org/2000/svg">
<g clip-path="url(#clip0_2040_4300)">
<path d="M57.6744 42.6928C57.6744 43.187 57.4961 43.6146 57.1394 43.9757C56.7826 44.3368 56.3602 44.5174 55.8721 44.5174C55.384 44.5174 54.9615 44.3368 54.6048 43.9757C54.2481 43.6146 54.0698 43.187 54.0698 42.6928V18.6882L34.1879 28.7804C32.6859 29.5406 30.9024 29.9208 28.8372 29.9208C26.772 29.9208 24.9885 29.5406 23.4866 28.7804L2.19658 18.004C0.732195 17.2438 0 16.341 0 15.2956C0 14.2503 0.732195 13.3665 2.19658 12.6443L23.4866 1.8679C24.9885 1.10766 26.772 0.727539 28.8372 0.727539C30.9024 0.727539 32.6859 1.10766 34.1879 1.8679L55.4778 12.6443C56.7545 13.2905 57.4679 14.0888 57.6181 15.0391C57.6556 15.0771 57.6744 15.1531 57.6744 15.2671V42.6928ZM35.9902 32.4296L46.8605 26.8988V34.9383C46.8605 36.5729 45.1051 37.9698 41.5943 39.1292C38.0835 40.2885 33.8312 40.8682 28.8372 40.8682C23.8433 40.8682 19.5909 40.2885 16.0801 39.1292C12.5693 37.9698 10.814 36.5729 10.814 34.9383V26.8988L21.6842 32.4296C23.1862 33.1898 25.5705 33.5699 28.8372 33.5699C32.1039 33.5699 34.4883 33.1898 35.9902 32.4296Z" fill="white"/>
</g>
<defs>
<clipPath id="clip0_2040_4300">
<rect width="57.6744" height="43.7898" fill="white" transform="translate(0 0.727539)"/>
</clipPath>
</defs>
</svg>
