<svg width="9" height="8" viewBox="0 0 9 8" fill="none" xmlns="http://www.w3.org/2000/svg">
<path d="M5.45167 1.12915C4.6456 1.46442 3.03462 2.15834 0.618703 3.21092C0.226396 3.36692 0.0208887 3.51954 0.00218033 3.66878C-0.029437 3.92098 0.286395 4.02029 0.716477 4.15553C0.774979 4.17393 0.835595 4.19299 0.897739 4.21319C1.32087 4.35073 1.89007 4.51164 2.18596 4.51804C2.45437 4.52384 2.75395 4.41318 3.08469 4.18607C5.34195 2.66235 6.50716 1.89219 6.58032 1.87559C6.63192 1.86387 6.70344 1.84915 6.7519 1.89222C6.80036 1.93528 6.79559 2.01685 6.79046 2.03873C6.75917 2.17211 5.51942 3.32471 4.87784 3.92117L4.87771 3.9213C4.67777 4.10718 4.53595 4.23903 4.50695 4.26914C4.44198 4.33662 4.37577 4.40046 4.31213 4.4618C3.91903 4.84076 3.62424 5.12494 4.32845 5.589C4.66687 5.81201 4.93767 5.99643 5.20783 6.18041L5.20795 6.18049C5.50295 6.38139 5.7972 6.58177 6.1779 6.83132C6.27491 6.89491 6.36755 6.96096 6.45779 7.02529C6.80115 7.27007 7.10962 7.48999 7.49073 7.45492C7.71218 7.43454 7.94092 7.22631 8.05709 6.60528C8.33163 5.13759 8.87128 1.95755 8.996 0.647137C9.00693 0.532327 8.99318 0.385394 8.98214 0.320894C8.9711 0.256393 8.94803 0.164493 8.86419 0.0964625C8.7649 0.0158944 8.61162 -0.00109583 8.54306 5.32275e-05C8.23136 0.00560272 7.75314 0.171889 5.45167 1.12915Z" style="fill: #13836F"/>
</svg>
