<svg width="24" height="20" viewBox="0 0 24 20" fill="none" xmlns="http://www.w3.org/2000/svg">
<path d="M14.5378 3.01107C12.3883 3.90512 8.09231 5.75558 1.64987 8.56244C0.603723 8.97846 0.0557033 9.38545 0.00581422 9.78341C-0.0784987 10.456 0.76372 10.7208 1.91061 11.0814C2.06661 11.1305 2.22825 11.1813 2.39397 11.2352C3.52233 11.602 5.04017 12.0311 5.82924 12.0481C6.545 12.0636 7.34386 11.7685 8.22584 11.1628C14.2452 7.0996 17.3524 5.04584 17.5475 5.00156C17.6851 4.97033 17.8759 4.93105 18.0051 5.04591C18.1343 5.16076 18.1216 5.37827 18.1079 5.43662C18.0245 5.79231 14.7184 8.86588 13.0076 10.4565L13.0075 10.4566C12.4742 10.9524 12.0959 11.3041 12.0185 11.3844C11.8453 11.5643 11.6687 11.7345 11.499 11.8981C10.4507 12.9087 9.66464 13.6665 11.5425 14.904C12.445 15.4987 13.1671 15.9905 13.8876 16.4811L13.8877 16.4812C14.6744 17.017 15.4591 17.5513 16.4744 18.2169C16.7331 18.3864 16.9801 18.5625 17.2207 18.7341L17.2208 18.7341C18.1364 19.3869 18.959 19.9733 19.9753 19.8798C20.5658 19.8254 21.1758 19.2702 21.4856 17.6141C22.2177 13.7002 23.6567 5.22014 23.9893 1.7257C24.0185 1.41954 23.9818 1.02772 23.9524 0.855716C23.9229 0.683714 23.8614 0.438648 23.6379 0.257233C23.3731 0.0423849 22.9643 -0.00292222 22.7815 0.00014194C21.9503 0.0149406 20.675 0.458371 14.5378 3.01107Z" fill="white"/>
</svg>
