<svg width="62" height="63" viewBox="0 0 62 63" fill="none" xmlns="http://www.w3.org/2000/svg">
<mask id="mask0_2040_4308" style="mask-type:alpha" maskUnits="userSpaceOnUse" x="0" y="0" width="62" height="63">
<rect y="0.383789" width="61.9466" height="61.9466" fill="#C4C4C4"/>
</mask>
<g mask="url(#mask0_2040_4308)">
</g>
<g clip-path="url(#clip0_2040_4308)">
<path fill-rule="evenodd" clip-rule="evenodd" d="M52.8414 31.0402C52.8414 43.1095 43.0425 52.9084 30.9732 52.9084C18.9038 52.9084 9.10496 43.1095 9.10496 31.0402C9.10496 18.9708 18.9038 9.17195 30.9732 9.17195C37.0895 9.17195 42.6234 11.6885 46.5933 15.7425C47.0713 16.2303 47.7979 16.3801 48.4302 16.1225C49.0629 15.8634 49.4767 15.248 49.4767 14.565V7.48979C49.4767 6.56121 48.7231 5.80762 47.7945 5.80762C46.8659 5.80762 46.1123 6.56121 46.1123 7.48979V10.8575C41.8933 7.68655 36.6516 5.80762 30.9728 5.80762C17.0463 5.80762 5.74023 17.1137 5.74023 31.0402C5.74023 44.9666 17.0463 56.2727 30.9728 56.2727C44.8992 56.2727 56.2053 44.9666 56.2053 31.0402C56.2053 30.1116 55.4518 29.358 54.5232 29.358C53.5946 29.358 52.841 30.1116 52.841 31.0402L52.8414 31.0402Z" fill="white"/>
<path fill-rule="evenodd" clip-rule="evenodd" d="M30.9707 12.5322C20.7585 12.5322 12.4668 20.8237 12.4668 31.0361C12.4668 41.2485 20.7583 49.54 30.9707 49.54C41.1831 49.54 49.4745 41.2485 49.4745 31.0361C49.4745 20.8237 41.1831 12.5322 30.9707 12.5322ZM29.2885 20.9431V31.0361C29.2885 31.4818 29.465 31.911 29.7815 32.2253L36.5102 38.9539C37.1662 39.6103 38.2325 39.6103 38.8885 38.9539C39.5448 38.298 39.5448 37.2316 38.8885 36.5756L32.6528 30.3396V20.9431C32.6528 20.0145 31.8992 19.2609 30.9707 19.2609C30.0421 19.2609 29.2885 20.0145 29.2885 20.9431H29.2885Z" fill="white"/>
</g>
<defs>
<clipPath id="clip0_2040_4308">
<rect width="51.2662" height="51.2662" fill="white" transform="translate(5.33984 5.72363)"/>
</clipPath>
</defs>
</svg>
