<svg width="56" height="56" viewBox="0 0 56 56" fill="none" xmlns="http://www.w3.org/2000/svg">
<path fill-rule="evenodd" clip-rule="evenodd" d="M23.9349 11.8995C25.7199 8.7262 30.2863 8.7262 32.0689 11.8995L45.0889 35.0462C46.8389 38.1589 44.5919 41.9995 41.0243 41.9995H14.9819C11.4119 41.9995 9.16492 38.1589 10.9149 35.0462L23.9349 11.8995ZM30.3353 35.0019C30.3353 35.6207 30.0894 36.2142 29.6518 36.6518C29.2143 37.0894 28.6208 37.3352 28.0019 37.3352C27.3831 37.3352 26.7896 37.0894 26.352 36.6518C25.9144 36.2142 25.6686 35.6207 25.6686 35.0019C25.6686 34.383 25.9144 33.7895 26.352 33.352C26.7896 32.9144 27.3831 32.6685 28.0019 32.6685C28.6208 32.6685 29.2143 32.9144 29.6518 33.352C30.0894 33.7895 30.3353 34.383 30.3353 35.0019ZM28.0019 16.3352C27.3831 16.3352 26.7896 16.581 26.352 17.0186C25.9144 17.4562 25.6686 18.0497 25.6686 18.6685V25.6685C25.6686 26.2874 25.9144 26.8809 26.352 27.3184C26.7896 27.756 27.3831 28.0019 28.0019 28.0019C28.6208 28.0019 29.2143 27.756 29.6518 27.3184C30.0894 26.8809 30.3353 26.2874 30.3353 25.6685V18.6685C30.3353 18.0497 30.0894 17.4562 29.6518 17.0186C29.2143 16.581 28.6208 16.3352 28.0019 16.3352Z" fill="#F76659"/>
</svg>
