<svg width="24" height="24" viewBox="0 0 24 24" fill="none" xmlns="http://www.w3.org/2000/svg">
<path fill-rule="evenodd" clip-rule="evenodd" d="M20.4 3.45C18.15 1.2 15.15 0 12 0C5.4 0 0 5.4 0 12C0 14.1 0.600014 16.2 1.65001 18L0 24L6.30002 22.35C8.10001 23.25 10.05 23.85 12 23.85C18.6 23.85 24 18.45 24 11.85C24 8.7 22.65 5.7 20.4 3.45ZM6.90001 20.55C8.40001 21.45 10.2 21.9 12 21.9C17.55 21.9 21.9 17.4 21.9 12.15C21.9 9.45 21 7.05 19.05 5.1C17.1 3.3 14.7 2.25 12 2.25C6.6 2.25 2.09999 6.75 2.09999 12.15C2.09999 13.95 2.55 15.75 3.59999 17.4L3.90001 17.85L2.84999 21.45L6.59999 20.4L6.90001 20.55ZM17.4 14.4C17.1 14.25 15.6 13.5 15.3 13.5C15 13.35 14.85 13.35 14.7 13.65C14.625 13.8 14.4375 14.025 14.25 14.25C14.0625 14.475 13.875 14.7 13.8 14.85C13.65 15 13.5 15 13.2 15C13.1532 14.9766 13.0917 14.9495 13.0168 14.9165C12.6117 14.738 11.8127 14.3861 10.8 13.5C9.90002 12.75 9.30001 11.7 9.15001 11.4C9.00001 11.1 9.15002 10.95 9.30002 10.8L9.75 10.35C9.825 10.275 9.86251 10.2 9.90001 10.125C9.93751 10.05 9.97501 9.97499 10.05 9.9C10.15 9.8 10.1167 9.7 10.0833 9.6C10.0667 9.55 10.05 9.5 10.05 9.45C10.05 9.3 9.45 7.8 9.15001 7.2C9.00001 6.75 8.70002 6.75 8.55002 6.75H7.94998C7.79998 6.75 7.49998 6.75 7.19998 7.05C6.89999 7.35 6.15001 8.1 6.15001 9.6C6.15001 10.8446 6.87288 11.9859 7.20472 12.5099C7.27281 12.6174 7.32445 12.6989 7.34999 12.75C7.36855 12.7686 7.4147 12.8331 7.48699 12.9342C7.99877 13.6499 9.82129 16.1985 12.45 17.25C14.568 18.1221 15.2372 18.0629 15.747 18.0178C15.851 18.0086 15.9484 18 16.05 18C16.65 18 17.85 17.25 18 16.65C18.3 15.9 18.3 15.3 18.15 15.3C18.0234 14.6668 17.7898 14.5682 17.5396 14.4626C17.4934 14.4431 17.4467 14.4234 17.4 14.4Z" fill="white"/>
</svg>
