<svg width="62" height="63" viewBox="0 0 62 63" fill="none" xmlns="http://www.w3.org/2000/svg">
<mask id="mask0_2040_4302" style="mask-type:alpha" maskUnits="userSpaceOnUse" x="0" y="0" width="62" height="63">
<rect y="0.31543" width="61.9466" height="61.9466" fill="#C4C4C4"/>
</mask>
<g mask="url(#mask0_2040_4302)">
</g>
<g clip-path="url(#clip0_2040_4302)">
<path d="M58.1411 13.1015L55.3723 10.3697H55.3718C54.8313 9.8364 53.9547 9.8364 53.4142 10.3697L36.8002 26.7616C36.5406 27.0177 36.3945 27.3653 36.3945 27.7276V30.4594C36.3945 30.8216 36.5401 31.1692 36.7997 31.4253C37.0597 31.6815 37.4116 31.8255 37.7787 31.8255H40.5481C40.9152 31.8255 41.2675 31.6815 41.5271 31.4253L58.1411 15.0334C58.6816 14.5001 58.6816 13.6353 58.1411 13.1015H58.1411Z" fill="white"/>
<path d="M43.4826 33.3587L43.4817 33.3596C42.7034 34.128 41.6469 34.5593 40.546 34.5593H36.3925C35.6577 34.5593 34.9536 34.2716 34.4344 33.7594C33.9152 33.2471 33.6232 32.552 33.6232 31.8275V27.7295C33.6232 26.6428 34.0608 25.6009 34.8395 24.8326L34.84 24.8321L44.3602 15.4397L4.54825 15.4355C3.78384 15.4355 3.16406 16.047 3.16406 16.8017V52.3066C3.16406 53.0608 3.78385 53.6723 4.54825 53.6727L51.6217 53.6837C52.3861 53.6833 53.0059 53.0718 53.0064 52.3176L53.0017 23.9666L43.4826 33.3587ZM12.8558 23.6315H23.9322C24.6966 23.6315 25.3164 24.243 25.3164 24.9977C25.3164 25.7519 24.6966 26.3634 23.9322 26.3634H12.8558C12.0914 26.3634 11.4716 25.7519 11.4716 24.9977C11.4716 24.243 12.0914 23.6315 12.8558 23.6315ZM12.8558 31.8275H23.9322C24.6966 31.8275 25.3164 32.439 25.3164 33.1936C25.3164 33.9478 24.6966 34.5593 23.9322 34.5593H12.8558C12.0914 34.5593 11.4716 33.9478 11.4716 33.1936C11.4716 32.439 12.0914 31.8275 12.8558 31.8275ZM43.3153 42.7553H12.8558C12.0914 42.7553 11.4716 42.1438 11.4716 41.3896C11.4716 40.635 12.0914 40.0235 12.8558 40.0235H43.3153C44.0797 40.0235 44.6999 40.635 44.6999 41.3896C44.6999 42.1438 44.0797 42.7553 43.3153 42.7553Z" fill="white"/>
</g>
<defs>
<clipPath id="clip0_2040_4302">
<rect width="55.5383" height="43.7898" fill="white" transform="translate(3.20508 9.92773)"/>
</clipPath>
</defs>
</svg>
