<svg width="24" height="17" viewBox="0 0 24 17" fill="none" xmlns="http://www.w3.org/2000/svg">
<path fill-rule="evenodd" clip-rule="evenodd" d="M21.3 0.450001C22.35 0.75 23.1 1.5 23.4 2.55C24 4.5 24 8.4 24 8.4C24 8.4 24 12.3 23.55 14.25C23.25 15.3 22.5 16.05 21.45 16.35C19.5 16.8 12 16.8 12 16.8C12 16.8 4.35 16.8 2.55 16.35C1.5 16.05 0.750004 15.3 0.450005 14.25C4.29153e-06 12.3 0 8.4 0 8.4C0 8.4 -4.29153e-06 4.5 0.299995 2.55C0.599995 1.5 1.35001 0.75 2.40001 0.450001C4.35001 4.76837e-07 11.85 0 11.85 0C11.85 0 19.5 4.76837e-07 21.3 0.450001ZM9.59999 4.8L15.9 8.4L9.59999 12V4.8Z" fill="white"/>
</svg>
