<svg width="9" height="7" viewBox="0 0 9 7" fill="none" xmlns="http://www.w3.org/2000/svg">
<path fill-rule="evenodd" clip-rule="evenodd" d="M7.98751 0.16875C8.38126 0.28125 8.6625 0.562501 8.775 0.956251C9 1.6875 9 3.15 9 3.15C9 3.15 9.00001 4.6125 8.83126 5.34375C8.71876 5.7375 8.43749 6.01875 8.04374 6.13125C7.31249 6.3 4.5 6.3 4.5 6.3C4.5 6.3 1.63125 6.3 0.956248 6.13125C0.562498 6.01875 0.281252 5.7375 0.168752 5.34375C1.60933e-06 4.6125 0 3.15 0 3.15C0 3.15 -1.60933e-06 1.6875 0.112498 0.956251C0.224998 0.562501 0.506254 0.28125 0.900003 0.16875C1.63125 1.78814e-07 4.44375 0 4.44375 0C4.44375 0 7.31251 1.78814e-07 7.98751 0.16875ZM3.6 1.8L5.9625 3.15L3.6 4.5V1.8Z" style="fill: #13836F"/>
</svg>
