<svg width="24" height="24" viewBox="0 0 24 24" fill="none" xmlns="http://www.w3.org/2000/svg">
<path fill-rule="evenodd" clip-rule="evenodd" d="M14.7068 7.29279C14.8943 7.48031 14.9996 7.73462 14.9996 7.99979C14.9996 8.26495 14.8943 8.51926 14.7068 8.70679L11.4138 11.9998L14.7068 15.2928C14.8889 15.4814 14.9897 15.734 14.9875 15.9962C14.9852 16.2584 14.88 16.5092 14.6946 16.6946C14.5092 16.88 14.2584 16.9852 13.9962 16.9875C13.734 16.9897 13.4814 16.8889 13.2928 16.7068L9.29279 12.7068C9.10532 12.5193 9 12.265 9 11.9998C9 11.7346 9.10532 11.4803 9.29279 11.2928L13.2928 7.29279C13.4803 7.10532 13.7346 7 13.9998 7C14.265 7 14.5193 7.10532 14.7068 7.29279Z" fill="#575553"/>
</svg>
