<svg width="24" height="24" viewBox="0 0 24 24" fill="none" xmlns="http://www.w3.org/2000/svg">
<path fill-rule="evenodd" clip-rule="evenodd" d="M9.29279 16.7103C9.10532 16.5228 9 16.2685 9 16.0033C9 15.7382 9.10532 15.4839 9.29279 15.2963L12.5858 12.0033L9.29279 8.71034C9.11063 8.52173 9.00983 8.26913 9.01211 8.00694C9.01439 7.74474 9.11956 7.49393 9.30497 7.30852C9.49038 7.12311 9.74119 7.01794 10.0034 7.01566C10.2656 7.01338 10.5182 7.11418 10.7068 7.29634L14.7068 11.2963C14.8943 11.4839 14.9996 11.7382 14.9996 12.0033C14.9996 12.2685 14.8943 12.5228 14.7068 12.7103L10.7068 16.7103C10.5193 16.8978 10.265 17.0031 9.99979 17.0031C9.73462 17.0031 9.48031 16.8978 9.29279 16.7103Z" fill="#312E2E"/>
</svg>
